%TF.GenerationSoftware,KiCad,Pcbnew,9.0.7*%
%TF.CreationDate,2026-02-28T17:46:55-04:00*%
%TF.ProjectId,RC-KAKATA-CONTROL,52432d4b-414b-4415-9441-2d434f4e5452,1.0*%
%TF.SameCoordinates,Original*%
%TF.FileFunction,Copper,L5,Inr*%
%TF.FilePolarity,Positive*%
%FSLAX46Y46*%
G04 Gerber Fmt 4.6, Leading zero omitted, Abs format (unit mm)*
G04 Created by KiCad (PCBNEW 9.0.7) date 2026-02-28 17:46:55*
%MOMM*%
%LPD*%
G01*
G04 APERTURE LIST*
G04 Aperture macros list*
%AMRoundRect*
0 Rectangle with rounded corners*
0 $1 Rounding radius*
0 $2 $3 $4 $5 $6 $7 $8 $9 X,Y pos of 4 corners*
0 Add a 4 corners polygon primitive as box body*
4,1,4,$2,$3,$4,$5,$6,$7,$8,$9,$2,$3,0*
0 Add four circle primitives for the rounded corners*
1,1,$1+$1,$2,$3*
1,1,$1+$1,$4,$5*
1,1,$1+$1,$6,$7*
1,1,$1+$1,$8,$9*
0 Add four rect primitives between the rounded corners*
20,1,$1+$1,$2,$3,$4,$5,0*
20,1,$1+$1,$4,$5,$6,$7,0*
20,1,$1+$1,$6,$7,$8,$9,0*
20,1,$1+$1,$8,$9,$2,$3,0*%
G04 Aperture macros list end*
%TA.AperFunction,ComponentPad*%
%ADD10R,2.300000X2.300000*%
%TD*%
%TA.AperFunction,ComponentPad*%
%ADD11C,2.300000*%
%TD*%
%TA.AperFunction,ComponentPad*%
%ADD12C,1.500000*%
%TD*%
%TA.AperFunction,ComponentPad*%
%ADD13C,2.000000*%
%TD*%
%TA.AperFunction,ComponentPad*%
%ADD14R,1.600000X1.600000*%
%TD*%
%TA.AperFunction,ComponentPad*%
%ADD15C,1.600000*%
%TD*%
%TA.AperFunction,ComponentPad*%
%ADD16R,1.800000X1.800000*%
%TD*%
%TA.AperFunction,ComponentPad*%
%ADD17C,1.800000*%
%TD*%
%TA.AperFunction,ComponentPad*%
%ADD18RoundRect,0.250000X0.600000X-0.600000X0.600000X0.600000X-0.600000X0.600000X-0.600000X-0.600000X0*%
%TD*%
%TA.AperFunction,ComponentPad*%
%ADD19C,1.700000*%
%TD*%
%TA.AperFunction,ComponentPad*%
%ADD20R,1.500000X1.500000*%
%TD*%
%TA.AperFunction,ComponentPad*%
%ADD21O,1.800000X1.800000*%
%TD*%
%TA.AperFunction,ComponentPad*%
%ADD22R,1.700000X1.700000*%
%TD*%
%TA.AperFunction,ComponentPad*%
%ADD23C,1.651000*%
%TD*%
%TA.AperFunction,ViaPad*%
%ADD24C,0.600000*%
%TD*%
%TA.AperFunction,ViaPad*%
%ADD25C,0.609600*%
%TD*%
%TA.AperFunction,ViaPad*%
%ADD26C,0.508000*%
%TD*%
%TA.AperFunction,Conductor*%
%ADD27C,0.200000*%
%TD*%
%TA.AperFunction,Conductor*%
%ADD28C,0.203200*%
%TD*%
%TA.AperFunction,Conductor*%
%ADD29C,0.254000*%
%TD*%
G04 APERTURE END LIST*
D10*
%TO.N,/motor_driver3/MB*%
%TO.C,J9*%
X244500000Y-183075000D03*
D11*
%TO.N,/motor_driver3/MA*%
X244500000Y-177995000D03*
%TD*%
D10*
%TO.N,/motor_driver4/MB*%
%TO.C,J11*%
X104500000Y-103700000D03*
D11*
%TO.N,/motor_driver4/MA*%
X104500000Y-108780000D03*
%TD*%
D12*
%TO.N,Net-(JP2-C)*%
%TO.C,RF2*%
X170917500Y-85040500D03*
%TO.N,/RF_DATA_EN*%
X170917500Y-87580500D03*
%TO.N,GND*%
X170917500Y-90120500D03*
%TO.N,+3.3V*%
X170917500Y-92660500D03*
%TD*%
D10*
%TO.N,/motor_driver8/MB*%
%TO.C,J21*%
X244500000Y-133545000D03*
D11*
%TO.N,/motor_driver8/MA*%
X244500000Y-128465000D03*
%TD*%
D10*
%TO.N,/motor_driver1/MB*%
%TO.C,J5*%
X244500000Y-84540000D03*
D11*
%TO.N,/motor_driver1/MA*%
X244500000Y-79460000D03*
%TD*%
D10*
%TO.N,/motor_driver6/MB*%
%TO.C,J17*%
X104500000Y-153230000D03*
D11*
%TO.N,/motor_driver6/MA*%
X104500000Y-158310000D03*
%TD*%
D13*
%TO.N,unconnected-(J1-Pin_1-Pad1)*%
%TO.C,J1*%
X197000000Y-213150000D03*
%TO.N,unconnected-(J1-Pin_2-Pad2)*%
X202000000Y-213150000D03*
%TO.N,/LS_TRASERO_DX_180G*%
X207000000Y-213150000D03*
%TO.N,/LS_TRASERO_DX_0G*%
X212000000Y-213150000D03*
%TO.N,/LS_TRASERO_IX_180G*%
X217000000Y-213150000D03*
%TO.N,/LS_TRASERO_IX_0G*%
X222000000Y-213150000D03*
%TO.N,/LS_DELANTERO_DX_180G*%
X227000000Y-213150000D03*
%TO.N,/LS_DELANTERO_DX_0G*%
X232000000Y-213150000D03*
%TO.N,/LS_DELANTERO_IX_180G*%
X237000000Y-213150000D03*
%TO.N,/LS_DELANTERO_IX_0G*%
X242000000Y-213150000D03*
%TO.N,/ENC_A_TRASERO_IZQ*%
X197000000Y-198150000D03*
%TO.N,/ENC_A_TRASERO_DER*%
X202000000Y-198150000D03*
%TO.N,/ENC_A_DELANTERO_IZQ*%
X207000000Y-198150000D03*
%TO.N,/ENC_A_DELANTERO_DER*%
X212000000Y-198150000D03*
%TO.N,/ENC_A_MOTOR_1_IZQ*%
X217000000Y-198150000D03*
%TO.N,/ENC_A_MOTOR_2_IZQ*%
X222000000Y-198150000D03*
%TO.N,/ENC_A_MOTOR_3_IZQ*%
X227000000Y-198150000D03*
%TO.N,/ENC_A_MOTOR_1_DER*%
X232000000Y-198150000D03*
%TO.N,/ENC_A_MOTOR_2_DER*%
X237000000Y-198150000D03*
%TO.N,/ENC_A_MOTOR_3_DER*%
X242000000Y-198150000D03*
%TD*%
D10*
%TO.N,/motor_driver2/MB*%
%TO.C,J7*%
X104500000Y-177995000D03*
D11*
%TO.N,/motor_driver2/MA*%
X104500000Y-183075000D03*
%TD*%
D14*
%TO.N,+3.3V*%
%TO.C,U4*%
X171996000Y-205110000D03*
D15*
%TO.N,/JOY_PB*%
X174536000Y-205110000D03*
%TO.N,GND*%
X177076000Y-205110000D03*
D14*
%TO.N,+3.3V*%
X184186000Y-197960000D03*
D15*
%TO.N,/JOY_DIRA*%
X184186000Y-195460000D03*
%TO.N,GND*%
X184186000Y-192960000D03*
X161786000Y-192210000D03*
X161786000Y-198710000D03*
%TO.N,/JOY_DIRB*%
X166286000Y-192210000D03*
X166286000Y-198710000D03*
D13*
%TO.N,unconnected-(U4-Pad9)*%
X167886000Y-187710000D03*
%TO.N,unconnected-(U4-Pad10)*%
X181186000Y-187710000D03*
%TO.N,unconnected-(U4-Pad11)*%
X181186000Y-203210000D03*
%TO.N,unconnected-(U4-Pad12)*%
X167886000Y-203210000D03*
%TD*%
D16*
%TO.N,+3.3V*%
%TO.C,J10*%
X243598000Y-63568000D03*
D17*
%TO.N,/UART_RX*%
X246138000Y-63568000D03*
%TO.N,/UART_TX*%
X248678000Y-63568000D03*
%TO.N,GND*%
X251218000Y-63568000D03*
%TD*%
D18*
%TO.N,Net-(J6-3V3-Pad1)*%
%TO.C,J6*%
X151510000Y-64500000D03*
D19*
%TO.N,+5V*%
X151510000Y-61960000D03*
%TO.N,/RPI_GPIO_SDA*%
X154050000Y-64500000D03*
%TO.N,+5V*%
X154050000Y-61960000D03*
%TO.N,/RPI_GPIO_SCL*%
X156590000Y-64500000D03*
%TO.N,GND*%
X156590000Y-61960000D03*
%TO.N,unconnected-(J6-GCLK0{slash}GPIO4-Pad7)*%
X159130000Y-64500000D03*
%TO.N,/RPI_UART2_TX*%
X159130000Y-61960000D03*
%TO.N,GND*%
X161670000Y-64500000D03*
%TO.N,/RPI_UART2_RX*%
X161670000Y-61960000D03*
%TO.N,unconnected-(J6-GPIO17-Pad11)*%
X164210000Y-64500000D03*
%TO.N,unconnected-(J6-GPIO18{slash}PWM0-Pad12)*%
X164210000Y-61960000D03*
%TO.N,unconnected-(J6-GPIO27-Pad13)*%
X166750000Y-64500000D03*
%TO.N,GND*%
X166750000Y-61960000D03*
%TO.N,unconnected-(J6-GPIO22-Pad15)*%
X169290000Y-64500000D03*
%TO.N,unconnected-(J6-GPIO23-Pad16)*%
X169290000Y-61960000D03*
%TO.N,Net-(J6-3V3-Pad1)*%
X171830000Y-64500000D03*
%TO.N,unconnected-(J6-GPIO24-Pad18)*%
X171830000Y-61960000D03*
%TO.N,/RPI_SPI_MISO*%
X174370000Y-64500000D03*
%TO.N,GND*%
X174370000Y-61960000D03*
%TO.N,/RPI_SPI_MOSI*%
X176910000Y-64500000D03*
%TO.N,unconnected-(J6-GPIO25-Pad22)*%
X176910000Y-61960000D03*
%TO.N,/RPI_SPI_CLK*%
X179450000Y-64500000D03*
%TO.N,/RPI_SPI_CS*%
X179450000Y-61960000D03*
%TO.N,GND*%
X181990000Y-64500000D03*
%TO.N,unconnected-(J6-~{CE1}{slash}GPIO7-Pad26)*%
X181990000Y-61960000D03*
%TO.N,unconnected-(J6-ID_SD{slash}GPIO0-Pad27)*%
X184530000Y-64500000D03*
%TO.N,unconnected-(J6-ID_SC{slash}GPIO1-Pad28)*%
X184530000Y-61960000D03*
%TO.N,unconnected-(J6-GCLK1{slash}GPIO5-Pad29)*%
X187070000Y-64500000D03*
%TO.N,GND*%
X187070000Y-61960000D03*
%TO.N,unconnected-(J6-GCLK2{slash}GPIO6-Pad31)*%
X189610000Y-64500000D03*
%TO.N,unconnected-(J6-PWM0{slash}GPIO12-Pad32)*%
X189610000Y-61960000D03*
%TO.N,unconnected-(J6-PWM1{slash}GPIO13-Pad33)*%
X192150000Y-64500000D03*
%TO.N,GND*%
X192150000Y-61960000D03*
%TO.N,unconnected-(J6-GPIO19{slash}POCI1-Pad35)*%
X194690000Y-64500000D03*
%TO.N,unconnected-(J6-GPIO16-Pad36)*%
X194690000Y-61960000D03*
%TO.N,unconnected-(J6-GPIO26-Pad37)*%
X197230000Y-64500000D03*
%TO.N,unconnected-(J6-GPIO20{slash}PICO1-Pad38)*%
X197230000Y-61960000D03*
%TO.N,GND*%
X199770000Y-64500000D03*
%TO.N,unconnected-(J6-GPIO21{slash}SCLK1-Pad40)*%
X199770000Y-61960000D03*
%TD*%
D10*
%TO.N,/motor_driver9/MB*%
%TO.C,J23*%
X244500000Y-158310000D03*
D11*
%TO.N,/motor_driver9/MA*%
X244500000Y-153230000D03*
%TD*%
D12*
%TO.N,unconnected-(RF1-ANT-Pad1)*%
%TO.C,RF1*%
X158032000Y-73440000D03*
D20*
%TO.N,GND*%
X158032000Y-75440000D03*
D12*
%TO.N,+3.3V*%
X158032000Y-93440000D03*
%TO.N,Net-(JP3-C)*%
X158032000Y-95980000D03*
X158032000Y-98520000D03*
%TO.N,GND*%
X158032000Y-101060000D03*
%TD*%
D16*
%TO.N,/power_supply/vbat_in*%
%TO.C,U2*%
X162826000Y-173612500D03*
D21*
%TO.N,GND*%
X160286000Y-173612500D03*
%TO.N,+5V*%
X157746000Y-173612500D03*
%TD*%
D10*
%TO.N,GND*%
%TO.C,J3*%
X159270000Y-210000000D03*
D11*
%TO.N,/VBAT_1*%
X164350000Y-210000000D03*
%TD*%
D10*
%TO.N,GND*%
%TO.C,J4*%
X184670000Y-210000000D03*
D11*
%TO.N,/VBAT_2*%
X189750000Y-210000000D03*
%TD*%
D10*
%TO.N,/motor_driver7/MB*%
%TO.C,J19*%
X244500000Y-108780000D03*
D11*
%TO.N,/motor_driver7/MA*%
X244500000Y-103700000D03*
%TD*%
D16*
%TO.N,/power_supply/vbat_in*%
%TO.C,U1*%
X189750000Y-173296000D03*
D21*
%TO.N,GND*%
X187210000Y-173296000D03*
%TO.N,+3.3V*%
X184670000Y-173296000D03*
%TD*%
D22*
%TO.N,+3.3V*%
%TO.C,J12*%
X153682000Y-117162000D03*
D19*
%TO.N,/JTMS{slash}SWDIO*%
X153682000Y-119702000D03*
%TO.N,/JTCK{slash}SWCLK*%
X153682000Y-122242000D03*
%TO.N,/JTDI*%
X153682000Y-124782000D03*
%TO.N,/JTDO*%
X153682000Y-127322000D03*
%TO.N,/NJTRST*%
X153682000Y-129862000D03*
%TO.N,GND*%
X153682000Y-132402000D03*
%TD*%
D22*
%TO.N,/RF_DATA_UART_TX*%
%TO.C,JP2*%
X180606000Y-83380000D03*
D19*
%TO.N,Net-(JP2-C)*%
X180606000Y-80840000D03*
%TO.N,/RF_DATA_TIMER*%
X180606000Y-78300000D03*
%TD*%
D10*
%TO.N,/motor_driver5/MB*%
%TO.C,J13*%
X104500000Y-128465000D03*
D11*
%TO.N,/motor_driver5/MA*%
X104500000Y-133545000D03*
%TD*%
D22*
%TO.N,/RF_DATA_IN_TIM*%
%TO.C,JP3*%
X164350000Y-101160000D03*
D19*
%TO.N,Net-(JP3-C)*%
X164350000Y-98620000D03*
%TO.N,/RF_DATA_IN_UART*%
X164350000Y-96080000D03*
%TD*%
D16*
%TO.N,+3.3V*%
%TO.C,J8*%
X231406000Y-63568000D03*
D17*
%TO.N,/ACC_I2C_SDA*%
X233946000Y-63568000D03*
%TO.N,/ACC_I2C_SCL*%
X236486000Y-63568000D03*
%TO.N,GND*%
X239026000Y-63568000D03*
%TD*%
D16*
%TO.N,/ACC_1*%
%TO.C,J14*%
X214007000Y-63568000D03*
D17*
%TO.N,/ACC_2*%
X216547000Y-63568000D03*
%TO.N,/ACC_3*%
X219087000Y-63568000D03*
%TO.N,GND*%
X221627000Y-63568000D03*
%TD*%
D13*
%TO.N,GND*%
%TO.C,J25*%
X106500000Y-213150000D03*
X111500000Y-213150000D03*
X116500000Y-213150000D03*
X121500000Y-213150000D03*
X126500000Y-213150000D03*
X131500000Y-213150000D03*
X136500000Y-213150000D03*
X141500000Y-213150000D03*
X146500000Y-213150000D03*
X151500000Y-213150000D03*
%TO.N,+3.3V*%
X106500000Y-198150000D03*
X111500000Y-198150000D03*
X116500000Y-198150000D03*
X121500000Y-198150000D03*
X126500000Y-198150000D03*
X131500000Y-198150000D03*
X136500000Y-198150000D03*
X141500000Y-198150000D03*
X146500000Y-198150000D03*
X151500000Y-198150000D03*
%TD*%
D10*
%TO.N,/motor_driver/MB*%
%TO.C,J2*%
X104500000Y-78935000D03*
D11*
%TO.N,/motor_driver/MA*%
X104500000Y-84015000D03*
%TD*%
D23*
%TO.N,Net-(U3-PF15)*%
%TO.C,TP5*%
X181241000Y-120337000D03*
%TD*%
%TO.N,Net-(U3-PF13)*%
%TO.C,TP3*%
X180987000Y-126306000D03*
%TD*%
%TO.N,Net-(U3-PF12)*%
%TO.C,TP2*%
X183654000Y-127449000D03*
%TD*%
%TO.N,Net-(U3-PF14)*%
%TO.C,TP4*%
X181241000Y-123258000D03*
%TD*%
%TO.N,Net-(U3-PF11)*%
%TO.C,TP1*%
X182892000Y-130243000D03*
%TD*%
D24*
%TO.N,/ACC_GYR_INT*%
X176034000Y-170248000D03*
%TO.N,+3.3V*%
X177050000Y-168597000D03*
X173113000Y-172153000D03*
%TO.N,GND*%
X176034000Y-165168000D03*
X178447000Y-171645000D03*
X169921868Y-171698443D03*
X179590000Y-169486000D03*
X173367000Y-168216000D03*
%TO.N,Net-(JP2-C)*%
X170954000Y-80967000D03*
%TO.N,GND*%
X219595000Y-82745000D03*
X133489000Y-158437000D03*
X222008000Y-125925000D03*
X215785000Y-88460000D03*
X133362000Y-176090000D03*
X137934000Y-60266000D03*
X129679000Y-150182000D03*
X215658000Y-179265000D03*
X127139000Y-132402000D03*
X124599000Y-144467000D03*
X220738000Y-187520000D03*
X225945000Y-81475000D03*
X176288000Y-178630000D03*
X219671161Y-127171949D03*
X123329000Y-157167000D03*
X136029000Y-105097000D03*
X224675000Y-85285000D03*
X121932000Y-183075000D03*
X206895000Y-88460000D03*
X211848000Y-162755000D03*
X223405000Y-103700000D03*
X211848000Y-156405000D03*
X218059000Y-156337000D03*
X223405000Y-108780000D03*
X249186000Y-209364000D03*
X210705000Y-109415000D03*
X249186000Y-205808000D03*
X194686400Y-132402000D03*
X216928000Y-132275000D03*
X136029000Y-150182000D03*
X216928000Y-125925000D03*
X125869000Y-82872000D03*
X216928000Y-180535000D03*
X137299000Y-79697000D03*
X124472000Y-183075000D03*
X215658000Y-129735000D03*
X133489000Y-107637000D03*
X122059000Y-157167000D03*
X186702000Y-144594000D03*
X215785000Y-102430000D03*
X225818000Y-133545000D03*
X134759000Y-82872000D03*
X211975000Y-108145000D03*
X211975000Y-111955000D03*
X171716000Y-176598000D03*
X222008000Y-138625000D03*
X122059000Y-148277000D03*
X218325000Y-110685000D03*
X123202000Y-176725000D03*
X133489000Y-133672000D03*
X128409000Y-106367000D03*
X223278000Y-157040000D03*
X218325000Y-85920000D03*
X217055000Y-84015000D03*
X222135000Y-104970000D03*
X136029000Y-103192000D03*
X218325000Y-78935000D03*
X126504000Y-162247000D03*
X224548000Y-186885000D03*
X132219000Y-159707000D03*
X125869000Y-94937000D03*
X222008000Y-181805000D03*
X227215000Y-107510000D03*
X224548000Y-131005000D03*
X210578000Y-181805000D03*
X136029000Y-152722000D03*
X136918000Y-64838000D03*
X211975000Y-84650000D03*
X171704000Y-173736000D03*
X135902000Y-60266000D03*
X129044000Y-87952000D03*
X124472000Y-177995000D03*
X132219000Y-82872000D03*
X135902000Y-61282000D03*
X136918000Y-60266000D03*
X171935497Y-137238788D03*
X224548000Y-180535000D03*
X134886000Y-65854000D03*
X219468000Y-179265000D03*
X133362000Y-174820000D03*
X132219000Y-105097000D03*
X215658000Y-160215000D03*
X122059000Y-133672000D03*
X224548000Y-137355000D03*
X124599000Y-154627000D03*
X125869000Y-155897000D03*
X137299000Y-153992000D03*
X216293000Y-174185000D03*
X224548000Y-184345000D03*
X227088000Y-189425000D03*
X124599000Y-150817000D03*
X225818000Y-180535000D03*
X249186000Y-207586000D03*
X122059000Y-110177000D03*
X213245000Y-106240000D03*
D25*
X180860000Y-108780000D03*
D24*
X174498000Y-173736000D03*
X132219000Y-128592000D03*
X224548000Y-164660000D03*
X129679000Y-158437000D03*
X204355000Y-88460000D03*
X125742000Y-183075000D03*
X127139000Y-153357000D03*
X139839000Y-129227000D03*
X133489000Y-155897000D03*
X133489000Y-99382000D03*
X127139000Y-105097000D03*
X129447200Y-132497028D03*
X227088000Y-125925000D03*
X220865000Y-106240000D03*
X223405000Y-87825000D03*
X225945000Y-82745000D03*
X138569000Y-99382000D03*
X227215000Y-85285000D03*
D26*
X167906000Y-209618000D03*
D24*
X124599000Y-147007000D03*
X129447200Y-131132000D03*
X210705000Y-107510000D03*
X125869000Y-126052000D03*
X217055000Y-101160000D03*
X223278000Y-132275000D03*
X213118000Y-129735000D03*
X124599000Y-131132000D03*
X128282000Y-176090000D03*
X138569000Y-77157000D03*
X132219000Y-86682000D03*
X131584000Y-162247000D03*
X123329000Y-106367000D03*
X127012000Y-171645000D03*
X190258000Y-144594000D03*
X125869000Y-132402000D03*
X219595000Y-102430000D03*
X134886000Y-64838000D03*
X174510000Y-174566000D03*
X224675000Y-91635000D03*
X139839000Y-150817000D03*
X193902000Y-120210000D03*
X123329000Y-108907000D03*
X223405000Y-117670000D03*
X134759000Y-131132000D03*
X125869000Y-71442000D03*
X125869000Y-79062000D03*
X124599000Y-122242000D03*
X123329000Y-144467000D03*
X215785000Y-87190000D03*
X213245000Y-82745000D03*
X126504000Y-137482000D03*
X211848000Y-186250000D03*
X132219000Y-99382000D03*
X176276000Y-173736000D03*
X125869000Y-160977000D03*
X216928000Y-177995000D03*
X142379000Y-99382000D03*
X224675000Y-111320000D03*
X214515000Y-110685000D03*
X137299000Y-80967000D03*
X133489000Y-154627000D03*
X133489000Y-74617000D03*
X224548000Y-134815000D03*
X138569000Y-148912000D03*
X224548000Y-139895000D03*
X213880000Y-113225000D03*
X129447200Y-129975281D03*
X125869000Y-98747000D03*
X224548000Y-181805000D03*
X225310000Y-99890000D03*
X139839000Y-101287000D03*
X124599000Y-82872000D03*
X209308000Y-136085000D03*
X133489000Y-125417000D03*
X215658000Y-131005000D03*
X123329000Y-98747000D03*
X214388000Y-135450000D03*
X224548000Y-127195000D03*
X137934000Y-66870000D03*
X134886000Y-61282000D03*
X120662000Y-64330000D03*
X134632000Y-174820000D03*
X214515000Y-82745000D03*
X130949000Y-81602000D03*
D26*
X164604000Y-142308000D03*
D24*
X220865000Y-78935000D03*
X135394000Y-148912000D03*
X136029000Y-77157000D03*
X213753000Y-162755000D03*
X130949000Y-158437000D03*
X130949000Y-79062000D03*
X222008000Y-158310000D03*
X127139000Y-124782000D03*
X222135000Y-80205000D03*
X222135000Y-89095000D03*
X124599000Y-152087000D03*
X123329000Y-80332000D03*
X223278000Y-150690000D03*
X217055000Y-106240000D03*
X227215000Y-90365000D03*
X173482000Y-173736000D03*
X176288000Y-176598000D03*
X225818000Y-167200000D03*
X225945000Y-102430000D03*
X218833000Y-174185000D03*
X227088000Y-176725000D03*
X124599000Y-110177000D03*
X124599000Y-158437000D03*
X137172000Y-174820000D03*
X205498000Y-162755000D03*
X138569000Y-151452000D03*
X213245000Y-80205000D03*
X132854000Y-87952000D03*
X130949000Y-77157000D03*
X128409000Y-157167000D03*
X128409000Y-128592000D03*
X227088000Y-181805000D03*
X214388000Y-179265000D03*
X222008000Y-185615000D03*
X122059000Y-94937000D03*
X216928000Y-181805000D03*
X124599000Y-71442000D03*
X133489000Y-103827000D03*
X211848000Y-181170000D03*
X223278000Y-151960000D03*
X122059000Y-82872000D03*
X224548000Y-176725000D03*
X133489000Y-108907000D03*
X225310000Y-75125000D03*
X134759000Y-105097000D03*
X223405000Y-112590000D03*
X133489000Y-151452000D03*
X137299000Y-152722000D03*
X125869000Y-150817000D03*
X129679000Y-79062000D03*
X215658000Y-177995000D03*
X127139000Y-81602000D03*
X174764000Y-115384000D03*
X213118000Y-183710000D03*
X122059000Y-111447000D03*
X128409000Y-75887000D03*
X227088000Y-142435000D03*
X224675000Y-80205000D03*
X132219000Y-110177000D03*
X218000200Y-135407002D03*
X124599000Y-149547000D03*
X132092000Y-174820000D03*
X227088000Y-128465000D03*
X227088000Y-190695000D03*
X210705000Y-113225000D03*
X224548000Y-162120000D03*
X213118000Y-181805000D03*
X215785000Y-84015000D03*
X136029000Y-125417000D03*
X218325000Y-77665000D03*
X136029000Y-154627000D03*
X127139000Y-152087000D03*
X123329000Y-111447000D03*
X136029000Y-126687000D03*
X129552000Y-179265000D03*
X124599000Y-148277000D03*
X134759000Y-150182000D03*
X211848000Y-135450000D03*
X224675000Y-102430000D03*
X124599000Y-81602000D03*
X128409000Y-124147000D03*
X222135000Y-115130000D03*
X136029000Y-107637000D03*
X220738000Y-133545000D03*
D26*
X178308000Y-156250000D03*
D24*
X125869000Y-127322000D03*
X227215000Y-82745000D03*
X204355000Y-113225000D03*
X130822000Y-185615000D03*
X224040000Y-99890000D03*
X222008000Y-155770000D03*
X215785000Y-106240000D03*
X137299000Y-151452000D03*
X125742000Y-177995000D03*
X130949000Y-84142000D03*
X218198000Y-181805000D03*
X222135000Y-102430000D03*
X130822000Y-180535000D03*
X127139000Y-111447000D03*
X214388000Y-134180000D03*
X129679000Y-110177000D03*
X131584000Y-87952000D03*
X216928000Y-186250000D03*
X132219000Y-85412000D03*
X218325000Y-108780000D03*
X133489000Y-77157000D03*
X225945000Y-117670000D03*
X224675000Y-110050000D03*
X227088000Y-129735000D03*
X137299000Y-74617000D03*
X123202000Y-170375000D03*
X125742000Y-176725000D03*
X172732000Y-174566000D03*
X224675000Y-116400000D03*
X211975000Y-110685000D03*
X224548000Y-179265000D03*
X227215000Y-110050000D03*
X224675000Y-107510000D03*
X213118000Y-154500000D03*
X209435000Y-86555000D03*
X138950000Y-61282000D03*
X128409000Y-77157000D03*
X134632000Y-181805000D03*
X125869000Y-103827000D03*
X125869000Y-158437000D03*
X225818000Y-132275000D03*
X125234000Y-137482000D03*
X218325000Y-87190000D03*
X215785000Y-85920000D03*
X180399000Y-210380000D03*
X218960000Y-99890000D03*
X211848000Y-161485000D03*
X125869000Y-106367000D03*
X136029000Y-132402000D03*
X224548000Y-128465000D03*
X222135000Y-112590000D03*
X218325000Y-101160000D03*
X129679000Y-80332000D03*
X130822000Y-183075000D03*
X193481998Y-140960000D03*
X175272000Y-174566000D03*
X127139000Y-77792000D03*
X129679000Y-151452000D03*
X136029000Y-81602000D03*
X208165000Y-88460000D03*
X124599000Y-77792000D03*
X210578000Y-136720000D03*
X215785000Y-101160000D03*
X224675000Y-113860000D03*
X223913000Y-149420000D03*
X223278000Y-127195000D03*
X249186000Y-204030000D03*
X249186000Y-202252000D03*
D25*
X186194000Y-107510000D03*
D24*
X170942000Y-173736000D03*
X128409000Y-105097000D03*
X222135000Y-78935000D03*
X136029000Y-157167000D03*
X216437372Y-75317215D03*
X222008000Y-190695000D03*
X125742000Y-181805000D03*
X186944000Y-129032000D03*
X227088000Y-154500000D03*
X214388000Y-183710000D03*
X122059000Y-107637000D03*
X123329000Y-160977000D03*
X132219000Y-80332000D03*
X133489000Y-82872000D03*
X225818000Y-185615000D03*
X121932000Y-170375000D03*
X222135000Y-76395000D03*
X218083556Y-162829297D03*
X123329000Y-148277000D03*
X138569000Y-150182000D03*
X215785000Y-80205000D03*
X186866000Y-135540000D03*
X124472000Y-171645000D03*
X225818000Y-177995000D03*
X225818000Y-176725000D03*
X219468000Y-129735000D03*
X124599000Y-124782000D03*
X224675000Y-104970000D03*
X127139000Y-73982000D03*
X220738000Y-136720000D03*
X125869000Y-77792000D03*
X211975000Y-106875000D03*
X137299000Y-127957000D03*
X225945000Y-116400000D03*
X220865000Y-77665000D03*
X224675000Y-101160000D03*
X127012000Y-170375000D03*
X222135000Y-103700000D03*
X217055000Y-88460000D03*
X129552000Y-185615000D03*
X128409000Y-111447000D03*
X138442000Y-177360000D03*
X213245000Y-87190000D03*
X127139000Y-127322000D03*
X123329000Y-86682000D03*
X215658000Y-154500000D03*
X123202000Y-181805000D03*
X210578000Y-132275000D03*
X215658000Y-186250000D03*
X216928000Y-129735000D03*
X122059000Y-72712000D03*
X124599000Y-97477000D03*
X130949000Y-148912000D03*
X225818000Y-165930000D03*
X133362000Y-184345000D03*
X210578000Y-162755000D03*
X216293000Y-149420000D03*
X125869000Y-73982000D03*
X248805000Y-196918000D03*
X204228000Y-137990000D03*
X194576000Y-128592000D03*
X123202000Y-177995000D03*
X225818000Y-137355000D03*
X129679000Y-106367000D03*
X171550000Y-144428000D03*
X123329000Y-72712000D03*
X128409000Y-126687000D03*
X220865000Y-81475000D03*
X205625000Y-88460000D03*
X219468000Y-181805000D03*
X223278000Y-188155000D03*
X157746000Y-116908000D03*
X227088000Y-185615000D03*
X223278000Y-153230000D03*
X124599000Y-79062000D03*
X123329000Y-75252000D03*
X129679000Y-86682000D03*
X123329000Y-101287000D03*
X122059000Y-102557000D03*
X214515000Y-81475000D03*
X127139000Y-150817000D03*
X139839000Y-127957000D03*
X225818000Y-155770000D03*
D26*
X167910000Y-147670000D03*
D24*
X137299000Y-78427000D03*
X215785000Y-76395000D03*
X132219000Y-108907000D03*
X129044000Y-137482000D03*
X121932000Y-184345000D03*
X130949000Y-157167000D03*
X137299000Y-100652000D03*
X211975000Y-82110000D03*
X139839000Y-76522000D03*
X123329000Y-102557000D03*
X215785000Y-108780000D03*
X125742000Y-184345000D03*
X129552000Y-174820000D03*
X223405000Y-78935000D03*
X211848000Y-137990000D03*
X136029000Y-151452000D03*
X125742000Y-172915000D03*
X216928000Y-150690000D03*
X122059000Y-122242000D03*
X224548000Y-129735000D03*
X224548000Y-141165000D03*
X129679000Y-155897000D03*
X223405000Y-81475000D03*
X220865000Y-113225000D03*
X222008000Y-177995000D03*
X139839000Y-74617000D03*
X122059000Y-76522000D03*
X127139000Y-106367000D03*
X227088000Y-164660000D03*
X223278000Y-139895000D03*
X132219000Y-131132000D03*
X134759000Y-81602000D03*
X114566000Y-64330000D03*
X213118000Y-131005000D03*
X128409000Y-85412000D03*
X223405000Y-91635000D03*
X227215000Y-87825000D03*
X224675000Y-76395000D03*
X131457000Y-186885000D03*
X222135000Y-113860000D03*
X127139000Y-157167000D03*
X124599000Y-157167000D03*
X224675000Y-92905000D03*
X224548000Y-167200000D03*
X130949000Y-160977000D03*
X222008000Y-128465000D03*
X124472000Y-184345000D03*
X215658000Y-133545000D03*
X214388000Y-161485000D03*
X132219000Y-124147000D03*
X123329000Y-136212000D03*
X132219000Y-133672000D03*
X223278000Y-165930000D03*
X214388000Y-184980000D03*
X248805000Y-198696000D03*
X122059000Y-97477000D03*
X127139000Y-75252000D03*
X217055000Y-107510000D03*
X176288000Y-175582000D03*
X209308000Y-162755000D03*
X225183000Y-174185000D03*
X227215000Y-111320000D03*
X138950000Y-66870000D03*
X213118000Y-186250000D03*
X227215000Y-103700000D03*
X222008000Y-131005000D03*
X123329000Y-154627000D03*
X209435000Y-83380000D03*
X210578000Y-135450000D03*
X139839000Y-148912000D03*
X139839000Y-126052000D03*
X209308000Y-160850000D03*
X126504000Y-87952000D03*
X137299000Y-155262000D03*
X127139000Y-79062000D03*
X220738000Y-150690000D03*
X122059000Y-153357000D03*
X213118000Y-132275000D03*
X128409000Y-133672000D03*
X124599000Y-101287000D03*
X220738000Y-135450000D03*
X217055000Y-80205000D03*
X216928000Y-151960000D03*
X227215000Y-77665000D03*
X222135000Y-101160000D03*
X135902000Y-181805000D03*
X127139000Y-147007000D03*
X220738000Y-184980000D03*
X214388000Y-157040000D03*
X223405000Y-85285000D03*
X218325000Y-103700000D03*
X218198000Y-179265000D03*
X157873000Y-122750000D03*
X125869000Y-157167000D03*
X129679000Y-101922000D03*
X227088000Y-157040000D03*
X225818000Y-139895000D03*
X214388000Y-155770000D03*
X139839000Y-99382000D03*
X223278000Y-164660000D03*
X137299000Y-103192000D03*
X133489000Y-124147000D03*
X129679000Y-81602000D03*
X137299000Y-104462000D03*
X225183000Y-149420000D03*
X141109000Y-124147000D03*
X123329000Y-79062000D03*
X218325000Y-102430000D03*
X139712000Y-177360000D03*
X211975000Y-87190000D03*
X223278000Y-186885000D03*
X227088000Y-133545000D03*
X127139000Y-76522000D03*
X223405000Y-106240000D03*
X209435000Y-113225000D03*
X133489000Y-106367000D03*
X227215000Y-81475000D03*
X220865000Y-102430000D03*
X216928000Y-158310000D03*
X138569000Y-80332000D03*
X125869000Y-100017000D03*
X125869000Y-134942000D03*
X127012000Y-181805000D03*
X158000000Y-128084000D03*
X210578000Y-160215000D03*
X187210000Y-124020000D03*
X137172000Y-179900000D03*
X227088000Y-188155000D03*
X221500000Y-75125000D03*
X122059000Y-71442000D03*
X129679000Y-75887000D03*
X125869000Y-96207000D03*
X129679000Y-157167000D03*
X218325000Y-81475000D03*
X206768000Y-137990000D03*
X210578000Y-157040000D03*
X129447200Y-124230049D03*
X137172000Y-177360000D03*
X123202000Y-179265000D03*
X170192000Y-178630000D03*
X172720000Y-173736000D03*
X215658000Y-183075000D03*
X213245000Y-110685000D03*
X128409000Y-103827000D03*
X129679000Y-107637000D03*
X225945000Y-90365000D03*
X128409000Y-100652000D03*
X213118000Y-134180000D03*
X219595000Y-107510000D03*
X214388000Y-180535000D03*
X177812000Y-177614000D03*
X129552000Y-181805000D03*
X224548000Y-177995000D03*
X133489000Y-150182000D03*
X130949000Y-155897000D03*
X132727000Y-186885000D03*
X130822000Y-179265000D03*
X225818000Y-129735000D03*
X216928000Y-183075000D03*
X124599000Y-103827000D03*
X124599000Y-129862000D03*
X176288000Y-177614000D03*
X225945000Y-108780000D03*
X135267000Y-173550000D03*
X222135000Y-84015000D03*
X138950000Y-65854000D03*
X215785000Y-103700000D03*
X127139000Y-80332000D03*
X127012000Y-174185000D03*
X223278000Y-134815000D03*
X137299000Y-105732000D03*
X129447200Y-136286297D03*
X224675000Y-117670000D03*
X130949000Y-105097000D03*
X223405000Y-92905000D03*
X218325000Y-104970000D03*
X134886000Y-60266000D03*
X138569000Y-125417000D03*
X127520000Y-66362000D03*
X227088000Y-136085000D03*
X124599000Y-107637000D03*
X123329000Y-129862000D03*
X224548000Y-142435000D03*
X211848000Y-187520000D03*
X133489000Y-75887000D03*
X130949000Y-154627000D03*
X225818000Y-164660000D03*
X137299000Y-125417000D03*
X138569000Y-127957000D03*
X123329000Y-134942000D03*
X128409000Y-136212000D03*
X225945000Y-107510000D03*
X223405000Y-116400000D03*
X142379000Y-74617000D03*
X134759000Y-100652000D03*
X223278000Y-138625000D03*
X124599000Y-153357000D03*
X210705000Y-84650000D03*
X170192000Y-175582000D03*
X214388000Y-158945000D03*
X134759000Y-78427000D03*
D26*
X168668000Y-206824000D03*
D24*
X214515000Y-107510000D03*
X215785000Y-113225000D03*
X225945000Y-110050000D03*
X138950000Y-64838000D03*
X223405000Y-102430000D03*
X220738000Y-162755000D03*
X218325000Y-106240000D03*
X225818000Y-188155000D03*
X133489000Y-101922000D03*
X177050000Y-176598000D03*
X222135000Y-87825000D03*
X227088000Y-165930000D03*
X127139000Y-158437000D03*
X225945000Y-89095000D03*
X224675000Y-106240000D03*
X227088000Y-141165000D03*
X124599000Y-102557000D03*
X125869000Y-105097000D03*
X223278000Y-125925000D03*
X219595000Y-76395000D03*
X225818000Y-134815000D03*
X123329000Y-124782000D03*
X216928000Y-176725000D03*
X224548000Y-175455000D03*
X220865000Y-107510000D03*
X209308000Y-137990000D03*
X209435000Y-84650000D03*
X213245000Y-81475000D03*
X133489000Y-148912000D03*
X214388000Y-131005000D03*
X211975000Y-109415000D03*
X210578000Y-161485000D03*
X127139000Y-72712000D03*
X123329000Y-122242000D03*
X223913000Y-124655000D03*
X223278000Y-185615000D03*
X215658000Y-151960000D03*
X123329000Y-94937000D03*
X127139000Y-101287000D03*
X213118000Y-161485000D03*
X124599000Y-127322000D03*
X211975000Y-88460000D03*
X222135000Y-116400000D03*
X123329000Y-97477000D03*
X123202000Y-183075000D03*
X133489000Y-128592000D03*
X210578000Y-134180000D03*
X121932000Y-172915000D03*
X220230000Y-75125000D03*
X219468000Y-183075000D03*
X125869000Y-122242000D03*
X130314000Y-87952000D03*
X215658000Y-180535000D03*
X122059000Y-136212000D03*
X227215000Y-104970000D03*
X220865000Y-104970000D03*
X137172000Y-178630000D03*
X216928000Y-128465000D03*
X227088000Y-139895000D03*
X132092000Y-173550000D03*
X215658000Y-135450000D03*
X136029000Y-100652000D03*
X132092000Y-176090000D03*
X122059000Y-128592000D03*
X216928000Y-184980000D03*
X125869000Y-76522000D03*
X127139000Y-159707000D03*
X215658000Y-127195000D03*
X123329000Y-100017000D03*
X219595000Y-111955000D03*
X128409000Y-99382000D03*
X211975000Y-113225000D03*
X130949000Y-100652000D03*
X179197000Y-148209000D03*
X124599000Y-134942000D03*
X164392619Y-108132621D03*
X222008000Y-183075000D03*
X209308000Y-185615000D03*
X194576000Y-130535997D03*
X205625000Y-113225000D03*
X227088000Y-191296000D03*
X128409000Y-158437000D03*
X130187000Y-186885000D03*
X220738000Y-155770000D03*
X133489000Y-79062000D03*
X223405000Y-104970000D03*
X224548000Y-154500000D03*
X133489000Y-153357000D03*
X123329000Y-85412000D03*
X127139000Y-102557000D03*
X127139000Y-98747000D03*
X128282000Y-174820000D03*
X122059000Y-127322000D03*
X132219000Y-81602000D03*
X129679000Y-159707000D03*
X171716000Y-177614000D03*
X132092000Y-181805000D03*
X129679000Y-85412000D03*
X219468000Y-133545000D03*
X137299000Y-75887000D03*
X219595000Y-101160000D03*
X139839000Y-152722000D03*
X125234000Y-87952000D03*
X224675000Y-87825000D03*
X225818000Y-150690000D03*
X210578000Y-184980000D03*
X223405000Y-107510000D03*
X122059000Y-98747000D03*
X222008000Y-154500000D03*
X122059000Y-131132000D03*
X215785000Y-78935000D03*
X127139000Y-128592000D03*
X125869000Y-131132000D03*
X129426313Y-128653583D03*
X227215000Y-86555000D03*
X127139000Y-148277000D03*
X218198000Y-186250000D03*
X223278000Y-184345000D03*
X218198000Y-176725000D03*
X121932000Y-175455000D03*
X219595000Y-88460000D03*
X220738000Y-151960000D03*
X132092000Y-184345000D03*
X132219000Y-111447000D03*
X225818000Y-158310000D03*
X122059000Y-103827000D03*
X130949000Y-110177000D03*
X223278000Y-183075000D03*
X134759000Y-101922000D03*
X217055000Y-104970000D03*
X209435000Y-111320000D03*
X194576000Y-123512000D03*
X211848000Y-136720000D03*
X211848000Y-183710000D03*
X175260000Y-173736000D03*
X132219000Y-100652000D03*
X132219000Y-75887000D03*
X209308000Y-134180000D03*
X225945000Y-113860000D03*
X218325000Y-88460000D03*
X132219000Y-158437000D03*
X225818000Y-154500000D03*
X223278000Y-128465000D03*
X129044000Y-162247000D03*
X127012000Y-179265000D03*
X129552000Y-180535000D03*
X132219000Y-77157000D03*
X125234000Y-112717000D03*
X134886000Y-66870000D03*
X125869000Y-148277000D03*
X223405000Y-80205000D03*
X218325000Y-80205000D03*
X211848000Y-131640000D03*
X225818000Y-151960000D03*
X127139000Y-86682000D03*
X122059000Y-159707000D03*
X220738000Y-128465000D03*
X223278000Y-136085000D03*
X128282000Y-179265000D03*
X123329000Y-81602000D03*
X128409000Y-129862000D03*
X123329000Y-159707000D03*
X124472000Y-185615000D03*
X219468000Y-186250000D03*
X215658000Y-150690000D03*
X209308000Y-132910000D03*
X227215000Y-84015000D03*
X127012000Y-183075000D03*
X139712000Y-173550000D03*
X175780000Y-137228000D03*
X219468000Y-184980000D03*
X122059000Y-106367000D03*
X127139000Y-155897000D03*
X125869000Y-102557000D03*
X133362000Y-183075000D03*
X220738000Y-132275000D03*
X133489000Y-131132000D03*
X222135000Y-107510000D03*
X227088000Y-132275000D03*
X227215000Y-78935000D03*
X121932000Y-179265000D03*
X220865000Y-108780000D03*
X210705000Y-82745000D03*
X125869000Y-120972000D03*
X124599000Y-126052000D03*
X216928000Y-133545000D03*
X122059000Y-158437000D03*
X216928000Y-187520000D03*
X133489000Y-157167000D03*
X130822000Y-176090000D03*
X142379000Y-124147000D03*
X218000200Y-137953412D03*
X225945000Y-101160000D03*
X141109000Y-74617000D03*
X213245000Y-107510000D03*
X124599000Y-98747000D03*
X123202000Y-175455000D03*
X127012000Y-175455000D03*
X123329000Y-82872000D03*
X123329000Y-128592000D03*
X157746000Y-113098000D03*
X223278000Y-141165000D03*
X122059000Y-101287000D03*
X130949000Y-99382000D03*
X225945000Y-91635000D03*
X213118000Y-180535000D03*
X122059000Y-100017000D03*
X219595000Y-85920000D03*
X127139000Y-71442000D03*
X218325000Y-82745000D03*
X125869000Y-129862000D03*
X130949000Y-103827000D03*
X129552000Y-173550000D03*
X227088000Y-160850000D03*
X227215000Y-101160000D03*
X123329000Y-110177000D03*
X132854000Y-162247000D03*
X218198000Y-184980000D03*
X134632000Y-176090000D03*
X129679000Y-154627000D03*
X132092000Y-183075000D03*
X127139000Y-108907000D03*
X225945000Y-84015000D03*
X122059000Y-126052000D03*
X223278000Y-180535000D03*
X227088000Y-186885000D03*
X227215000Y-113860000D03*
X227088000Y-179265000D03*
X127774000Y-87952000D03*
X128409000Y-160977000D03*
X123329000Y-133672000D03*
X132219000Y-160977000D03*
X123329000Y-150817000D03*
X216928000Y-153230000D03*
X132219000Y-74617000D03*
X225945000Y-103700000D03*
X220865000Y-101160000D03*
X122059000Y-147007000D03*
X215658000Y-181805000D03*
X124599000Y-105097000D03*
X222008000Y-163390000D03*
X225818000Y-142435000D03*
X138569000Y-126687000D03*
X170954000Y-177614000D03*
X217690000Y-75125000D03*
X224548000Y-160850000D03*
X128282000Y-184345000D03*
X122059000Y-149547000D03*
X224675000Y-84015000D03*
X121932000Y-169105000D03*
X211848000Y-160215000D03*
X214388000Y-136720000D03*
X122059000Y-105097000D03*
X215658000Y-157040000D03*
X177050000Y-177614000D03*
X220738000Y-176725000D03*
X124472000Y-176725000D03*
X218325000Y-107510000D03*
X133489000Y-136212000D03*
X122059000Y-75252000D03*
X218198000Y-177995000D03*
X218000200Y-131005000D03*
X224548000Y-158310000D03*
X127012000Y-185615000D03*
X165112000Y-116400000D03*
X125869000Y-108907000D03*
X132092000Y-177995000D03*
X227215000Y-80205000D03*
X219595000Y-84015000D03*
X213245000Y-109415000D03*
X124599000Y-145737000D03*
X213245000Y-104970000D03*
X216928000Y-135450000D03*
X211975000Y-85920000D03*
X124599000Y-84142000D03*
X225818000Y-138625000D03*
X225818000Y-186885000D03*
X132219000Y-153357000D03*
X132219000Y-155897000D03*
X132854000Y-112717000D03*
X122059000Y-96207000D03*
X222135000Y-110050000D03*
X130949000Y-107637000D03*
X213118000Y-160215000D03*
X130949000Y-159707000D03*
X133489000Y-80332000D03*
X216928000Y-157040000D03*
X125742000Y-175455000D03*
X122059000Y-152087000D03*
X223278000Y-167200000D03*
X225945000Y-106240000D03*
X138442000Y-174820000D03*
X220738000Y-183075000D03*
X165227000Y-123063000D03*
X218325000Y-76395000D03*
X125869000Y-84142000D03*
X222008000Y-189425000D03*
X227088000Y-184345000D03*
X225945000Y-85285000D03*
X223278000Y-160850000D03*
X123329000Y-158437000D03*
X209308000Y-182440000D03*
X220738000Y-153230000D03*
X223278000Y-176725000D03*
X216416299Y-99965600D03*
X158006633Y-118905800D03*
X141109000Y-99382000D03*
X137299000Y-126687000D03*
X127139000Y-107637000D03*
X215658000Y-132275000D03*
X133362000Y-173550000D03*
X217055000Y-77665000D03*
X222135000Y-111320000D03*
X125869000Y-128592000D03*
X128409000Y-148912000D03*
X170192000Y-174566000D03*
X218000200Y-125888412D03*
X227215000Y-76395000D03*
X122059000Y-160977000D03*
X123202000Y-171645000D03*
X222135000Y-90365000D03*
X124599000Y-70871000D03*
X177038000Y-173736000D03*
X227215000Y-112590000D03*
X123202000Y-169105000D03*
X132092000Y-179265000D03*
X222008000Y-159580000D03*
X122059000Y-123512000D03*
X210578000Y-158945000D03*
X222008000Y-162120000D03*
X139839000Y-153992000D03*
X219595000Y-108780000D03*
X129679000Y-77157000D03*
X225945000Y-92905000D03*
X128409000Y-82872000D03*
X142379000Y-148912000D03*
X134759000Y-151452000D03*
X134759000Y-129862000D03*
X127647000Y-186885000D03*
X227215000Y-106240000D03*
X132219000Y-107637000D03*
X132219000Y-129862000D03*
X136029000Y-131132000D03*
X124599000Y-86682000D03*
X132219000Y-150182000D03*
X129552000Y-177995000D03*
X217055000Y-85920000D03*
X222135000Y-77665000D03*
X219595000Y-81475000D03*
X130949000Y-101922000D03*
X220738000Y-125925000D03*
X133489000Y-81602000D03*
X124599000Y-133672000D03*
X224548000Y-165930000D03*
X134759000Y-125417000D03*
X139839000Y-124147000D03*
X218059000Y-160274000D03*
X215658000Y-184980000D03*
X129679000Y-100652000D03*
X128409000Y-108907000D03*
X227088000Y-158310000D03*
X135394000Y-124147000D03*
X220738000Y-175455000D03*
X217055000Y-76395000D03*
X122059000Y-144467000D03*
X220865000Y-76395000D03*
X127139000Y-133672000D03*
X219595000Y-104970000D03*
X136029000Y-129862000D03*
X133489000Y-100652000D03*
X224548000Y-188155000D03*
X222008000Y-176725000D03*
X158000000Y-135196000D03*
X123202000Y-172915000D03*
X176288000Y-174566000D03*
X170192000Y-177614000D03*
X223405000Y-89095000D03*
X132219000Y-154627000D03*
X216928000Y-137990000D03*
X122059000Y-145737000D03*
X225945000Y-112590000D03*
X135902000Y-64838000D03*
X124599000Y-96207000D03*
X224548000Y-125925000D03*
X123329000Y-96207000D03*
X224675000Y-81475000D03*
X127012000Y-172915000D03*
X138569000Y-129862000D03*
X194522000Y-135250000D03*
X125869000Y-72712000D03*
X216928000Y-131005000D03*
X213118000Y-157040000D03*
X217055000Y-87190000D03*
X214388000Y-186250000D03*
X132854000Y-137482000D03*
X220738000Y-157040000D03*
X211848000Y-184980000D03*
X224548000Y-190695000D03*
X125869000Y-144467000D03*
X223405000Y-90365000D03*
X124599000Y-128592000D03*
X222008000Y-132275000D03*
X222008000Y-184345000D03*
X137299000Y-129227000D03*
X122059000Y-154627000D03*
X133489000Y-111447000D03*
X223278000Y-179265000D03*
X128917000Y-186885000D03*
X210578000Y-183710000D03*
X225818000Y-159580000D03*
X133362000Y-181805000D03*
X214515000Y-109415000D03*
X220230000Y-99890000D03*
X219671161Y-132251949D03*
X130949000Y-80332000D03*
X129447200Y-125456433D03*
X206768000Y-162755000D03*
X215658000Y-125925000D03*
X158000000Y-138752000D03*
X204228000Y-187520000D03*
X220738000Y-154500000D03*
X128409000Y-107637000D03*
X219595000Y-103700000D03*
X215785000Y-107510000D03*
X125869000Y-154627000D03*
X138569000Y-124147000D03*
X223278000Y-159580000D03*
X222770000Y-99890000D03*
X209308000Y-183710000D03*
X136029000Y-82872000D03*
X129447200Y-134981433D03*
X123329000Y-153357000D03*
X223278000Y-129735000D03*
X223405000Y-82745000D03*
X221373000Y-149420000D03*
X209308000Y-187520000D03*
X220738000Y-129735000D03*
X130822000Y-177995000D03*
X225945000Y-87825000D03*
X223278000Y-162120000D03*
X220738000Y-179265000D03*
X225818000Y-127195000D03*
X208038000Y-137990000D03*
X227088000Y-159580000D03*
X125869000Y-145737000D03*
X222135000Y-82745000D03*
X219765368Y-125753596D03*
X219595000Y-77665000D03*
X139712000Y-175455000D03*
X227088000Y-153230000D03*
X211086000Y-61282000D03*
X219595000Y-87190000D03*
X222008000Y-175455000D03*
X124599000Y-159707000D03*
X125869000Y-152087000D03*
X130949000Y-74617000D03*
X217055000Y-113225000D03*
X121932000Y-177995000D03*
X220738000Y-158310000D03*
X130949000Y-82872000D03*
X171716000Y-175582000D03*
X136029000Y-80332000D03*
X132219000Y-157167000D03*
X217055000Y-110685000D03*
X124599000Y-94937000D03*
X132219000Y-101922000D03*
X224548000Y-133545000D03*
X133489000Y-159707000D03*
X224548000Y-163390000D03*
X124472000Y-175455000D03*
X227088000Y-183075000D03*
X222643000Y-174185000D03*
X177800000Y-173736000D03*
X127139000Y-129862000D03*
X225818000Y-191296000D03*
X177050000Y-175582000D03*
X218059000Y-155194000D03*
X222135000Y-81475000D03*
X170192000Y-176598000D03*
X183400000Y-144848000D03*
X219468000Y-175455000D03*
X129552000Y-183075000D03*
X123329000Y-149547000D03*
X223405000Y-111320000D03*
X124472000Y-169105000D03*
X123964000Y-137482000D03*
X224675000Y-103700000D03*
X215785000Y-111955000D03*
X123329000Y-76522000D03*
X215658000Y-175455000D03*
X127774000Y-112717000D03*
X216928000Y-161485000D03*
X223278000Y-177995000D03*
X220865000Y-84015000D03*
X130949000Y-151452000D03*
X134759000Y-107637000D03*
X125869000Y-123512000D03*
X176911000Y-144526000D03*
X125869000Y-124782000D03*
X136029000Y-101922000D03*
X220865000Y-85920000D03*
X127139000Y-96207000D03*
X129679000Y-82872000D03*
X124599000Y-76522000D03*
X214388000Y-160215000D03*
X136029000Y-127957000D03*
X224548000Y-157040000D03*
X225945000Y-78935000D03*
X220738000Y-161485000D03*
X133362000Y-180535000D03*
X130822000Y-181805000D03*
X135902000Y-174820000D03*
X121932000Y-181805000D03*
X227088000Y-138625000D03*
X123329000Y-71442000D03*
X134759000Y-80332000D03*
X222008000Y-137355000D03*
X209435000Y-88460000D03*
X219468000Y-187520000D03*
X219595000Y-78935000D03*
X137172000Y-173550000D03*
X222008000Y-188155000D03*
X158000000Y-133418000D03*
X224548000Y-132275000D03*
X123202000Y-180535000D03*
X225818000Y-160850000D03*
X222008000Y-127195000D03*
X215658000Y-162755000D03*
X124599000Y-106367000D03*
X221373000Y-174185000D03*
X123329000Y-132402000D03*
X139839000Y-79697000D03*
X129679000Y-108907000D03*
X213118000Y-184980000D03*
X223278000Y-155770000D03*
X136029000Y-106367000D03*
X123329000Y-77792000D03*
X138569000Y-105097000D03*
X125107000Y-186885000D03*
X135902000Y-65854000D03*
X135902000Y-180535000D03*
X128409000Y-110177000D03*
X222135000Y-91635000D03*
X133362000Y-185615000D03*
X126377000Y-186885000D03*
X130949000Y-86682000D03*
X220865000Y-87190000D03*
X123202000Y-185615000D03*
X224548000Y-189425000D03*
X138442000Y-179265000D03*
X121932000Y-185615000D03*
X222643000Y-149420000D03*
X123329000Y-119702000D03*
X224548000Y-191296000D03*
X217055000Y-78935000D03*
X123329000Y-70871000D03*
X138569000Y-100652000D03*
X128409000Y-79062000D03*
X133489000Y-105097000D03*
X125742000Y-169105000D03*
X134759000Y-132402000D03*
X127139000Y-134942000D03*
X223405000Y-101160000D03*
X220738000Y-181805000D03*
X131584000Y-112717000D03*
X133489000Y-160977000D03*
X222008000Y-157040000D03*
X225818000Y-136085000D03*
X222008000Y-165930000D03*
X219782001Y-137876247D03*
X218059000Y-159131000D03*
X217055000Y-81475000D03*
X134759000Y-127957000D03*
X211975000Y-83380000D03*
X214515000Y-84650000D03*
X133489000Y-84142000D03*
X122059000Y-132402000D03*
X210578000Y-186250000D03*
X124599000Y-80332000D03*
X204228000Y-162755000D03*
X125869000Y-111447000D03*
X177050000Y-174566000D03*
X225818000Y-183075000D03*
X128409000Y-151452000D03*
X134759000Y-157167000D03*
X124472000Y-181805000D03*
X217055000Y-82745000D03*
X227215000Y-91635000D03*
X218059000Y-153450806D03*
X124599000Y-120972000D03*
X130949000Y-106367000D03*
X216928000Y-127195000D03*
X225945000Y-104970000D03*
X129679000Y-148912000D03*
X222135000Y-108780000D03*
X128409000Y-155897000D03*
X124599000Y-73982000D03*
X122059000Y-120972000D03*
X127139000Y-149547000D03*
X123329000Y-126052000D03*
X219595000Y-110685000D03*
X223278000Y-163390000D03*
X215658000Y-155770000D03*
X122059000Y-81602000D03*
X223405000Y-115130000D03*
X138569000Y-74617000D03*
X124472000Y-180535000D03*
X128409000Y-80332000D03*
X123329000Y-155897000D03*
X121932000Y-176725000D03*
X222135000Y-86555000D03*
X125869000Y-119702000D03*
X218097497Y-150700970D03*
X122059000Y-124782000D03*
X222643000Y-124655000D03*
X223278000Y-181805000D03*
X125869000Y-97477000D03*
X128409000Y-150182000D03*
X224040000Y-75125000D03*
X227088000Y-155770000D03*
X127012000Y-176725000D03*
X220738000Y-186250000D03*
X128282000Y-177995000D03*
X137299000Y-77157000D03*
X177812000Y-175582000D03*
X132092000Y-180535000D03*
X210578000Y-187520000D03*
X215658000Y-136720000D03*
X122059000Y-119702000D03*
X227215000Y-102430000D03*
X225818000Y-128465000D03*
X224675000Y-78935000D03*
X225945000Y-111320000D03*
X121932000Y-171645000D03*
X128409000Y-81602000D03*
X220865000Y-111955000D03*
X122059000Y-70871000D03*
X124599000Y-123512000D03*
X132219000Y-136212000D03*
X209435000Y-109415000D03*
X127139000Y-136212000D03*
X124599000Y-85412000D03*
X216928000Y-160215000D03*
X224675000Y-77665000D03*
X134632000Y-179265000D03*
X219468000Y-176725000D03*
X223278000Y-154500000D03*
X137934000Y-65854000D03*
X224675000Y-82745000D03*
X128409000Y-154627000D03*
X219595000Y-106240000D03*
X223405000Y-86555000D03*
X227088000Y-163390000D03*
X224675000Y-86555000D03*
X225818000Y-175455000D03*
X123329000Y-84142000D03*
X224548000Y-183075000D03*
X137299000Y-124147000D03*
X128282000Y-173550000D03*
X135902000Y-66870000D03*
X222008000Y-141165000D03*
X125742000Y-174185000D03*
X227088000Y-177995000D03*
X208038000Y-187520000D03*
X173494000Y-174566000D03*
X217690000Y-99890000D03*
X125869000Y-75252000D03*
X216928000Y-179265000D03*
X132219000Y-151452000D03*
X138950000Y-60266000D03*
X219595000Y-113225000D03*
X136029000Y-155897000D03*
X125234000Y-162247000D03*
X217967493Y-152062373D03*
X127012000Y-180535000D03*
X225818000Y-179265000D03*
X222008000Y-180535000D03*
X128409000Y-84142000D03*
X133489000Y-134942000D03*
X122059000Y-155897000D03*
X125869000Y-136212000D03*
X213118000Y-179265000D03*
X224675000Y-115130000D03*
X225945000Y-115130000D03*
X127139000Y-97477000D03*
X214515000Y-106240000D03*
X138569000Y-152722000D03*
X216928000Y-154500000D03*
X136918000Y-61282000D03*
X218059000Y-161544000D03*
X129552000Y-184345000D03*
D26*
X165760531Y-143811523D03*
D24*
X214388000Y-154500000D03*
X220103000Y-174185000D03*
X130822000Y-174820000D03*
X125869000Y-101287000D03*
X133489000Y-132402000D03*
X122059000Y-79062000D03*
X121932000Y-180535000D03*
X134759000Y-106367000D03*
X177558000Y-143070000D03*
X134759000Y-126687000D03*
X139712000Y-178630000D03*
X127139000Y-85412000D03*
X215658000Y-161485000D03*
X170180000Y-173736000D03*
X215785000Y-81475000D03*
X222008000Y-133545000D03*
X223278000Y-131005000D03*
X227215000Y-92905000D03*
X170954000Y-175582000D03*
X223278000Y-142435000D03*
X127139000Y-110177000D03*
X209435000Y-108145000D03*
X213753000Y-187520000D03*
X211848000Y-134180000D03*
X214515000Y-111955000D03*
X215658000Y-158310000D03*
X123329000Y-107637000D03*
X215658000Y-137990000D03*
X220738000Y-131005000D03*
X209308000Y-158945000D03*
X129679000Y-153357000D03*
X219520470Y-128449916D03*
X216928000Y-136720000D03*
X170954000Y-178630000D03*
X122059000Y-129862000D03*
X222008000Y-160850000D03*
X128409000Y-134942000D03*
X129679000Y-103827000D03*
X136029000Y-75887000D03*
X134759000Y-154627000D03*
X125869000Y-153357000D03*
X218000200Y-127134979D03*
X186309000Y-115316000D03*
X219468000Y-136720000D03*
X225945000Y-77665000D03*
X225818000Y-181805000D03*
X214388000Y-132275000D03*
X142252000Y-173550000D03*
X213880000Y-88460000D03*
X223405000Y-110050000D03*
X208038000Y-162755000D03*
X213118000Y-155770000D03*
X122059000Y-73982000D03*
X215658000Y-187520000D03*
X219595000Y-80205000D03*
X134632000Y-177360000D03*
X215785000Y-82745000D03*
X138569000Y-75887000D03*
X124472000Y-174185000D03*
X218198000Y-187520000D03*
X249186000Y-200474000D03*
X213118000Y-158945000D03*
X225945000Y-76395000D03*
X223278000Y-191296000D03*
X128409000Y-132402000D03*
X102374000Y-64330000D03*
X224548000Y-185615000D03*
X127139000Y-123512000D03*
X121932000Y-174185000D03*
X225818000Y-131005000D03*
X218325000Y-84015000D03*
X223278000Y-190695000D03*
X213753000Y-137990000D03*
X218325000Y-111955000D03*
X135394000Y-99382000D03*
X215785000Y-110685000D03*
X205498000Y-137990000D03*
X125869000Y-70871000D03*
X220865000Y-110685000D03*
X132219000Y-134942000D03*
X225818000Y-153230000D03*
X220738000Y-177995000D03*
X223405000Y-76395000D03*
X227088000Y-137355000D03*
X211848000Y-182440000D03*
X222008000Y-134815000D03*
X138569000Y-154627000D03*
X125742000Y-171645000D03*
X122059000Y-84142000D03*
X136918000Y-66870000D03*
X124599000Y-100017000D03*
X206768000Y-187520000D03*
X124472000Y-172915000D03*
X225945000Y-86555000D03*
X211848000Y-157675000D03*
X125869000Y-159707000D03*
X217839699Y-136551963D03*
X216293000Y-124655000D03*
X208165000Y-113225000D03*
X134632000Y-180535000D03*
X134759000Y-77157000D03*
X227088000Y-180535000D03*
X138442000Y-176090000D03*
X122059000Y-108907000D03*
X135902000Y-179265000D03*
X130949000Y-85412000D03*
X217563000Y-124655000D03*
D26*
X174002000Y-214952000D03*
D24*
X137299000Y-130497000D03*
X125869000Y-107637000D03*
X123329000Y-120972000D03*
X205498000Y-187520000D03*
X225183000Y-124655000D03*
X132092000Y-185615000D03*
X177812000Y-176598000D03*
X210705000Y-111955000D03*
X127139000Y-131132000D03*
X214388000Y-129735000D03*
X223913000Y-174185000D03*
X225818000Y-141165000D03*
X219468000Y-131005000D03*
X222135000Y-85285000D03*
X227215000Y-117670000D03*
X135394000Y-74617000D03*
X215785000Y-104970000D03*
X132219000Y-148912000D03*
X130949000Y-153357000D03*
X219468000Y-135450000D03*
X223278000Y-158310000D03*
X125869000Y-80332000D03*
X211848000Y-132910000D03*
X225818000Y-157040000D03*
X137934000Y-64838000D03*
X167906000Y-107764000D03*
X225818000Y-190695000D03*
X220865000Y-82745000D03*
X227088000Y-151960000D03*
X137299000Y-101922000D03*
X220865000Y-80205000D03*
X210705000Y-85920000D03*
X217055000Y-111955000D03*
X123329000Y-103827000D03*
X123329000Y-123512000D03*
X177812000Y-178630000D03*
X141109000Y-148912000D03*
X125742000Y-170375000D03*
X132219000Y-79062000D03*
X128409000Y-86682000D03*
X217563000Y-174185000D03*
X222008000Y-136085000D03*
X134759000Y-103192000D03*
X222008000Y-164660000D03*
X140982000Y-173550000D03*
X214515000Y-80205000D03*
X133362000Y-177995000D03*
X222008000Y-179265000D03*
X180070000Y-149733000D03*
X220103000Y-149420000D03*
X129447200Y-126796061D03*
X220865000Y-103700000D03*
X133489000Y-129862000D03*
X222008000Y-150690000D03*
X221500000Y-99890000D03*
X224548000Y-153230000D03*
X128282000Y-181805000D03*
X213245000Y-84650000D03*
X225945000Y-80205000D03*
X127139000Y-154627000D03*
X223278000Y-175455000D03*
X219468000Y-177995000D03*
X219468000Y-180535000D03*
X130949000Y-108907000D03*
X222135000Y-106240000D03*
X132219000Y-126687000D03*
X125869000Y-86682000D03*
X216928000Y-175455000D03*
X225818000Y-125925000D03*
X129044000Y-112717000D03*
X227088000Y-175455000D03*
X122059000Y-77792000D03*
X125869000Y-81602000D03*
X221373000Y-124655000D03*
X134759000Y-75887000D03*
X218000200Y-133545000D03*
X129679000Y-105097000D03*
X128409000Y-101922000D03*
X136029000Y-78427000D03*
X135902000Y-176090000D03*
X220738000Y-180535000D03*
X108470000Y-64584000D03*
X223405000Y-84015000D03*
X122059000Y-134942000D03*
X129447200Y-133767028D03*
X224548000Y-151960000D03*
X225818000Y-163390000D03*
X180461000Y-115130000D03*
X125869000Y-133672000D03*
X129552000Y-176090000D03*
X227215000Y-115130000D03*
X220738000Y-160215000D03*
X171716000Y-178630000D03*
X177050000Y-178630000D03*
X123329000Y-131132000D03*
X222008000Y-186885000D03*
X125869000Y-147007000D03*
X132219000Y-125417000D03*
X222008000Y-139895000D03*
X210705000Y-88460000D03*
X224675000Y-112590000D03*
X133362000Y-179265000D03*
X224548000Y-150690000D03*
X124599000Y-136212000D03*
X227088000Y-150690000D03*
X217055000Y-102430000D03*
X225818000Y-162120000D03*
X123964000Y-112717000D03*
X130314000Y-112717000D03*
X132219000Y-103827000D03*
X133489000Y-86682000D03*
X213118000Y-135450000D03*
X128409000Y-131132000D03*
X127139000Y-82872000D03*
X218198000Y-175455000D03*
X129679000Y-99382000D03*
X139839000Y-103192000D03*
X137299000Y-150182000D03*
X224548000Y-136085000D03*
X129679000Y-74617000D03*
X224548000Y-155770000D03*
X223278000Y-137355000D03*
X123329000Y-147007000D03*
X123202000Y-174185000D03*
X138569000Y-103192000D03*
X227215000Y-116400000D03*
X130949000Y-75887000D03*
X132219000Y-132402000D03*
X216928000Y-155770000D03*
X125742000Y-185615000D03*
X124599000Y-72712000D03*
X137299000Y-99382000D03*
X133489000Y-85412000D03*
X177812000Y-174566000D03*
X128409000Y-153357000D03*
X123329000Y-152087000D03*
X220865000Y-88460000D03*
X123964000Y-87952000D03*
X130949000Y-111447000D03*
X218960000Y-75125000D03*
X139839000Y-104462000D03*
X183284000Y-137375158D03*
X127139000Y-160977000D03*
X216928000Y-162755000D03*
X214388000Y-181805000D03*
X124472000Y-179265000D03*
X137299000Y-148912000D03*
X123329000Y-105097000D03*
X224675000Y-108780000D03*
X128409000Y-159707000D03*
X130822000Y-184345000D03*
X122059000Y-85412000D03*
X223405000Y-113860000D03*
X125869000Y-149547000D03*
X215658000Y-176725000D03*
X223278000Y-189425000D03*
X206895000Y-113225000D03*
X125869000Y-110177000D03*
X134759000Y-152722000D03*
X138569000Y-78427000D03*
X222008000Y-153230000D03*
X128282000Y-185615000D03*
X124599000Y-155897000D03*
X122059000Y-80332000D03*
X224548000Y-138625000D03*
X218000200Y-132214979D03*
X139839000Y-78427000D03*
X126504000Y-112717000D03*
X214515000Y-87190000D03*
X218198000Y-180535000D03*
X170954000Y-174566000D03*
X214515000Y-104970000D03*
X122059000Y-150817000D03*
X213245000Y-111955000D03*
X124599000Y-111447000D03*
X132219000Y-106367000D03*
X127012000Y-177995000D03*
X217055000Y-103700000D03*
X224675000Y-89095000D03*
X223405000Y-77665000D03*
X211848000Y-158945000D03*
X137934000Y-61282000D03*
X128282000Y-180535000D03*
X213245000Y-85920000D03*
X227088000Y-131005000D03*
X224675000Y-90365000D03*
X123329000Y-127322000D03*
X225818000Y-189425000D03*
X138569000Y-101922000D03*
X224548000Y-159580000D03*
X214515000Y-85920000D03*
X217297000Y-149352000D03*
X218059000Y-157734000D03*
X209308000Y-157675000D03*
X127012000Y-184345000D03*
X127139000Y-84142000D03*
X215658000Y-128465000D03*
X130949000Y-150182000D03*
X165516610Y-127833297D03*
X222770000Y-75125000D03*
X127139000Y-100017000D03*
X127774000Y-162247000D03*
X132219000Y-84142000D03*
X168283999Y-115564668D03*
X124599000Y-119702000D03*
X170954000Y-176598000D03*
X138442000Y-173550000D03*
X124599000Y-132402000D03*
X227088000Y-167200000D03*
X227215000Y-89095000D03*
X127139000Y-122242000D03*
X124599000Y-108907000D03*
X127774000Y-137482000D03*
X124599000Y-75252000D03*
X220738000Y-137990000D03*
X210705000Y-110685000D03*
D26*
X177812000Y-215206000D03*
D24*
X129679000Y-84142000D03*
X213118000Y-136720000D03*
X171716000Y-174566000D03*
X210705000Y-87190000D03*
X210578000Y-137990000D03*
X122059000Y-86682000D03*
X134759000Y-155897000D03*
X215658000Y-153230000D03*
X227215000Y-108780000D03*
X133489000Y-110177000D03*
X123837000Y-186885000D03*
X129679000Y-160977000D03*
X227088000Y-127195000D03*
X123964000Y-162247000D03*
X133489000Y-126687000D03*
X220103000Y-124655000D03*
X215785000Y-77665000D03*
X123329000Y-73982000D03*
X128409000Y-125417000D03*
X227088000Y-162120000D03*
X217055000Y-108780000D03*
X127139000Y-126052000D03*
X125742000Y-180535000D03*
X124599000Y-160977000D03*
X218325000Y-113225000D03*
X125742000Y-179265000D03*
X128409000Y-74617000D03*
X130822000Y-173550000D03*
X218198000Y-183075000D03*
X222008000Y-151960000D03*
X136918000Y-65854000D03*
X225818000Y-184345000D03*
X227088000Y-134815000D03*
X223278000Y-133545000D03*
X137172000Y-176090000D03*
X124472000Y-170375000D03*
X127139000Y-120972000D03*
X135902000Y-177360000D03*
X123329000Y-145737000D03*
X218000200Y-129698412D03*
X128282000Y-183075000D03*
X130314000Y-162247000D03*
X129679000Y-111447000D03*
X220738000Y-127195000D03*
X218000200Y-128404979D03*
X123202000Y-184345000D03*
X222008000Y-129735000D03*
X125869000Y-85412000D03*
X127139000Y-103827000D03*
X127139000Y-145737000D03*
%TO.N,+3.3V*%
X165354000Y-128667600D03*
X158000000Y-111574000D03*
X167056024Y-115132098D03*
X165199000Y-117249000D03*
X163486376Y-105389999D03*
X190258000Y-82110000D03*
X190131000Y-77030000D03*
X180848000Y-110617000D03*
X157873000Y-136974000D03*
X249059000Y-187647000D03*
X161556000Y-138752000D03*
X158000000Y-120464000D03*
X224040000Y-61790000D03*
X192036000Y-127703000D03*
X188575200Y-144594000D03*
X187210000Y-110558000D03*
X155460000Y-190822000D03*
X160667000Y-121734000D03*
X174792001Y-156249999D03*
X194322000Y-138244000D03*
X224040000Y-64076000D03*
X172478000Y-108780000D03*
X158000000Y-131640000D03*
X154444000Y-113606000D03*
X177304000Y-141546000D03*
X191948000Y-124440000D03*
X158000000Y-129862000D03*
X246900000Y-188790000D03*
X171550000Y-142728000D03*
X191800000Y-136046000D03*
X170700000Y-159072000D03*
X175018000Y-159834000D03*
X190141000Y-79560000D03*
X192290000Y-116400000D03*
%TO.N,/LS_DELANTERO_DX_180G*%
X160324620Y-194513380D03*
X158778830Y-139841914D03*
X163588000Y-137863000D03*
%TO.N,/LS_DELANTERO_DX_0G*%
X164477000Y-137863000D03*
X159002768Y-140831920D03*
X161305963Y-194929037D03*
%TO.N,/LS_DELANTERO_IX_180G*%
X159776039Y-136053113D03*
X163131500Y-195897500D03*
X165874000Y-135831000D03*
%TO.N,/LS_DELANTERO_IX_0G*%
X160555000Y-139802002D03*
X164205050Y-195072000D03*
%TO.N,/nrst*%
X179590000Y-70934000D03*
X180099734Y-136593867D03*
%TO.N,/PWM_DELANTERO_IZQ*%
X129000000Y-91952500D03*
X189185749Y-96404749D03*
X190258000Y-124528000D03*
%TO.N,/PWM_DELANTERO_DER*%
X220000000Y-70997500D03*
X186448000Y-123131000D03*
X189865000Y-73533000D03*
%TO.N,/DIR_B_DELANTERO_IZQ*%
X177177000Y-72077000D03*
X177079600Y-112066530D03*
X130272000Y-70997500D03*
%TO.N,/DIR_A_DELANTERO_IZQ*%
X177812000Y-95953000D03*
X178056350Y-110465026D03*
X130271999Y-91952502D03*
%TO.N,/PWM_TRASERO_IZQ*%
X192666172Y-188452878D03*
X192798000Y-121734000D03*
X129000000Y-191012500D03*
%TO.N,/PWM_TRASERO_DER*%
X194425661Y-121241159D03*
X220000000Y-170057500D03*
%TO.N,/DIR_A_MOTOR_IZQ*%
X154305000Y-162052000D03*
X175387000Y-132969000D03*
X130272000Y-141482500D03*
X154305000Y-141478000D03*
X175993612Y-115980723D03*
X130272000Y-116717500D03*
X130272000Y-166247498D03*
%TO.N,/DIR_B_MOTOR_IZQ*%
X162687000Y-97536000D03*
X164799911Y-140546600D03*
X130272000Y-120527500D03*
X130272000Y-95762500D03*
X130272000Y-145292500D03*
X165736662Y-124888400D03*
%TO.N,/PWM_MOTOR_1_IZQ*%
X129000000Y-116717500D03*
X184697432Y-137012238D03*
X184879947Y-119231200D03*
%TO.N,/PWM_MOTOR_2_IZQ*%
X166255000Y-140530000D03*
X129000000Y-141482500D03*
%TO.N,/PWM_MOTOR_3_IZQ*%
X129000000Y-166247500D03*
X189992000Y-136271000D03*
X189992000Y-161290000D03*
%TO.N,/DIR_A_MOTOR_DER*%
X183769000Y-125222000D03*
X218728000Y-144001400D03*
X187198000Y-99441000D03*
X218728000Y-120527500D03*
X167894000Y-125349000D03*
X202015001Y-120904000D03*
X218506203Y-95113336D03*
%TO.N,/DIR_B_MOTOR_DER*%
X218728000Y-141482500D03*
X218728000Y-116717500D03*
X169672000Y-125984000D03*
X169938000Y-117797000D03*
X218728000Y-166247500D03*
%TO.N,/PWM_MOTOR_1_DER*%
X185674000Y-136906000D03*
X220000000Y-95762500D03*
X188297400Y-101241068D03*
%TO.N,/PWM_MOTOR_2_DER*%
X169545000Y-128143000D03*
X220000000Y-120527500D03*
X168640011Y-136655686D03*
%TO.N,/PWM_MOTOR_3_DER*%
X220000000Y-145292500D03*
X188976000Y-139065000D03*
%TO.N,/LS_TRASERO_DX_180G*%
X175907000Y-194632000D03*
X175557691Y-202140000D03*
X171716000Y-141292000D03*
X178193000Y-158945000D03*
%TO.N,/LS_TRASERO_DX_0G*%
X177377378Y-194033689D03*
X171084547Y-136267346D03*
X178955000Y-157929000D03*
X177072602Y-202140000D03*
%TO.N,/ENC_A_DELANTERO_DER*%
X171594555Y-115127365D03*
X194784751Y-115357632D03*
%TO.N,/ENC_A_TRASERO_DER*%
X191020000Y-110685000D03*
X173367000Y-111574000D03*
%TO.N,/ENC_A_MOTOR_2_IZQ*%
X194150056Y-114223949D03*
%TO.N,/LS_TRASERO_IX_180G*%
X172859000Y-201490000D03*
X169557000Y-136974000D03*
%TO.N,/ENC_A_DELANTERO_IZQ*%
X172361008Y-115494861D03*
X193945724Y-115493785D03*
%TO.N,/LS_TRASERO_IX_0G*%
X168414000Y-140784000D03*
X156966369Y-141579550D03*
X159270000Y-193489000D03*
%TO.N,/ENC_A_MOTOR_3_IZQ*%
X180848000Y-112225600D03*
X193052000Y-113479000D03*
%TO.N,/ENC_A_MOTOR_1_DER*%
X191909000Y-106875000D03*
X192512589Y-114518231D03*
X179041400Y-106915600D03*
%TO.N,/ENC_A_MOTOR_1_IZQ*%
X194932913Y-114555067D03*
X181864000Y-115570000D03*
%TO.N,/ENC_A_MOTOR_3_DER*%
X194195000Y-111775000D03*
X178684400Y-112336000D03*
%TO.N,/ENC_A_TRASERO_IZQ*%
X193104648Y-116482888D03*
X238391000Y-191838000D03*
X173449565Y-116766000D03*
%TO.N,/ENC_A_MOTOR_2_DER*%
X191752011Y-114129000D03*
%TO.N,/DIR_A_DELANTERO_DER*%
X175768000Y-76327000D03*
X218728000Y-70997500D03*
X176033856Y-111268551D03*
%TO.N,/UART_RX*%
X190258000Y-70299000D03*
X185162256Y-112063486D03*
%TO.N,/UART_TX*%
X189877000Y-71602300D03*
X184379299Y-112242686D03*
D26*
%TO.N,/FLASH_IO_3*%
X167519200Y-153738000D03*
X177038000Y-136906000D03*
D24*
%TO.N,/FLASH_CLK*%
X178750000Y-137250000D03*
D26*
X167519200Y-151960000D03*
D24*
%TO.N,/FLASH_CS*%
X186702000Y-120210000D03*
X187464000Y-155008000D03*
%TO.N,/FLASH_IO_1*%
X185940000Y-153750000D03*
X178574000Y-141546000D03*
%TO.N,/FLASH_IO_2*%
X184924000Y-149801000D03*
X177685000Y-140530000D03*
D26*
%TO.N,/FLASH_IO_0*%
X168728200Y-149098000D03*
X177800000Y-137160000D03*
D24*
%TO.N,/ACC_1*%
X192925000Y-83761000D03*
X194530495Y-67460719D03*
X187718000Y-83888000D03*
X184289000Y-115765000D03*
%TO.N,/ACC_2*%
X195516628Y-67338458D03*
X195465000Y-77792000D03*
X193433000Y-105986000D03*
%TO.N,/DIR_B_DELANTERO_DER*%
X175338019Y-110845263D03*
X175641000Y-92456000D03*
X218728000Y-91952500D03*
%TO.N,/RPI_GPIO_SDA*%
X175272000Y-69918000D03*
X175234322Y-116362800D03*
%TO.N,/ACC_3*%
X194885600Y-68370922D03*
X194449000Y-76903000D03*
X192925000Y-104843000D03*
%TO.N,/RPI_GPIO_SCL*%
X174411779Y-116362800D03*
X174510000Y-69274200D03*
%TO.N,/RF_DATA_EN*%
X167730549Y-127501041D03*
%TO.N,/RF_DATA_UART_TX*%
X167398000Y-83380000D03*
X167254400Y-112119404D03*
%TO.N,/RF_DATA_TIMER*%
X167135200Y-136019847D03*
X168541000Y-79062000D03*
%TO.N,/RF_DATA_IN_UART*%
X166554200Y-96230567D03*
X166405567Y-112074836D03*
%TO.N,/RF_DATA_IN_TIM*%
X166083832Y-136768262D03*
%TO.N,/RPI_UART2_TX*%
X182384000Y-68648000D03*
X182863400Y-111825130D03*
%TO.N,/RPI_SPI_MISO*%
X178149025Y-132204975D03*
%TO.N,/RPI_SPI_CLK*%
X178066000Y-134040000D03*
%TO.N,/RPI_UART2_RX*%
X183577666Y-112192497D03*
X183400000Y-67632000D03*
%TO.N,/RPI_SPI_MOSI*%
X178131209Y-133089209D03*
%TO.N,/RPI_SPI_CS*%
X196098030Y-66290926D03*
X194830000Y-134180000D03*
%TO.N,/ADC_VBAT1*%
X180860000Y-136974000D03*
D26*
X171462000Y-209618000D03*
%TO.N,/ADC_VBAT2*%
X176784000Y-210380000D03*
D24*
X181707260Y-136905769D03*
%TO.N,/JOY_PB*%
X157492000Y-125798000D03*
%TO.N,/JOY_DIRB*%
X193560000Y-190314000D03*
X194576000Y-131386000D03*
%TO.N,/JOY_DIRA*%
X191782000Y-133782400D03*
%TO.N,/ACC_I2C_SDA*%
X163842000Y-72966000D03*
X161810000Y-131386000D03*
%TO.N,/ACC_I2C_SCL*%
X165299889Y-74520649D03*
X164677000Y-131020372D03*
%TO.N,/BUTON1*%
X119138000Y-60774000D03*
X165747000Y-115257000D03*
X167906000Y-75887000D03*
%TO.N,/BUTON2*%
X112661000Y-60393000D03*
X165493000Y-77919000D03*
X164223000Y-113733000D03*
%TO.N,/BUTON4*%
X154063000Y-76141000D03*
X156349000Y-111701000D03*
X100469000Y-60647000D03*
%TO.N,/BUTON3*%
X106819000Y-60774000D03*
X160540000Y-109288000D03*
X161556000Y-73093000D03*
%TO.N,/ACC_GYR_SDA*%
X170446000Y-161493800D03*
X172977616Y-134330610D03*
%TO.N,/ACC_GYR_SCL*%
X173851917Y-134355250D03*
X175018000Y-161612000D03*
%TO.N,/ACC_GYR_INT*%
X168935437Y-126691600D03*
X166636000Y-169994000D03*
%TO.N,/JTMS{slash}SWDIO*%
X169287493Y-115374402D03*
X168402000Y-119761000D03*
X155460000Y-119702000D03*
%TO.N,/JTCK{slash}SWCLK*%
X156222000Y-117924000D03*
X155460000Y-122242000D03*
%TO.N,/JTDI*%
X156730000Y-120464000D03*
X155923183Y-124291000D03*
%TO.N,/DIR_A_TRASERO_IZQ*%
X190335295Y-126729400D03*
X130272000Y-191012500D03*
X190893000Y-188536000D03*
%TO.N,/DIR_B_TRASERO_IZQ*%
X190292114Y-125880495D03*
X130272000Y-170057500D03*
X190512000Y-164406000D03*
%TO.N,/DIR_A_TRASERO_DER*%
X178514751Y-129333249D03*
X178412213Y-115875400D03*
X218728000Y-170057500D03*
%TO.N,/DIR_B_TRASERO_DER*%
X218728000Y-191012500D03*
D26*
X177761968Y-115048155D03*
D24*
X179070000Y-130810000D03*
%TD*%
D27*
%TO.N,/LS_DELANTERO_DX_180G*%
X196590997Y-200690000D02*
X173825369Y-200690000D01*
X165766686Y-200309000D02*
X160324620Y-194866934D01*
X173825369Y-200690000D02*
X173444369Y-200309000D01*
X160324620Y-194866934D02*
X160324620Y-194513380D01*
X173444369Y-200309000D02*
X165766686Y-200309000D01*
X198103597Y-202202600D02*
X196590997Y-200690000D01*
X216052600Y-202202600D02*
X198103597Y-202202600D01*
X227000000Y-213150000D02*
X216052600Y-202202600D01*
%TO.N,/LS_DELANTERO_DX_0G*%
X232000000Y-213150000D02*
X220652600Y-201802600D01*
X220652600Y-201802600D02*
X198269282Y-201802600D01*
X173991055Y-200290000D02*
X170424057Y-196723000D01*
X170424057Y-196723000D02*
X163099926Y-196723000D01*
X198269282Y-201802600D02*
X196756682Y-200290000D01*
X196756682Y-200290000D02*
X173991055Y-200290000D01*
X163099926Y-196723000D02*
X161305963Y-194929037D01*
%TO.N,/LS_DELANTERO_IX_180G*%
X196922367Y-199890000D02*
X174156741Y-199890000D01*
X170164242Y-195897500D02*
X163131500Y-195897500D01*
X163131500Y-195897500D02*
X163068000Y-195834000D01*
X237000000Y-213150000D02*
X225252600Y-201402600D01*
X174156741Y-199890000D02*
X170164242Y-195897500D01*
X225252600Y-201402600D02*
X198434967Y-201402600D01*
X198434967Y-201402600D02*
X196922367Y-199890000D01*
%TO.N,/LS_DELANTERO_IX_0G*%
X242000000Y-213150000D02*
X229852600Y-201002600D01*
X229852600Y-201002600D02*
X199284652Y-201002600D01*
X197772052Y-199490000D02*
X174322427Y-199490000D01*
X199284652Y-201002600D02*
X197772052Y-199490000D01*
X174322427Y-199490000D02*
X169904427Y-195072000D01*
X169904427Y-195072000D02*
X164205050Y-195072000D01*
D28*
%TO.N,/PWM_DELANTERO_IZQ*%
X129000000Y-91952500D02*
X134514900Y-97467400D01*
X161834098Y-97467400D02*
X162417098Y-96884400D01*
X163539902Y-97467400D02*
X188250098Y-97467400D01*
X162417098Y-96884400D02*
X162956902Y-96884400D01*
X134514900Y-97467400D02*
X161834098Y-97467400D01*
X162956902Y-96884400D02*
X163539902Y-97467400D01*
X189185749Y-96531749D02*
X189185749Y-96404749D01*
X188250098Y-97467400D02*
X189185749Y-96531749D01*
%TO.N,/DIR_A_DELANTERO_IZQ*%
X152712900Y-91300900D02*
X130923601Y-91300900D01*
D29*
X177812000Y-95953000D02*
X176761000Y-94902000D01*
X176761000Y-94902000D02*
X156314000Y-94902000D01*
X156314000Y-94902000D02*
X153364500Y-91952500D01*
D28*
X130923601Y-91300900D02*
X130271999Y-91952502D01*
X153364500Y-91952500D02*
X152712900Y-91300900D01*
D27*
%TO.N,/LS_TRASERO_DX_180G*%
X178262760Y-204511000D02*
X175891760Y-202140000D01*
X175891760Y-202140000D02*
X175557691Y-202140000D01*
X198361000Y-204511000D02*
X178262760Y-204511000D01*
X207000000Y-213150000D02*
X198361000Y-204511000D01*
%TO.N,/LS_TRASERO_DX_0G*%
X202252600Y-203402600D02*
X197606542Y-203402600D01*
X196094942Y-201891000D02*
X177321602Y-201891000D01*
X177321602Y-201891000D02*
X177072602Y-202140000D01*
X197606542Y-203402600D02*
X196094942Y-201891000D01*
X212000000Y-213150000D02*
X202252600Y-203402600D01*
%TO.N,/ENC_A_DELANTERO_DER*%
X201444942Y-195197000D02*
X198964000Y-192716056D01*
X197948000Y-191573055D02*
X197948000Y-118376591D01*
X212000000Y-198150000D02*
X209047000Y-195197000D01*
X209047000Y-195197000D02*
X201444942Y-195197000D01*
X198964000Y-192716056D02*
X198964000Y-192589056D01*
X197948000Y-118376591D02*
X194929041Y-115357632D01*
X198964000Y-192589056D02*
X197948000Y-191573055D01*
X194929041Y-115357632D02*
X194784751Y-115357632D01*
%TO.N,/ENC_A_TRASERO_DER*%
X191872003Y-115168231D02*
X191020000Y-114316228D01*
X197497000Y-195061213D02*
X197497000Y-192253426D01*
X200585787Y-198150000D02*
X197497000Y-195061213D01*
X197497000Y-192253426D02*
X197148000Y-191904425D01*
X192709231Y-115168231D02*
X191872003Y-115168231D01*
X197148000Y-191904425D02*
X197148000Y-119607000D01*
X191020000Y-114316228D02*
X191020000Y-110685000D01*
X202000000Y-198150000D02*
X200585787Y-198150000D01*
X197148000Y-119607000D02*
X192709231Y-115168231D01*
%TO.N,/ENC_A_MOTOR_2_IZQ*%
X201776314Y-194397000D02*
X199764000Y-192384686D01*
X218247000Y-194397000D02*
X201776314Y-194397000D01*
X199764000Y-192257686D02*
X198748000Y-191241685D01*
X198748000Y-191241685D02*
X198748000Y-117183454D01*
X222000000Y-198150000D02*
X218247000Y-194397000D01*
X199764000Y-192384686D02*
X199764000Y-192257686D01*
X194495005Y-113879000D02*
X194150056Y-114223949D01*
X198748000Y-117183454D02*
X195443546Y-113879000D01*
X195443546Y-113879000D02*
X194495005Y-113879000D01*
%TO.N,/LS_TRASERO_IX_180G*%
X217000000Y-213150000D02*
X206852600Y-203002600D01*
X172860000Y-201491000D02*
X172859000Y-201490000D01*
X196260627Y-201491000D02*
X172860000Y-201491000D01*
X197772227Y-203002600D02*
X196260627Y-201491000D01*
X206852600Y-203002600D02*
X197772227Y-203002600D01*
%TO.N,/ENC_A_DELANTERO_IZQ*%
X204752000Y-195902000D02*
X199910000Y-195902000D01*
X197548000Y-119187314D02*
X193871686Y-115511000D01*
X193871686Y-115511000D02*
X193814000Y-115511000D01*
X207000000Y-198150000D02*
X204752000Y-195902000D01*
X197548000Y-191738740D02*
X197548000Y-119187314D01*
X199910000Y-195902000D02*
X198532000Y-194524000D01*
X198532000Y-192722740D02*
X197548000Y-191738740D01*
X198532000Y-194524000D02*
X198532000Y-192722740D01*
%TO.N,/LS_TRASERO_IX_0G*%
X196426312Y-201091000D02*
X173659271Y-201091000D01*
X222000000Y-213150000D02*
X211452600Y-202602600D01*
X211452600Y-202602600D02*
X197937912Y-202602600D01*
X165602000Y-200710000D02*
X159270000Y-194378000D01*
X197937912Y-202602600D02*
X196426312Y-201091000D01*
X159270000Y-194378000D02*
X159270000Y-193489000D01*
X173278271Y-200710000D02*
X165602000Y-200710000D01*
X159270000Y-193489000D02*
X159270000Y-193362000D01*
X173659271Y-201091000D02*
X173278271Y-200710000D01*
%TO.N,/ENC_A_MOTOR_3_IZQ*%
X227000000Y-198150000D02*
X222847000Y-193997000D01*
X199656000Y-116654000D02*
X196481000Y-113479000D01*
X222847000Y-193997000D02*
X221246000Y-193997000D01*
X221246000Y-193997000D02*
X202069000Y-193997000D01*
X196481000Y-113479000D02*
X193052000Y-113479000D01*
X202069000Y-193997000D02*
X200164000Y-192092000D01*
X200164000Y-117162000D02*
X199656000Y-116654000D01*
X200164000Y-192092000D02*
X200164000Y-117162000D01*
%TO.N,/ENC_A_MOTOR_1_DER*%
X232000000Y-198150000D02*
X227066000Y-193216000D01*
X192402000Y-113209761D02*
X192402000Y-114407642D01*
X200564000Y-191545314D02*
X200564000Y-116996314D01*
X202234686Y-193216000D02*
X200564000Y-191545314D01*
X227066000Y-193216000D02*
X202234686Y-193216000D01*
X200564000Y-116996314D02*
X196392685Y-112825000D01*
X192402000Y-114407642D02*
X192512589Y-114518231D01*
X196392685Y-112825000D02*
X192786761Y-112825000D01*
X192786761Y-112825000D02*
X192402000Y-113209761D01*
%TO.N,/ENC_A_MOTOR_1_IZQ*%
X199364000Y-192423371D02*
X198348000Y-191407370D01*
X201610628Y-194797000D02*
X199364000Y-192550371D01*
X199364000Y-192550371D02*
X199364000Y-192423371D01*
X217000000Y-198150000D02*
X213647000Y-194797000D01*
X195168775Y-114555067D02*
X194932913Y-114555067D01*
X198348000Y-117734292D02*
X195168775Y-114555067D01*
X198348000Y-191407370D02*
X198348000Y-117734292D01*
X213647000Y-194797000D02*
X201610628Y-194797000D01*
%TO.N,/ENC_A_MOTOR_3_DER*%
X242000000Y-198150000D02*
X235796000Y-191946000D01*
X201365000Y-191212114D02*
X201365001Y-116665943D01*
X201365001Y-116665943D02*
X196474058Y-111775000D01*
X235796000Y-191946000D02*
X202098886Y-191946000D01*
X196474058Y-111775000D02*
X194195000Y-111775000D01*
X202098886Y-191946000D02*
X201365000Y-191212114D01*
D28*
%TO.N,/ENC_A_TRASERO_IZQ*%
X243217000Y-200474000D02*
X199402000Y-200474000D01*
X196746400Y-120124640D02*
X193104648Y-116482888D01*
X199275000Y-200347000D02*
X199197000Y-200347000D01*
X197000000Y-192324373D02*
X196746400Y-192070773D01*
X199402000Y-200474000D02*
X199275000Y-200347000D01*
X243979000Y-199712000D02*
X243217000Y-200474000D01*
X197000000Y-198150000D02*
X197000000Y-192324373D01*
X199197000Y-200347000D02*
X197000000Y-198150000D01*
X196746400Y-192070773D02*
X196746400Y-120124640D01*
X238391000Y-191838000D02*
X243979000Y-197426000D01*
X243979000Y-197426000D02*
X243979000Y-199712000D01*
D27*
%TO.N,/ENC_A_MOTOR_2_DER*%
X192621076Y-112425000D02*
X191752011Y-113294065D01*
X191752011Y-113294065D02*
X191752011Y-114129000D01*
X231197000Y-192347000D02*
X201932786Y-192347000D01*
X200964000Y-191378214D02*
X200964000Y-116830628D01*
X201932786Y-192347000D02*
X200964000Y-191378214D01*
X200964000Y-116830628D02*
X196558370Y-112425000D01*
X196558370Y-112425000D02*
X192621076Y-112425000D01*
X237000000Y-198150000D02*
X231197000Y-192347000D01*
D29*
%TO.N,/BUTON1*%
X120662000Y-60774000D02*
X127563009Y-67675009D01*
X160667000Y-68648000D02*
X167779000Y-75760000D01*
X151697592Y-67694000D02*
X157961556Y-67694000D01*
X167779000Y-75760000D02*
X167906000Y-75887000D01*
X151678602Y-67675009D02*
X151697592Y-67694000D01*
X119138000Y-60774000D02*
X120662000Y-60774000D01*
X127563009Y-67675009D02*
X151678602Y-67675009D01*
X157961556Y-67694000D02*
X158915555Y-68648000D01*
X158915555Y-68648000D02*
X160667000Y-68648000D01*
D27*
%TO.N,/BUTON2*%
X165493000Y-77792000D02*
X165493000Y-77919000D01*
X112661000Y-60393000D02*
X113931000Y-60393000D01*
X159651000Y-69791000D02*
X165493000Y-75633000D01*
X151520715Y-68121000D02*
X157784686Y-68121000D01*
X159454686Y-69791000D02*
X159651000Y-69791000D01*
X121640005Y-68102005D02*
X151501721Y-68102005D01*
X113931000Y-60393000D02*
X121640005Y-68102005D01*
X157784686Y-68121000D02*
X159454686Y-69791000D01*
X151501721Y-68102005D02*
X151520715Y-68121000D01*
X165493000Y-75633000D02*
X165493000Y-77792000D01*
%TO.N,/BUTON4*%
X154063000Y-71794661D02*
X154063000Y-76141000D01*
X100469000Y-60647000D02*
X102120000Y-60647000D01*
X102120000Y-60647000D02*
X110375000Y-68902000D01*
X151170339Y-68902000D02*
X154063000Y-71794661D01*
X110375000Y-68902000D02*
X151170339Y-68902000D01*
%TO.N,/BUTON3*%
X106819000Y-60774000D02*
X108978000Y-60774000D01*
X161556000Y-72458000D02*
X161556000Y-73093000D01*
X157619000Y-68521000D02*
X161556000Y-72458000D01*
X151355024Y-68521000D02*
X157619000Y-68521000D01*
X108978000Y-60774000D02*
X116706000Y-68502000D01*
X151336025Y-68502000D02*
X151355024Y-68521000D01*
X116706000Y-68502000D02*
X151336025Y-68502000D01*
%TD*%
M02*
