M48
; DRILL file {KiCad 9.0.7} date 2026-02-28T17:46:59-0400
; FORMAT={-:-/ absolute / metric / decimal}
; #@! TF.CreationDate,2026-02-28T17:46:59-04:00
; #@! TF.GenerationSoftware,Kicad,Pcbnew,9.0.7
; #@! TF.FileFunction,Plated,1,6,PTH
FMAT,2
METRIC
; #@! TA.AperFunction,Plated,PTH,ViaDrill
T1C0.300
; #@! TA.AperFunction,Plated,PTH,ViaDrill
T2C0.305
; #@! TA.AperFunction,Plated,PTH,ViaDrill
T3C0.406
; #@! TA.AperFunction,Plated,PTH,ComponentDrill
T4C0.800
; #@! TA.AperFunction,Plated,PTH,ComponentDrill
T5C0.889
; #@! TA.AperFunction,Plated,PTH,ComponentDrill
T6C1.000
; #@! TA.AperFunction,Plated,PTH,ComponentDrill
T7C1.000
; #@! TA.AperFunction,Plated,PTH,ComponentDrill
T8C1.100
; #@! TA.AperFunction,Plated,PTH,ComponentDrill
T9C1.100
; #@! TA.AperFunction,Plated,PTH,ComponentDrill
T10C1.500
%
G90
G05
T1
X100.469Y-60.647
X102.374Y-64.33
X106.819Y-60.774
X108.47Y-64.584
X112.661Y-60.393
X114.566Y-64.33
X119.138Y-60.774
X120.662Y-64.33
X121.932Y-169.105
X121.932Y-170.375
X121.932Y-171.645
X121.932Y-172.915
X121.932Y-174.185
X121.932Y-175.455
X121.932Y-176.725
X121.932Y-177.995
X121.932Y-179.265
X121.932Y-180.535
X121.932Y-181.805
X121.932Y-183.075
X121.932Y-184.345
X121.932Y-185.615
X122.059Y-70.871
X122.059Y-71.442
X122.059Y-72.712
X122.059Y-73.982
X122.059Y-75.252
X122.059Y-76.522
X122.059Y-77.792
X122.059Y-79.062
X122.059Y-80.332
X122.059Y-81.602
X122.059Y-82.872
X122.059Y-84.142
X122.059Y-85.412
X122.059Y-86.682
X122.059Y-94.937
X122.059Y-96.207
X122.059Y-97.477
X122.059Y-98.747
X122.059Y-100.017
X122.059Y-101.287
X122.059Y-102.557
X122.059Y-103.827
X122.059Y-105.097
X122.059Y-106.367
X122.059Y-107.637
X122.059Y-108.907
X122.059Y-110.177
X122.059Y-111.447
X122.059Y-119.702
X122.059Y-120.972
X122.059Y-122.242
X122.059Y-123.512
X122.059Y-124.782
X122.059Y-126.052
X122.059Y-127.322
X122.059Y-128.592
X122.059Y-129.862
X122.059Y-131.132
X122.059Y-132.402
X122.059Y-133.672
X122.059Y-134.942
X122.059Y-136.212
X122.059Y-144.467
X122.059Y-145.737
X122.059Y-147.007
X122.059Y-148.277
X122.059Y-149.547
X122.059Y-150.817
X122.059Y-152.087
X122.059Y-153.357
X122.059Y-154.627
X122.059Y-155.897
X122.059Y-157.167
X122.059Y-158.437
X122.059Y-159.707
X122.059Y-160.977
X123.202Y-169.105
X123.202Y-170.375
X123.202Y-171.645
X123.202Y-172.915
X123.202Y-174.185
X123.202Y-175.455
X123.202Y-176.725
X123.202Y-177.995
X123.202Y-179.265
X123.202Y-180.535
X123.202Y-181.805
X123.202Y-183.075
X123.202Y-184.345
X123.202Y-185.615
X123.329Y-70.871
X123.329Y-71.442
X123.329Y-72.712
X123.329Y-73.982
X123.329Y-75.252
X123.329Y-76.522
X123.329Y-77.792
X123.329Y-79.062
X123.329Y-80.332
X123.329Y-81.602
X123.329Y-82.872
X123.329Y-84.142
X123.329Y-85.412
X123.329Y-86.682
X123.329Y-94.937
X123.329Y-96.207
X123.329Y-97.477
X123.329Y-98.747
X123.329Y-100.017
X123.329Y-101.287
X123.329Y-102.557
X123.329Y-103.827
X123.329Y-105.097
X123.329Y-106.367
X123.329Y-107.637
X123.329Y-108.907
X123.329Y-110.177
X123.329Y-111.447
X123.329Y-119.702
X123.329Y-120.972
X123.329Y-122.242
X123.329Y-123.512
X123.329Y-124.782
X123.329Y-126.052
X123.329Y-127.322
X123.329Y-128.592
X123.329Y-129.862
X123.329Y-131.132
X123.329Y-132.402
X123.329Y-133.672
X123.329Y-134.942
X123.329Y-136.212
X123.329Y-144.467
X123.329Y-145.737
X123.329Y-147.007
X123.329Y-148.277
X123.329Y-149.547
X123.329Y-150.817
X123.329Y-152.087
X123.329Y-153.357
X123.329Y-154.627
X123.329Y-155.897
X123.329Y-157.167
X123.329Y-158.437
X123.329Y-159.707
X123.329Y-160.977
X123.837Y-186.885
X123.964Y-87.952
X123.964Y-112.717
X123.964Y-137.482
X123.964Y-162.247
X124.472Y-169.105
X124.472Y-170.375
X124.472Y-171.645
X124.472Y-172.915
X124.472Y-174.185
X124.472Y-175.455
X124.472Y-176.725
X124.472Y-177.995
X124.472Y-179.265
X124.472Y-180.535
X124.472Y-181.805
X124.472Y-183.075
X124.472Y-184.345
X124.472Y-185.615
X124.599Y-70.871
X124.599Y-71.442
X124.599Y-72.712
X124.599Y-73.982
X124.599Y-75.252
X124.599Y-76.522
X124.599Y-77.792
X124.599Y-79.062
X124.599Y-80.332
X124.599Y-81.602
X124.599Y-82.872
X124.599Y-84.142
X124.599Y-85.412
X124.599Y-86.682
X124.599Y-94.937
X124.599Y-96.207
X124.599Y-97.477
X124.599Y-98.747
X124.599Y-100.017
X124.599Y-101.287
X124.599Y-102.557
X124.599Y-103.827
X124.599Y-105.097
X124.599Y-106.367
X124.599Y-107.637
X124.599Y-108.907
X124.599Y-110.177
X124.599Y-111.447
X124.599Y-119.702
X124.599Y-120.972
X124.599Y-122.242
X124.599Y-123.512
X124.599Y-124.782
X124.599Y-126.052
X124.599Y-127.322
X124.599Y-128.592
X124.599Y-129.862
X124.599Y-131.132
X124.599Y-132.402
X124.599Y-133.672
X124.599Y-134.942
X124.599Y-136.212
X124.599Y-144.467
X124.599Y-145.737
X124.599Y-147.007
X124.599Y-148.277
X124.599Y-149.547
X124.599Y-150.817
X124.599Y-152.087
X124.599Y-153.357
X124.599Y-154.627
X124.599Y-155.897
X124.599Y-157.167
X124.599Y-158.437
X124.599Y-159.707
X124.599Y-160.977
X125.107Y-186.885
X125.234Y-87.952
X125.234Y-112.717
X125.234Y-137.482
X125.234Y-162.247
X125.742Y-169.105
X125.742Y-170.375
X125.742Y-171.645
X125.742Y-172.915
X125.742Y-174.185
X125.742Y-175.455
X125.742Y-176.725
X125.742Y-177.995
X125.742Y-179.265
X125.742Y-180.535
X125.742Y-181.805
X125.742Y-183.075
X125.742Y-184.345
X125.742Y-185.615
X125.869Y-70.871
X125.869Y-71.442
X125.869Y-72.712
X125.869Y-73.982
X125.869Y-75.252
X125.869Y-76.522
X125.869Y-77.792
X125.869Y-79.062
X125.869Y-80.332
X125.869Y-81.602
X125.869Y-82.872
X125.869Y-84.142
X125.869Y-85.412
X125.869Y-86.682
X125.869Y-94.937
X125.869Y-96.207
X125.869Y-97.477
X125.869Y-98.747
X125.869Y-100.017
X125.869Y-101.287
X125.869Y-102.557
X125.869Y-103.827
X125.869Y-105.097
X125.869Y-106.367
X125.869Y-107.637
X125.869Y-108.907
X125.869Y-110.177
X125.869Y-111.447
X125.869Y-119.702
X125.869Y-120.972
X125.869Y-122.242
X125.869Y-123.512
X125.869Y-124.782
X125.869Y-126.052
X125.869Y-127.322
X125.869Y-128.592
X125.869Y-129.862
X125.869Y-131.132
X125.869Y-132.402
X125.869Y-133.672
X125.869Y-134.942
X125.869Y-136.212
X125.869Y-144.467
X125.869Y-145.737
X125.869Y-147.007
X125.869Y-148.277
X125.869Y-149.547
X125.869Y-150.817
X125.869Y-152.087
X125.869Y-153.357
X125.869Y-154.627
X125.869Y-155.897
X125.869Y-157.167
X125.869Y-158.437
X125.869Y-159.707
X125.869Y-160.977
X126.377Y-186.885
X126.504Y-87.952
X126.504Y-112.717
X126.504Y-137.482
X126.504Y-162.247
X127.012Y-170.375
X127.012Y-171.645
X127.012Y-172.915
X127.012Y-174.185
X127.012Y-175.455
X127.012Y-176.725
X127.012Y-177.995
X127.012Y-179.265
X127.012Y-180.535
X127.012Y-181.805
X127.012Y-183.075
X127.012Y-184.345
X127.012Y-185.615
X127.139Y-71.442
X127.139Y-72.712
X127.139Y-73.982
X127.139Y-75.252
X127.139Y-76.522
X127.139Y-77.792
X127.139Y-79.062
X127.139Y-80.332
X127.139Y-81.602
X127.139Y-82.872
X127.139Y-84.142
X127.139Y-85.412
X127.139Y-86.682
X127.139Y-96.207
X127.139Y-97.477
X127.139Y-98.747
X127.139Y-100.017
X127.139Y-101.287
X127.139Y-102.557
X127.139Y-103.827
X127.139Y-105.097
X127.139Y-106.367
X127.139Y-107.637
X127.139Y-108.907
X127.139Y-110.177
X127.139Y-111.447
X127.139Y-120.972
X127.139Y-122.242
X127.139Y-123.512
X127.139Y-124.782
X127.139Y-126.052
X127.139Y-127.322
X127.139Y-128.592
X127.139Y-129.862
X127.139Y-131.132
X127.139Y-132.402
X127.139Y-133.672
X127.139Y-134.942
X127.139Y-136.212
X127.139Y-145.737
X127.139Y-147.007
X127.139Y-148.277
X127.139Y-149.547
X127.139Y-150.817
X127.139Y-152.087
X127.139Y-153.357
X127.139Y-154.627
X127.139Y-155.897
X127.139Y-157.167
X127.139Y-158.437
X127.139Y-159.707
X127.139Y-160.977
X127.52Y-66.362
X127.647Y-186.885
X127.774Y-87.952
X127.774Y-112.717
X127.774Y-137.482
X127.774Y-162.247
X128.282Y-173.55
X128.282Y-174.82
X128.282Y-176.09
X128.282Y-177.995
X128.282Y-179.265
X128.282Y-180.535
X128.282Y-181.805
X128.282Y-183.075
X128.282Y-184.345
X128.282Y-185.615
X128.409Y-74.617
X128.409Y-75.887
X128.409Y-77.157
X128.409Y-79.062
X128.409Y-80.332
X128.409Y-81.602
X128.409Y-82.872
X128.409Y-84.142
X128.409Y-85.412
X128.409Y-86.682
X128.409Y-99.382
X128.409Y-100.652
X128.409Y-101.922
X128.409Y-103.827
X128.409Y-105.097
X128.409Y-106.367
X128.409Y-107.637
X128.409Y-108.907
X128.409Y-110.177
X128.409Y-111.447
X128.409Y-124.147
X128.409Y-125.417
X128.409Y-126.687
X128.409Y-128.592
X128.409Y-129.862
X128.409Y-131.132
X128.409Y-132.402
X128.409Y-133.672
X128.409Y-134.942
X128.409Y-136.212
X128.409Y-148.912
X128.409Y-150.182
X128.409Y-151.452
X128.409Y-153.357
X128.409Y-154.627
X128.409Y-155.897
X128.409Y-157.167
X128.409Y-158.437
X128.409Y-159.707
X128.409Y-160.977
X128.917Y-186.885
X129.0Y-91.953
X129.0Y-116.718
X129.0Y-141.482
X129.0Y-166.248
X129.0Y-191.012
X129.044Y-87.952
X129.044Y-112.717
X129.044Y-137.482
X129.044Y-162.247
X129.426Y-128.654
X129.447Y-124.23
X129.447Y-125.456
X129.447Y-126.796
X129.447Y-129.975
X129.447Y-131.132
X129.447Y-132.497
X129.447Y-133.767
X129.447Y-134.981
X129.447Y-136.286
X129.552Y-173.55
X129.552Y-174.82
X129.552Y-176.09
X129.552Y-177.995
X129.552Y-179.265
X129.552Y-180.535
X129.552Y-181.805
X129.552Y-183.075
X129.552Y-184.345
X129.552Y-185.615
X129.679Y-74.617
X129.679Y-75.887
X129.679Y-77.157
X129.679Y-79.062
X129.679Y-80.332
X129.679Y-81.602
X129.679Y-82.872
X129.679Y-84.142
X129.679Y-85.412
X129.679Y-86.682
X129.679Y-99.382
X129.679Y-100.652
X129.679Y-101.922
X129.679Y-103.827
X129.679Y-105.097
X129.679Y-106.367
X129.679Y-107.637
X129.679Y-108.907
X129.679Y-110.177
X129.679Y-111.447
X129.679Y-148.912
X129.679Y-150.182
X129.679Y-151.452
X129.679Y-153.357
X129.679Y-154.627
X129.679Y-155.897
X129.679Y-157.167
X129.679Y-158.437
X129.679Y-159.707
X129.679Y-160.977
X130.187Y-186.885
X130.272Y-91.953
X130.272Y-70.998
X130.272Y-95.762
X130.272Y-116.718
X130.272Y-120.527
X130.272Y-141.482
X130.272Y-145.292
X130.272Y-166.247
X130.272Y-170.058
X130.272Y-191.012
X130.314Y-87.952
X130.314Y-112.717
X130.314Y-162.247
X130.822Y-173.55
X130.822Y-174.82
X130.822Y-176.09
X130.822Y-177.995
X130.822Y-179.265
X130.822Y-180.535
X130.822Y-181.805
X130.822Y-183.075
X130.822Y-184.345
X130.822Y-185.615
X130.949Y-74.617
X130.949Y-75.887
X130.949Y-77.157
X130.949Y-79.062
X130.949Y-80.332
X130.949Y-81.602
X130.949Y-82.872
X130.949Y-84.142
X130.949Y-85.412
X130.949Y-86.682
X130.949Y-99.382
X130.949Y-100.652
X130.949Y-101.922
X130.949Y-103.827
X130.949Y-105.097
X130.949Y-106.367
X130.949Y-107.637
X130.949Y-108.907
X130.949Y-110.177
X130.949Y-111.447
X130.949Y-148.912
X130.949Y-150.182
X130.949Y-151.452
X130.949Y-153.357
X130.949Y-154.627
X130.949Y-155.897
X130.949Y-157.167
X130.949Y-158.437
X130.949Y-159.707
X130.949Y-160.977
X131.457Y-186.885
X131.584Y-87.952
X131.584Y-112.717
X131.584Y-162.247
X132.092Y-173.55
X132.092Y-174.82
X132.092Y-176.09
X132.092Y-177.995
X132.092Y-179.265
X132.092Y-180.535
X132.092Y-181.805
X132.092Y-183.075
X132.092Y-184.345
X132.092Y-185.615
X132.219Y-74.617
X132.219Y-75.887
X132.219Y-77.157
X132.219Y-79.062
X132.219Y-80.332
X132.219Y-81.602
X132.219Y-82.872
X132.219Y-84.142
X132.219Y-85.412
X132.219Y-86.682
X132.219Y-99.382
X132.219Y-100.652
X132.219Y-101.922
X132.219Y-103.827
X132.219Y-105.097
X132.219Y-106.367
X132.219Y-107.637
X132.219Y-108.907
X132.219Y-110.177
X132.219Y-111.447
X132.219Y-124.147
X132.219Y-125.417
X132.219Y-126.687
X132.219Y-128.592
X132.219Y-129.862
X132.219Y-131.132
X132.219Y-132.402
X132.219Y-133.672
X132.219Y-134.942
X132.219Y-136.212
X132.219Y-148.912
X132.219Y-150.182
X132.219Y-151.452
X132.219Y-153.357
X132.219Y-154.627
X132.219Y-155.897
X132.219Y-157.167
X132.219Y-158.437
X132.219Y-159.707
X132.219Y-160.977
X132.727Y-186.885
X132.854Y-87.952
X132.854Y-112.717
X132.854Y-137.482
X132.854Y-162.247
X133.362Y-173.55
X133.362Y-174.82
X133.362Y-176.09
X133.362Y-177.995
X133.362Y-179.265
X133.362Y-180.535
X133.362Y-181.805
X133.362Y-183.075
X133.362Y-184.345
X133.362Y-185.615
X133.489Y-74.617
X133.489Y-75.887
X133.489Y-77.157
X133.489Y-79.062
X133.489Y-80.332
X133.489Y-81.602
X133.489Y-82.872
X133.489Y-84.142
X133.489Y-85.412
X133.489Y-86.682
X133.489Y-99.382
X133.489Y-100.652
X133.489Y-101.922
X133.489Y-103.827
X133.489Y-105.097
X133.489Y-106.367
X133.489Y-107.637
X133.489Y-108.907
X133.489Y-110.177
X133.489Y-111.447
X133.489Y-124.147
X133.489Y-125.417
X133.489Y-126.687
X133.489Y-128.592
X133.489Y-129.862
X133.489Y-131.132
X133.489Y-132.402
X133.489Y-133.672
X133.489Y-134.942
X133.489Y-136.212
X133.489Y-148.912
X133.489Y-150.182
X133.489Y-151.452
X133.489Y-153.357
X133.489Y-154.627
X133.489Y-155.897
X133.489Y-157.167
X133.489Y-158.437
X133.489Y-159.707
X133.489Y-160.977
X134.632Y-174.82
X134.632Y-176.09
X134.632Y-177.36
X134.632Y-179.265
X134.632Y-180.535
X134.632Y-181.805
X134.759Y-75.887
X134.759Y-77.157
X134.759Y-78.427
X134.759Y-80.332
X134.759Y-81.602
X134.759Y-82.872
X134.759Y-100.652
X134.759Y-101.922
X134.759Y-103.192
X134.759Y-105.097
X134.759Y-106.367
X134.759Y-107.637
X134.759Y-125.417
X134.759Y-126.687
X134.759Y-127.957
X134.759Y-129.862
X134.759Y-131.132
X134.759Y-132.402
X134.759Y-150.182
X134.759Y-151.452
X134.759Y-152.722
X134.759Y-154.627
X134.759Y-155.897
X134.759Y-157.167
X134.886Y-60.266
X134.886Y-61.282
X134.886Y-64.838
X134.886Y-65.854
X134.886Y-66.87
X135.267Y-173.55
X135.394Y-74.617
X135.394Y-99.382
X135.394Y-124.147
X135.394Y-148.912
X135.902Y-60.266
X135.902Y-61.282
X135.902Y-64.838
X135.902Y-65.854
X135.902Y-66.87
X135.902Y-174.82
X135.902Y-176.09
X135.902Y-177.36
X135.902Y-179.265
X135.902Y-180.535
X135.902Y-181.805
X136.029Y-75.887
X136.029Y-77.157
X136.029Y-78.427
X136.029Y-80.332
X136.029Y-81.602
X136.029Y-82.872
X136.029Y-100.652
X136.029Y-101.922
X136.029Y-103.192
X136.029Y-105.097
X136.029Y-106.367
X136.029Y-107.637
X136.029Y-125.417
X136.029Y-126.687
X136.029Y-127.957
X136.029Y-129.862
X136.029Y-131.132
X136.029Y-132.402
X136.029Y-150.182
X136.029Y-151.452
X136.029Y-152.722
X136.029Y-154.627
X136.029Y-155.897
X136.029Y-157.167
X136.918Y-60.266
X136.918Y-61.282
X136.918Y-64.838
X136.918Y-65.854
X136.918Y-66.87
X137.172Y-173.55
X137.172Y-174.82
X137.172Y-176.09
X137.172Y-177.36
X137.172Y-178.63
X137.172Y-179.9
X137.299Y-74.617
X137.299Y-75.887
X137.299Y-77.157
X137.299Y-78.427
X137.299Y-79.697
X137.299Y-80.967
X137.299Y-99.382
X137.299Y-100.652
X137.299Y-101.922
X137.299Y-103.192
X137.299Y-104.462
X137.299Y-105.732
X137.299Y-124.147
X137.299Y-125.417
X137.299Y-126.687
X137.299Y-127.957
X137.299Y-129.227
X137.299Y-130.497
X137.299Y-148.912
X137.299Y-150.182
X137.299Y-151.452
X137.299Y-152.722
X137.299Y-153.992
X137.299Y-155.262
X137.934Y-60.266
X137.934Y-61.282
X137.934Y-64.838
X137.934Y-65.854
X137.934Y-66.87
X138.442Y-173.55
X138.442Y-174.82
X138.442Y-176.09
X138.442Y-177.36
X138.442Y-179.265
X138.569Y-74.617
X138.569Y-75.887
X138.569Y-77.157
X138.569Y-78.427
X138.569Y-80.332
X138.569Y-99.382
X138.569Y-100.652
X138.569Y-101.922
X138.569Y-103.192
X138.569Y-105.097
X138.569Y-124.147
X138.569Y-125.417
X138.569Y-126.687
X138.569Y-127.957
X138.569Y-129.862
X138.569Y-148.912
X138.569Y-150.182
X138.569Y-151.452
X138.569Y-152.722
X138.569Y-154.627
X138.95Y-60.266
X138.95Y-61.282
X138.95Y-64.838
X138.95Y-65.854
X138.95Y-66.87
X139.712Y-173.55
X139.712Y-175.455
X139.712Y-177.36
X139.712Y-178.63
X139.839Y-74.617
X139.839Y-76.522
X139.839Y-78.427
X139.839Y-79.697
X139.839Y-99.382
X139.839Y-101.287
X139.839Y-103.192
X139.839Y-104.462
X139.839Y-124.147
X139.839Y-126.052
X139.839Y-127.957
X139.839Y-129.227
X139.839Y-148.912
X139.839Y-150.817
X139.839Y-152.722
X139.839Y-153.992
X140.982Y-173.55
X141.109Y-74.617
X141.109Y-99.382
X141.109Y-124.147
X141.109Y-148.912
X142.252Y-173.55
X142.379Y-74.617
X142.379Y-99.382
X142.379Y-124.147
X142.379Y-148.912
X154.063Y-76.141
X154.305Y-141.478
X154.305Y-162.052
X154.444Y-113.606
X155.46Y-119.702
X155.46Y-122.242
X155.46Y-190.822
X155.923Y-124.291
X156.222Y-117.924
X156.349Y-111.701
X156.73Y-120.464
X156.966Y-141.58
X157.492Y-125.798
X157.746Y-113.098
X157.746Y-116.908
X157.873Y-122.75
X157.873Y-136.974
X158.0Y-111.574
X158.0Y-120.464
X158.0Y-128.084
X158.0Y-129.862
X158.0Y-131.64
X158.0Y-133.418
X158.0Y-135.196
X158.0Y-138.752
X158.007Y-118.906
X158.779Y-139.842
X159.003Y-140.832
X159.27Y-193.489
X159.776Y-136.053
X160.325Y-194.513
X160.54Y-109.288
X160.555Y-139.802
X160.667Y-121.734
X161.306Y-194.929
X161.556Y-73.093
X161.556Y-138.752
X161.81Y-131.386
X162.687Y-97.536
X163.131Y-195.897
X163.486Y-105.39
X163.588Y-137.863
X163.842Y-72.966
X164.205Y-195.072
X164.223Y-113.733
X164.393Y-108.133
X164.477Y-137.863
X164.677Y-131.02
X164.8Y-140.547
X165.112Y-116.4
X165.199Y-117.249
X165.227Y-123.063
X165.3Y-74.521
X165.354Y-128.668
X165.493Y-77.919
X165.517Y-127.833
X165.737Y-124.888
X165.747Y-115.257
X165.874Y-135.831
X166.084Y-136.768
X166.255Y-140.53
X166.406Y-112.075
X166.554Y-96.231
X166.636Y-169.994
X167.056Y-115.132
X167.135Y-136.02
X167.254Y-112.119
X167.398Y-83.38
X167.731Y-127.501
X167.894Y-125.349
X167.906Y-75.887
X167.906Y-107.764
X168.284Y-115.565
X168.402Y-119.761
X168.414Y-140.784
X168.541Y-79.062
X168.64Y-136.656
X168.935Y-126.692
X169.287Y-115.374
X169.545Y-128.143
X169.557Y-136.974
X169.672Y-125.984
X169.922Y-171.698
X169.938Y-117.797
X170.18Y-173.736
X170.192Y-174.566
X170.192Y-175.582
X170.192Y-176.598
X170.192Y-177.614
X170.192Y-178.63
X170.446Y-161.494
X170.7Y-159.072
X170.942Y-173.736
X170.954Y-80.967
X170.954Y-174.566
X170.954Y-175.582
X170.954Y-176.598
X170.954Y-177.614
X170.954Y-178.63
X171.085Y-136.267
X171.55Y-142.728
X171.55Y-144.428
X171.595Y-115.127
X171.704Y-173.736
X171.716Y-141.292
X171.716Y-174.566
X171.716Y-175.582
X171.716Y-176.598
X171.716Y-177.614
X171.716Y-178.63
X171.935Y-137.239
X172.361Y-115.495
X172.478Y-108.78
X172.72Y-173.736
X172.732Y-174.566
X172.859Y-201.49
X172.978Y-134.331
X173.113Y-172.153
X173.367Y-111.574
X173.367Y-168.216
X173.45Y-116.766
X173.482Y-173.736
X173.494Y-174.566
X173.852Y-134.355
X174.412Y-116.363
X174.498Y-173.736
X174.51Y-69.274
X174.51Y-174.566
X174.764Y-115.384
X174.792Y-156.25
X175.018Y-159.834
X175.018Y-161.612
X175.234Y-116.363
X175.26Y-173.736
X175.272Y-69.918
X175.272Y-174.566
X175.338Y-110.845
X175.387Y-132.969
X175.558Y-202.14
X175.641Y-92.456
X175.768Y-76.327
X175.78Y-137.228
X175.907Y-194.632
X175.994Y-115.981
X176.034Y-111.269
X176.034Y-165.168
X176.034Y-170.248
X176.276Y-173.736
X176.288Y-174.566
X176.288Y-175.582
X176.288Y-176.598
X176.288Y-177.614
X176.288Y-178.63
X176.911Y-144.526
X177.038Y-173.736
X177.05Y-168.597
X177.05Y-174.566
X177.05Y-175.582
X177.05Y-176.598
X177.05Y-177.614
X177.05Y-178.63
X177.073Y-202.14
X177.08Y-112.067
X177.177Y-72.077
X177.304Y-141.546
X177.377Y-194.034
X177.558Y-143.07
X177.685Y-140.53
X177.8Y-173.736
X177.812Y-95.953
X177.812Y-174.566
X177.812Y-175.582
X177.812Y-176.598
X177.812Y-177.614
X177.812Y-178.63
X178.056Y-110.465
X178.066Y-134.04
X178.131Y-133.089
X178.149Y-132.205
X178.193Y-158.945
X178.412Y-115.875
X178.447Y-171.645
X178.515Y-129.333
X178.574Y-141.546
X178.684Y-112.336
X178.75Y-137.25
X178.955Y-157.929
X179.041Y-106.916
X179.07Y-130.81
X179.197Y-148.209
X179.59Y-70.934
X179.59Y-169.486
X180.07Y-149.733
X180.1Y-136.594
X180.399Y-210.38
X180.461Y-115.13
X180.848Y-110.617
X180.848Y-112.226
X180.86Y-136.974
X181.707Y-136.906
X181.864Y-115.57
X182.384Y-68.648
X182.863Y-111.825
X183.284Y-137.375
X183.4Y-67.632
X183.4Y-144.848
X183.578Y-112.192
X183.769Y-125.222
X184.289Y-115.765
X184.379Y-112.243
X184.697Y-137.012
X184.88Y-119.231
X184.924Y-149.801
X185.162Y-112.063
X185.674Y-136.906
X185.94Y-153.75
X186.309Y-115.316
X186.448Y-123.131
X186.702Y-120.21
X186.702Y-144.594
X186.866Y-135.54
X186.944Y-129.032
X187.198Y-99.441
X187.21Y-110.558
X187.21Y-124.02
X187.464Y-155.008
X187.718Y-83.888
X188.297Y-101.241
X188.575Y-144.594
X188.976Y-139.065
X189.186Y-96.405
X189.865Y-73.533
X189.877Y-71.602
X189.992Y-136.271
X189.992Y-161.29
X190.131Y-77.03
X190.141Y-79.56
X190.258Y-70.299
X190.258Y-82.11
X190.258Y-124.528
X190.258Y-144.594
X190.292Y-125.88
X190.335Y-126.729
X190.512Y-164.406
X190.893Y-188.536
X191.02Y-110.685
X191.752Y-114.129
X191.782Y-133.782
X191.8Y-136.046
X191.909Y-106.875
X191.948Y-124.44
X192.036Y-127.703
X192.29Y-116.4
X192.513Y-114.518
X192.666Y-188.453
X192.798Y-121.734
X192.925Y-83.761
X192.925Y-104.843
X193.052Y-113.479
X193.105Y-116.483
X193.433Y-105.986
X193.482Y-140.96
X193.56Y-190.314
X193.902Y-120.21
X193.946Y-115.494
X194.15Y-114.224
X194.195Y-111.775
X194.322Y-138.244
X194.426Y-121.241
X194.449Y-76.903
X194.522Y-135.25
X194.53Y-67.461
X194.576Y-123.512
X194.576Y-128.592
X194.576Y-130.536
X194.576Y-131.386
X194.686Y-132.402
X194.785Y-115.358
X194.83Y-134.18
X194.886Y-68.371
X194.933Y-114.555
X195.465Y-77.792
X195.517Y-67.338
X196.098Y-66.291
X202.015Y-120.904
X204.228Y-137.99
X204.228Y-162.755
X204.228Y-187.52
X204.355Y-88.46
X204.355Y-113.225
X205.498Y-137.99
X205.498Y-162.755
X205.498Y-187.52
X205.625Y-88.46
X205.625Y-113.225
X206.768Y-137.99
X206.768Y-162.755
X206.768Y-187.52
X206.895Y-88.46
X206.895Y-113.225
X208.038Y-137.99
X208.038Y-162.755
X208.038Y-187.52
X208.165Y-88.46
X208.165Y-113.225
X209.308Y-132.91
X209.308Y-134.18
X209.308Y-136.085
X209.308Y-137.99
X209.308Y-157.675
X209.308Y-158.945
X209.308Y-160.85
X209.308Y-162.755
X209.308Y-182.44
X209.308Y-183.71
X209.308Y-185.615
X209.308Y-187.52
X209.435Y-83.38
X209.435Y-84.65
X209.435Y-86.555
X209.435Y-88.46
X209.435Y-108.145
X209.435Y-109.415
X209.435Y-111.32
X209.435Y-113.225
X210.578Y-132.275
X210.578Y-134.18
X210.578Y-135.45
X210.578Y-136.72
X210.578Y-137.99
X210.578Y-157.04
X210.578Y-158.945
X210.578Y-160.215
X210.578Y-161.485
X210.578Y-162.755
X210.578Y-181.805
X210.578Y-183.71
X210.578Y-184.98
X210.578Y-186.25
X210.578Y-187.52
X210.705Y-82.745
X210.705Y-84.65
X210.705Y-85.92
X210.705Y-87.19
X210.705Y-88.46
X210.705Y-107.51
X210.705Y-109.415
X210.705Y-110.685
X210.705Y-111.955
X210.705Y-113.225
X211.086Y-61.282
X211.848Y-131.64
X211.848Y-132.91
X211.848Y-134.18
X211.848Y-135.45
X211.848Y-136.72
X211.848Y-137.99
X211.848Y-156.405
X211.848Y-157.675
X211.848Y-158.945
X211.848Y-160.215
X211.848Y-161.485
X211.848Y-162.755
X211.848Y-181.17
X211.848Y-182.44
X211.848Y-183.71
X211.848Y-184.98
X211.848Y-186.25
X211.848Y-187.52
X211.975Y-82.11
X211.975Y-83.38
X211.975Y-84.65
X211.975Y-85.92
X211.975Y-87.19
X211.975Y-88.46
X211.975Y-106.875
X211.975Y-108.145
X211.975Y-109.415
X211.975Y-110.685
X211.975Y-111.955
X211.975Y-113.225
X213.118Y-129.735
X213.118Y-131.005
X213.118Y-132.275
X213.118Y-134.18
X213.118Y-135.45
X213.118Y-136.72
X213.118Y-154.5
X213.118Y-155.77
X213.118Y-157.04
X213.118Y-158.945
X213.118Y-160.215
X213.118Y-161.485
X213.118Y-179.265
X213.118Y-180.535
X213.118Y-181.805
X213.118Y-183.71
X213.118Y-184.98
X213.118Y-186.25
X213.245Y-80.205
X213.245Y-81.475
X213.245Y-82.745
X213.245Y-84.65
X213.245Y-85.92
X213.245Y-87.19
X213.245Y-104.97
X213.245Y-106.24
X213.245Y-107.51
X213.245Y-109.415
X213.245Y-110.685
X213.245Y-111.955
X213.753Y-137.99
X213.753Y-162.755
X213.753Y-187.52
X213.88Y-88.46
X213.88Y-113.225
X214.388Y-129.735
X214.388Y-131.005
X214.388Y-132.275
X214.388Y-134.18
X214.388Y-135.45
X214.388Y-136.72
X214.388Y-154.5
X214.388Y-155.77
X214.388Y-157.04
X214.388Y-158.945
X214.388Y-160.215
X214.388Y-161.485
X214.388Y-179.265
X214.388Y-180.535
X214.388Y-181.805
X214.388Y-183.71
X214.388Y-184.98
X214.388Y-186.25
X214.515Y-80.205
X214.515Y-81.475
X214.515Y-82.745
X214.515Y-84.65
X214.515Y-85.92
X214.515Y-87.19
X214.515Y-104.97
X214.515Y-106.24
X214.515Y-107.51
X214.515Y-109.415
X214.515Y-110.685
X214.515Y-111.955
X215.658Y-125.925
X215.658Y-127.195
X215.658Y-128.465
X215.658Y-129.735
X215.658Y-131.005
X215.658Y-132.275
X215.658Y-133.545
X215.658Y-135.45
X215.658Y-136.72
X215.658Y-137.99
X215.658Y-150.69
X215.658Y-151.96
X215.658Y-153.23
X215.658Y-154.5
X215.658Y-155.77
X215.658Y-157.04
X215.658Y-158.31
X215.658Y-160.215
X215.658Y-161.485
X215.658Y-162.755
X215.658Y-175.455
X215.658Y-176.725
X215.658Y-177.995
X215.658Y-179.265
X215.658Y-180.535
X215.658Y-181.805
X215.658Y-183.075
X215.658Y-184.98
X215.658Y-186.25
X215.658Y-187.52
X215.785Y-76.395
X215.785Y-77.665
X215.785Y-78.935
X215.785Y-80.205
X215.785Y-81.475
X215.785Y-82.745
X215.785Y-84.015
X215.785Y-85.92
X215.785Y-87.19
X215.785Y-88.46
X215.785Y-101.16
X215.785Y-102.43
X215.785Y-103.7
X215.785Y-104.97
X215.785Y-106.24
X215.785Y-107.51
X215.785Y-108.78
X215.785Y-110.685
X215.785Y-111.955
X215.785Y-113.225
X216.293Y-124.655
X216.293Y-149.42
X216.293Y-174.185
X216.416Y-99.966
X216.437Y-75.317
X216.928Y-125.925
X216.928Y-127.195
X216.928Y-128.465
X216.928Y-129.735
X216.928Y-131.005
X216.928Y-132.275
X216.928Y-133.545
X216.928Y-135.45
X216.928Y-136.72
X216.928Y-137.99
X216.928Y-150.69
X216.928Y-151.96
X216.928Y-153.23
X216.928Y-154.5
X216.928Y-155.77
X216.928Y-157.04
X216.928Y-158.31
X216.928Y-160.215
X216.928Y-161.485
X216.928Y-162.755
X216.928Y-175.455
X216.928Y-176.725
X216.928Y-177.995
X216.928Y-179.265
X216.928Y-180.535
X216.928Y-181.805
X216.928Y-183.075
X216.928Y-184.98
X216.928Y-186.25
X216.928Y-187.52
X217.055Y-76.395
X217.055Y-77.665
X217.055Y-78.935
X217.055Y-80.205
X217.055Y-81.475
X217.055Y-82.745
X217.055Y-84.015
X217.055Y-85.92
X217.055Y-87.19
X217.055Y-88.46
X217.055Y-101.16
X217.055Y-102.43
X217.055Y-103.7
X217.055Y-104.97
X217.055Y-106.24
X217.055Y-107.51
X217.055Y-108.78
X217.055Y-110.685
X217.055Y-111.955
X217.055Y-113.225
X217.297Y-149.352
X217.563Y-124.655
X217.563Y-174.185
X217.69Y-75.125
X217.69Y-99.89
X217.84Y-136.552
X217.967Y-152.062
X218.0Y-125.888
X218.0Y-127.135
X218.0Y-128.405
X218.0Y-129.698
X218.0Y-131.005
X218.0Y-132.215
X218.0Y-133.545
X218.0Y-135.407
X218.0Y-137.953
X218.059Y-153.451
X218.059Y-155.194
X218.059Y-156.337
X218.059Y-157.734
X218.059Y-159.131
X218.059Y-160.274
X218.059Y-161.544
X218.084Y-162.829
X218.097Y-150.701
X218.198Y-175.455
X218.198Y-176.725
X218.198Y-177.995
X218.198Y-179.265
X218.198Y-180.535
X218.198Y-181.805
X218.198Y-183.075
X218.198Y-184.98
X218.198Y-186.25
X218.198Y-187.52
X218.325Y-76.395
X218.325Y-77.665
X218.325Y-78.935
X218.325Y-80.205
X218.325Y-81.475
X218.325Y-82.745
X218.325Y-84.015
X218.325Y-85.92
X218.325Y-87.19
X218.325Y-88.46
X218.325Y-101.16
X218.325Y-102.43
X218.325Y-103.7
X218.325Y-104.97
X218.325Y-106.24
X218.325Y-107.51
X218.325Y-108.78
X218.325Y-110.685
X218.325Y-111.955
X218.325Y-113.225
X218.506Y-95.113
X218.728Y-70.998
X218.728Y-91.953
X218.728Y-116.718
X218.728Y-120.527
X218.728Y-141.482
X218.728Y-144.001
X218.728Y-166.248
X218.728Y-170.058
X218.728Y-191.012
X218.833Y-174.185
X218.96Y-75.125
X218.96Y-99.89
X219.468Y-129.735
X219.468Y-131.005
X219.468Y-133.545
X219.468Y-135.45
X219.468Y-136.72
X219.468Y-175.455
X219.468Y-176.725
X219.468Y-177.995
X219.468Y-179.265
X219.468Y-180.535
X219.468Y-181.805
X219.468Y-183.075
X219.468Y-184.98
X219.468Y-186.25
X219.468Y-187.52
X219.52Y-128.45
X219.595Y-76.395
X219.595Y-77.665
X219.595Y-78.935
X219.595Y-80.205
X219.595Y-81.475
X219.595Y-82.745
X219.595Y-84.015
X219.595Y-85.92
X219.595Y-87.19
X219.595Y-88.46
X219.595Y-101.16
X219.595Y-102.43
X219.595Y-103.7
X219.595Y-104.97
X219.595Y-106.24
X219.595Y-107.51
X219.595Y-108.78
X219.595Y-110.685
X219.595Y-111.955
X219.595Y-113.225
X219.671Y-127.172
X219.671Y-132.252
X219.765Y-125.754
X219.782Y-137.876
X220.0Y-70.998
X220.0Y-95.762
X220.0Y-120.527
X220.0Y-145.292
X220.0Y-170.058
X220.103Y-124.655
X220.103Y-149.42
X220.103Y-174.185
X220.23Y-75.125
X220.23Y-99.89
X220.738Y-125.925
X220.738Y-127.195
X220.738Y-128.465
X220.738Y-129.735
X220.738Y-131.005
X220.738Y-132.275
X220.738Y-133.545
X220.738Y-135.45
X220.738Y-136.72
X220.738Y-137.99
X220.738Y-150.69
X220.738Y-151.96
X220.738Y-153.23
X220.738Y-154.5
X220.738Y-155.77
X220.738Y-157.04
X220.738Y-158.31
X220.738Y-160.215
X220.738Y-161.485
X220.738Y-162.755
X220.738Y-175.455
X220.738Y-176.725
X220.738Y-177.995
X220.738Y-179.265
X220.738Y-180.535
X220.738Y-181.805
X220.738Y-183.075
X220.738Y-184.98
X220.738Y-186.25
X220.738Y-187.52
X220.865Y-76.395
X220.865Y-77.665
X220.865Y-78.935
X220.865Y-80.205
X220.865Y-81.475
X220.865Y-82.745
X220.865Y-84.015
X220.865Y-85.92
X220.865Y-87.19
X220.865Y-88.46
X220.865Y-101.16
X220.865Y-102.43
X220.865Y-103.7
X220.865Y-104.97
X220.865Y-106.24
X220.865Y-107.51
X220.865Y-108.78
X220.865Y-110.685
X220.865Y-111.955
X220.865Y-113.225
X221.373Y-124.655
X221.373Y-149.42
X221.373Y-174.185
X221.5Y-75.125
X221.5Y-99.89
X222.008Y-125.925
X222.008Y-127.195
X222.008Y-128.465
X222.008Y-129.735
X222.008Y-131.005
X222.008Y-132.275
X222.008Y-133.545
X222.008Y-134.815
X222.008Y-136.085
X222.008Y-137.355
X222.008Y-138.625
X222.008Y-139.895
X222.008Y-141.165
X222.008Y-150.69
X222.008Y-151.96
X222.008Y-153.23
X222.008Y-154.5
X222.008Y-155.77
X222.008Y-157.04
X222.008Y-158.31
X222.008Y-159.58
X222.008Y-160.85
X222.008Y-162.12
X222.008Y-163.39
X222.008Y-164.66
X222.008Y-165.93
X222.008Y-175.455
X222.008Y-176.725
X222.008Y-177.995
X222.008Y-179.265
X222.008Y-180.535
X222.008Y-181.805
X222.008Y-183.075
X222.008Y-184.345
X222.008Y-185.615
X222.008Y-186.885
X222.008Y-188.155
X222.008Y-189.425
X222.008Y-190.695
X222.135Y-76.395
X222.135Y-77.665
X222.135Y-78.935
X222.135Y-80.205
X222.135Y-81.475
X222.135Y-82.745
X222.135Y-84.015
X222.135Y-85.285
X222.135Y-86.555
X222.135Y-87.825
X222.135Y-89.095
X222.135Y-90.365
X222.135Y-91.635
X222.135Y-101.16
X222.135Y-102.43
X222.135Y-103.7
X222.135Y-104.97
X222.135Y-106.24
X222.135Y-107.51
X222.135Y-108.78
X222.135Y-110.05
X222.135Y-111.32
X222.135Y-112.59
X222.135Y-113.86
X222.135Y-115.13
X222.135Y-116.4
X222.643Y-124.655
X222.643Y-149.42
X222.643Y-174.185
X222.77Y-75.125
X222.77Y-99.89
X223.278Y-125.925
X223.278Y-127.195
X223.278Y-128.465
X223.278Y-129.735
X223.278Y-131.005
X223.278Y-132.275
X223.278Y-133.545
X223.278Y-134.815
X223.278Y-136.085
X223.278Y-137.355
X223.278Y-138.625
X223.278Y-139.895
X223.278Y-141.165
X223.278Y-142.435
X223.278Y-150.69
X223.278Y-151.96
X223.278Y-153.23
X223.278Y-154.5
X223.278Y-155.77
X223.278Y-157.04
X223.278Y-158.31
X223.278Y-159.58
X223.278Y-160.85
X223.278Y-162.12
X223.278Y-163.39
X223.278Y-164.66
X223.278Y-165.93
X223.278Y-167.2
X223.278Y-175.455
X223.278Y-176.725
X223.278Y-177.995
X223.278Y-179.265
X223.278Y-180.535
X223.278Y-181.805
X223.278Y-183.075
X223.278Y-184.345
X223.278Y-185.615
X223.278Y-186.885
X223.278Y-188.155
X223.278Y-189.425
X223.278Y-190.695
X223.278Y-191.296
X223.405Y-76.395
X223.405Y-77.665
X223.405Y-78.935
X223.405Y-80.205
X223.405Y-81.475
X223.405Y-82.745
X223.405Y-84.015
X223.405Y-85.285
X223.405Y-86.555
X223.405Y-87.825
X223.405Y-89.095
X223.405Y-90.365
X223.405Y-91.635
X223.405Y-92.905
X223.405Y-101.16
X223.405Y-102.43
X223.405Y-103.7
X223.405Y-104.97
X223.405Y-106.24
X223.405Y-107.51
X223.405Y-108.78
X223.405Y-110.05
X223.405Y-111.32
X223.405Y-112.59
X223.405Y-113.86
X223.405Y-115.13
X223.405Y-116.4
X223.405Y-117.67
X223.913Y-124.655
X223.913Y-149.42
X223.913Y-174.185
X224.04Y-61.79
X224.04Y-64.076
X224.04Y-75.125
X224.04Y-99.89
X224.548Y-125.925
X224.548Y-127.195
X224.548Y-128.465
X224.548Y-129.735
X224.548Y-131.005
X224.548Y-132.275
X224.548Y-133.545
X224.548Y-134.815
X224.548Y-136.085
X224.548Y-137.355
X224.548Y-138.625
X224.548Y-139.895
X224.548Y-141.165
X224.548Y-142.435
X224.548Y-150.69
X224.548Y-151.96
X224.548Y-153.23
X224.548Y-154.5
X224.548Y-155.77
X224.548Y-157.04
X224.548Y-158.31
X224.548Y-159.58
X224.548Y-160.85
X224.548Y-162.12
X224.548Y-163.39
X224.548Y-164.66
X224.548Y-165.93
X224.548Y-167.2
X224.548Y-175.455
X224.548Y-176.725
X224.548Y-177.995
X224.548Y-179.265
X224.548Y-180.535
X224.548Y-181.805
X224.548Y-183.075
X224.548Y-184.345
X224.548Y-185.615
X224.548Y-186.885
X224.548Y-188.155
X224.548Y-189.425
X224.548Y-190.695
X224.548Y-191.296
X224.675Y-76.395
X224.675Y-77.665
X224.675Y-78.935
X224.675Y-80.205
X224.675Y-81.475
X224.675Y-82.745
X224.675Y-84.015
X224.675Y-85.285
X224.675Y-86.555
X224.675Y-87.825
X224.675Y-89.095
X224.675Y-90.365
X224.675Y-91.635
X224.675Y-92.905
X224.675Y-101.16
X224.675Y-102.43
X224.675Y-103.7
X224.675Y-104.97
X224.675Y-106.24
X224.675Y-107.51
X224.675Y-108.78
X224.675Y-110.05
X224.675Y-111.32
X224.675Y-112.59
X224.675Y-113.86
X224.675Y-115.13
X224.675Y-116.4
X224.675Y-117.67
X225.183Y-124.655
X225.183Y-149.42
X225.183Y-174.185
X225.31Y-75.125
X225.31Y-99.89
X225.818Y-125.925
X225.818Y-127.195
X225.818Y-128.465
X225.818Y-129.735
X225.818Y-131.005
X225.818Y-132.275
X225.818Y-133.545
X225.818Y-134.815
X225.818Y-136.085
X225.818Y-137.355
X225.818Y-138.625
X225.818Y-139.895
X225.818Y-141.165
X225.818Y-142.435
X225.818Y-150.69
X225.818Y-151.96
X225.818Y-153.23
X225.818Y-154.5
X225.818Y-155.77
X225.818Y-157.04
X225.818Y-158.31
X225.818Y-159.58
X225.818Y-160.85
X225.818Y-162.12
X225.818Y-163.39
X225.818Y-164.66
X225.818Y-165.93
X225.818Y-167.2
X225.818Y-175.455
X225.818Y-176.725
X225.818Y-177.995
X225.818Y-179.265
X225.818Y-180.535
X225.818Y-181.805
X225.818Y-183.075
X225.818Y-184.345
X225.818Y-185.615
X225.818Y-186.885
X225.818Y-188.155
X225.818Y-189.425
X225.818Y-190.695
X225.818Y-191.296
X225.945Y-76.395
X225.945Y-77.665
X225.945Y-78.935
X225.945Y-80.205
X225.945Y-81.475
X225.945Y-82.745
X225.945Y-84.015
X225.945Y-85.285
X225.945Y-86.555
X225.945Y-87.825
X225.945Y-89.095
X225.945Y-90.365
X225.945Y-91.635
X225.945Y-92.905
X225.945Y-101.16
X225.945Y-102.43
X225.945Y-103.7
X225.945Y-104.97
X225.945Y-106.24
X225.945Y-107.51
X225.945Y-108.78
X225.945Y-110.05
X225.945Y-111.32
X225.945Y-112.59
X225.945Y-113.86
X225.945Y-115.13
X225.945Y-116.4
X225.945Y-117.67
X227.088Y-125.925
X227.088Y-127.195
X227.088Y-128.465
X227.088Y-129.735
X227.088Y-131.005
X227.088Y-132.275
X227.088Y-133.545
X227.088Y-134.815
X227.088Y-136.085
X227.088Y-137.355
X227.088Y-138.625
X227.088Y-139.895
X227.088Y-141.165
X227.088Y-142.435
X227.088Y-150.69
X227.088Y-151.96
X227.088Y-153.23
X227.088Y-154.5
X227.088Y-155.77
X227.088Y-157.04
X227.088Y-158.31
X227.088Y-159.58
X227.088Y-160.85
X227.088Y-162.12
X227.088Y-163.39
X227.088Y-164.66
X227.088Y-165.93
X227.088Y-167.2
X227.088Y-175.455
X227.088Y-176.725
X227.088Y-177.995
X227.088Y-179.265
X227.088Y-180.535
X227.088Y-181.805
X227.088Y-183.075
X227.088Y-184.345
X227.088Y-185.615
X227.088Y-186.885
X227.088Y-188.155
X227.088Y-189.425
X227.088Y-190.695
X227.088Y-191.296
X227.215Y-76.395
X227.215Y-77.665
X227.215Y-78.935
X227.215Y-80.205
X227.215Y-81.475
X227.215Y-82.745
X227.215Y-84.015
X227.215Y-85.285
X227.215Y-86.555
X227.215Y-87.825
X227.215Y-89.095
X227.215Y-90.365
X227.215Y-91.635
X227.215Y-92.905
X227.215Y-101.16
X227.215Y-102.43
X227.215Y-103.7
X227.215Y-104.97
X227.215Y-106.24
X227.215Y-107.51
X227.215Y-108.78
X227.215Y-110.05
X227.215Y-111.32
X227.215Y-112.59
X227.215Y-113.86
X227.215Y-115.13
X227.215Y-116.4
X227.215Y-117.67
X238.391Y-191.838
X246.9Y-188.79
X248.805Y-196.918
X248.805Y-198.696
X249.059Y-187.647
X249.186Y-200.474
X249.186Y-202.252
X249.186Y-204.03
X249.186Y-205.808
X249.186Y-207.586
X249.186Y-209.364
T2
X164.604Y-142.308
X165.761Y-143.812
X167.519Y-151.96
X167.519Y-153.738
X167.906Y-209.618
X167.91Y-147.67
X168.668Y-206.824
X168.728Y-149.098
X171.462Y-209.618
X174.002Y-214.952
X176.784Y-210.38
X177.038Y-136.906
X177.762Y-115.048
X177.8Y-137.16
X177.812Y-215.206
X178.308Y-156.25
T3
X180.86Y-108.78
X186.194Y-107.51
T4
X158.032Y-73.44
X158.032Y-75.44
X158.032Y-93.44
X158.032Y-95.98
X158.032Y-98.52
X158.032Y-101.06
X170.917Y-85.04
X170.917Y-87.581
X170.917Y-90.12
X170.917Y-92.66
T5
X180.987Y-126.306
X181.241Y-120.337
X181.241Y-123.258
X182.892Y-130.243
X183.654Y-127.449
T6
X161.786Y-192.21
X161.786Y-198.71
X166.286Y-192.21
X166.286Y-198.71
X171.996Y-205.11
X174.536Y-205.11
X177.076Y-205.11
X184.186Y-192.96
X184.186Y-195.46
X184.186Y-197.96
T7
X151.51Y-61.96
X151.51Y-64.5
X153.682Y-117.162
X153.682Y-119.702
X153.682Y-122.242
X153.682Y-124.782
X153.682Y-127.322
X153.682Y-129.862
X153.682Y-132.402
X154.05Y-61.96
X154.05Y-64.5
X156.59Y-61.96
X156.59Y-64.5
X157.746Y-173.612
X159.13Y-61.96
X159.13Y-64.5
X160.286Y-173.612
X161.67Y-61.96
X161.67Y-64.5
X162.826Y-173.612
X164.21Y-61.96
X164.21Y-64.5
X164.35Y-96.08
X164.35Y-98.62
X164.35Y-101.16
X166.75Y-61.96
X166.75Y-64.5
X169.29Y-61.96
X169.29Y-64.5
X171.83Y-61.96
X171.83Y-64.5
X174.37Y-61.96
X174.37Y-64.5
X176.91Y-61.96
X176.91Y-64.5
X179.45Y-61.96
X179.45Y-64.5
X180.606Y-78.3
X180.606Y-80.84
X180.606Y-83.38
X181.99Y-61.96
X181.99Y-64.5
X184.53Y-61.96
X184.53Y-64.5
X184.67Y-173.296
X187.07Y-61.96
X187.07Y-64.5
X187.21Y-173.296
X189.61Y-61.96
X189.61Y-64.5
X189.75Y-173.296
X192.15Y-61.96
X192.15Y-64.5
X194.69Y-61.96
X194.69Y-64.5
X197.23Y-61.96
X197.23Y-64.5
X199.77Y-61.96
X199.77Y-64.5
T8
X106.5Y-198.15
X106.5Y-213.15
X111.5Y-198.15
X111.5Y-213.15
X116.5Y-198.15
X116.5Y-213.15
X121.5Y-198.15
X121.5Y-213.15
X126.5Y-198.15
X126.5Y-213.15
X131.5Y-198.15
X131.5Y-213.15
X136.5Y-198.15
X136.5Y-213.15
X141.5Y-198.15
X141.5Y-213.15
X146.5Y-198.15
X146.5Y-213.15
X151.5Y-198.15
X151.5Y-213.15
X197.0Y-198.15
X197.0Y-213.15
X202.0Y-198.15
X202.0Y-213.15
X207.0Y-198.15
X207.0Y-213.15
X212.0Y-198.15
X212.0Y-213.15
X217.0Y-198.15
X217.0Y-213.15
X222.0Y-198.15
X222.0Y-213.15
X227.0Y-198.15
X227.0Y-213.15
X232.0Y-198.15
X232.0Y-213.15
X237.0Y-198.15
X237.0Y-213.15
X242.0Y-198.15
X242.0Y-213.15
T9
X214.007Y-63.568
X216.547Y-63.568
X219.087Y-63.568
X221.627Y-63.568
X231.406Y-63.568
X233.946Y-63.568
X236.486Y-63.568
X239.026Y-63.568
X243.598Y-63.568
X246.138Y-63.568
X248.678Y-63.568
X251.218Y-63.568
T10
X104.5Y-78.935
X104.5Y-84.015
X104.5Y-103.7
X104.5Y-108.78
X104.5Y-128.465
X104.5Y-133.545
X104.5Y-153.23
X104.5Y-158.31
X104.5Y-177.995
X104.5Y-183.075
X159.27Y-210.0
X164.35Y-210.0
X167.886Y-187.71
X167.886Y-203.21
X181.186Y-187.71
X181.186Y-203.21
X184.67Y-210.0
X189.75Y-210.0
X244.5Y-79.46
X244.5Y-84.54
X244.5Y-103.7
X244.5Y-108.78
X244.5Y-128.465
X244.5Y-133.545
X244.5Y-153.23
X244.5Y-158.31
X244.5Y-177.995
X244.5Y-183.075
M30
