%TF.GenerationSoftware,KiCad,Pcbnew,9.0.7*%
%TF.CreationDate,2026-02-28T17:46:55-04:00*%
%TF.ProjectId,RC-KAKATA-CONTROL,52432d4b-414b-4415-9441-2d434f4e5452,1.0*%
%TF.SameCoordinates,Original*%
%TF.FileFunction,Paste,Top*%
%TF.FilePolarity,Positive*%
%FSLAX46Y46*%
G04 Gerber Fmt 4.6, Leading zero omitted, Abs format (unit mm)*
G04 Created by KiCad (PCBNEW 9.0.7) date 2026-02-28 17:46:55*
%MOMM*%
%LPD*%
G01*
G04 APERTURE LIST*
G04 Aperture macros list*
%AMRoundRect*
0 Rectangle with rounded corners*
0 $1 Rounding radius*
0 $2 $3 $4 $5 $6 $7 $8 $9 X,Y pos of 4 corners*
0 Add a 4 corners polygon primitive as box body*
4,1,4,$2,$3,$4,$5,$6,$7,$8,$9,$2,$3,0*
0 Add four circle primitives for the rounded corners*
1,1,$1+$1,$2,$3*
1,1,$1+$1,$4,$5*
1,1,$1+$1,$6,$7*
1,1,$1+$1,$8,$9*
0 Add four rect primitives between the rounded corners*
20,1,$1+$1,$2,$3,$4,$5,0*
20,1,$1+$1,$4,$5,$6,$7,0*
20,1,$1+$1,$6,$7,$8,$9,0*
20,1,$1+$1,$8,$9,$2,$3,0*%
G04 Aperture macros list end*
%ADD10O,0.800000X0.280000*%
%ADD11O,0.280000X0.800000*%
%ADD12R,2.700000X2.700000*%
%ADD13RoundRect,0.225000X-0.225000X-0.250000X0.225000X-0.250000X0.225000X0.250000X-0.225000X0.250000X0*%
%ADD14RoundRect,0.225000X0.225000X0.250000X-0.225000X0.250000X-0.225000X-0.250000X0.225000X-0.250000X0*%
%ADD15R,1.000000X1.000000*%
%ADD16RoundRect,0.152400X0.355600X1.371600X-0.355600X1.371600X-0.355600X-1.371600X0.355600X-1.371600X0*%
%ADD17RoundRect,0.152400X1.371600X-0.355600X1.371600X0.355600X-1.371600X0.355600X-1.371600X-0.355600X0*%
%ADD18O,0.280000X1.800000*%
%ADD19O,1.800000X0.280000*%
%ADD20RoundRect,0.270000X-0.290000X-0.270000X0.290000X-0.270000X0.290000X0.270000X-0.290000X0.270000X0*%
%ADD21RoundRect,0.250000X1.000000X-1.400000X1.000000X1.400000X-1.000000X1.400000X-1.000000X-1.400000X0*%
%ADD22RoundRect,0.112500X0.112500X-0.187500X0.112500X0.187500X-0.112500X0.187500X-0.112500X-0.187500X0*%
%ADD23RoundRect,0.250000X-1.500000X-0.550000X1.500000X-0.550000X1.500000X0.550000X-1.500000X0.550000X0*%
%ADD24RoundRect,0.250000X-0.300000X0.300000X-0.300000X-0.300000X0.300000X-0.300000X0.300000X0.300000X0*%
%ADD25RoundRect,0.250000X-0.300000X-0.300000X0.300000X-0.300000X0.300000X0.300000X-0.300000X0.300000X0*%
%ADD26R,1.360000X1.230000*%
%ADD27RoundRect,0.218750X0.218750X0.256250X-0.218750X0.256250X-0.218750X-0.256250X0.218750X-0.256250X0*%
%ADD28RoundRect,0.152400X-0.355600X-1.371600X0.355600X-1.371600X0.355600X1.371600X-0.355600X1.371600X0*%
%ADD29RoundRect,0.152400X-1.371600X0.355600X-1.371600X-0.355600X1.371600X-0.355600X1.371600X0.355600X0*%
%ADD30RoundRect,0.250000X1.000000X-1.750000X1.000000X1.750000X-1.000000X1.750000X-1.000000X-1.750000X0*%
%ADD31R,1.300000X0.900000*%
%ADD32RoundRect,0.112500X-0.187500X-0.112500X0.187500X-0.112500X0.187500X0.112500X-0.187500X0.112500X0*%
%ADD33RoundRect,0.250000X0.450000X0.350000X-0.450000X0.350000X-0.450000X-0.350000X0.450000X-0.350000X0*%
%ADD34RoundRect,0.225000X0.250000X-0.225000X0.250000X0.225000X-0.250000X0.225000X-0.250000X-0.225000X0*%
%ADD35RoundRect,0.250000X0.550000X-1.500000X0.550000X1.500000X-0.550000X1.500000X-0.550000X-1.500000X0*%
%ADD36R,1.230000X1.360000*%
%ADD37RoundRect,0.250000X1.500000X0.550000X-1.500000X0.550000X-1.500000X-0.550000X1.500000X-0.550000X0*%
%ADD38O,2.250000X0.630000*%
%ADD39RoundRect,0.250000X-1.000000X1.400000X-1.000000X-1.400000X1.000000X-1.400000X1.000000X1.400000X0*%
G04 APERTURE END LIST*
D10*
%TO.C,U5*%
X171367000Y-166956000D03*
X171367000Y-167456000D03*
X171367000Y-167956000D03*
X171367000Y-168456000D03*
X171367000Y-168956000D03*
X171367000Y-169456000D03*
D11*
X172117000Y-170206000D03*
X172617000Y-170206000D03*
X173117000Y-170206000D03*
X173617000Y-170206000D03*
X174117000Y-170206000D03*
X174617000Y-170206000D03*
D10*
X175367000Y-169456000D03*
X175367000Y-168956000D03*
X175367000Y-168456000D03*
X175367000Y-167956000D03*
X175367000Y-167456000D03*
X175367000Y-166966000D03*
D11*
X174617000Y-166206000D03*
X174117000Y-166206000D03*
X173617000Y-166206000D03*
X173117000Y-166206000D03*
X172617000Y-166206000D03*
X172117000Y-166206000D03*
D12*
X173367000Y-168216000D03*
%TD*%
D13*
%TO.C,C57*%
X174497000Y-164279000D03*
X176047000Y-164279000D03*
%TD*%
%TO.C,C56*%
X177037000Y-169486000D03*
X178587000Y-169486000D03*
%TD*%
%TO.C,C55*%
X175894000Y-171645000D03*
X177444000Y-171645000D03*
%TD*%
D14*
%TO.C,C15*%
X172364000Y-171645000D03*
X170814000Y-171645000D03*
%TD*%
D15*
%TO.C,C24*%
X169684000Y-110646000D03*
X169684000Y-108946000D03*
%TD*%
%TO.C,C29*%
X246216000Y-204030000D03*
X247916000Y-204030000D03*
%TD*%
D16*
%TO.C,RC-VNH70-V10*%
X232444000Y-145292500D03*
X231174000Y-145292500D03*
X229904000Y-145292500D03*
X228634000Y-145292500D03*
X220000000Y-145292500D03*
X218728000Y-145292500D03*
X217458000Y-145292500D03*
X216188000Y-145292500D03*
D17*
X204033000Y-151370500D03*
X204033000Y-152640500D03*
X204033000Y-153910500D03*
X204033000Y-155180500D03*
X204033000Y-156849500D03*
X204033000Y-158119500D03*
X204033000Y-159389500D03*
X204033000Y-160659500D03*
D16*
X216188000Y-166247500D03*
X217458000Y-166247500D03*
X218728000Y-166247500D03*
X219998000Y-166247500D03*
X228634000Y-166247500D03*
X229904000Y-166247500D03*
X231174000Y-166247500D03*
X232444000Y-166247500D03*
D17*
X236000000Y-160913500D03*
X236000000Y-159643500D03*
X236000000Y-158373500D03*
X236000000Y-157103500D03*
X236000000Y-154817500D03*
X236000000Y-153547500D03*
X236000000Y-152277500D03*
X236000000Y-151007500D03*
%TD*%
D15*
%TO.C,R37*%
X252322000Y-196918000D03*
X250622000Y-196918000D03*
%TD*%
D18*
%TO.C,U3*%
X165284000Y-138840000D03*
X165784000Y-138840000D03*
X166284000Y-138840000D03*
X166784000Y-138840000D03*
X167284000Y-138840000D03*
X167784000Y-138840000D03*
X168284000Y-138840000D03*
X168784000Y-138840000D03*
X169284000Y-138840000D03*
X169784000Y-138840000D03*
X170284000Y-138840000D03*
X170784000Y-138840000D03*
X171284000Y-138840000D03*
X171784000Y-138840000D03*
X172284000Y-138840000D03*
X172784000Y-138840000D03*
X173284000Y-138840000D03*
X173784000Y-138840000D03*
X174284000Y-138840000D03*
X174784000Y-138840000D03*
X175284000Y-138840000D03*
X175784000Y-138840000D03*
X176284000Y-138840000D03*
X176784000Y-138840000D03*
X177284000Y-138840000D03*
X177784000Y-138840000D03*
X178284000Y-138840000D03*
X178784000Y-138840000D03*
X179284000Y-138840000D03*
X179784000Y-138840000D03*
X180284000Y-138840000D03*
X180784000Y-138840000D03*
X181284000Y-138840000D03*
X181784000Y-138840000D03*
X182284000Y-138840000D03*
X182784000Y-138840000D03*
X183284000Y-138840000D03*
X183784000Y-138840000D03*
X184284000Y-138840000D03*
X184784000Y-138840000D03*
X185284000Y-138840000D03*
X185784000Y-138840000D03*
X186284000Y-138840000D03*
X186784000Y-138840000D03*
D19*
X188584000Y-137040000D03*
X188584000Y-136540000D03*
X188584000Y-136040000D03*
X188584000Y-135540000D03*
X188584000Y-135040000D03*
X188584000Y-134540000D03*
X188584000Y-134040000D03*
X188584000Y-133540000D03*
X188584000Y-133040000D03*
X188584000Y-132540000D03*
X188584000Y-132040000D03*
X188584000Y-131540000D03*
X188584000Y-131040000D03*
X188584000Y-130540000D03*
X188584000Y-130040000D03*
X188584000Y-129540000D03*
X188584000Y-129040000D03*
X188584000Y-128540000D03*
X188584000Y-128040000D03*
X188584000Y-127540000D03*
X188584000Y-127040000D03*
X188584000Y-126540000D03*
X188584000Y-126040000D03*
X188584000Y-125540000D03*
X188584000Y-125040000D03*
X188584000Y-124540000D03*
X188584000Y-124040000D03*
X188584000Y-123540000D03*
X188584000Y-123040000D03*
X188584000Y-122540000D03*
X188584000Y-122040000D03*
X188584000Y-121540000D03*
X188584000Y-121040000D03*
X188584000Y-120540000D03*
X188584000Y-120040000D03*
X188584000Y-119540000D03*
X188584000Y-119040000D03*
X188584000Y-118540000D03*
X188584000Y-118040000D03*
X188584000Y-117540000D03*
X188584000Y-117040000D03*
X188584000Y-116540000D03*
X188584000Y-116040000D03*
X188584000Y-115540000D03*
D18*
X186784000Y-113740000D03*
X186284000Y-113740000D03*
X185784000Y-113740000D03*
X185284000Y-113740000D03*
X184784000Y-113740000D03*
X184284000Y-113740000D03*
X183784000Y-113740000D03*
X183284000Y-113740000D03*
X182784000Y-113740000D03*
X182284000Y-113740000D03*
X181784000Y-113740000D03*
X181284000Y-113740000D03*
X180784000Y-113740000D03*
X180284000Y-113740000D03*
X179784000Y-113740000D03*
X179284000Y-113740000D03*
X178784000Y-113740000D03*
X178284000Y-113740000D03*
X177784000Y-113740000D03*
X177284000Y-113740000D03*
X176784000Y-113740000D03*
X176284000Y-113740000D03*
X175784000Y-113740000D03*
X175284000Y-113740000D03*
X174784000Y-113740000D03*
X174284000Y-113740000D03*
X173784000Y-113740000D03*
X173284000Y-113740000D03*
X172784000Y-113740000D03*
X172284000Y-113740000D03*
X171784000Y-113740000D03*
X171284000Y-113740000D03*
X170784000Y-113740000D03*
X170284000Y-113740000D03*
X169784000Y-113740000D03*
X169284000Y-113740000D03*
X168784000Y-113740000D03*
X168284000Y-113740000D03*
X167784000Y-113740000D03*
X167284000Y-113740000D03*
X166784000Y-113740000D03*
X166284000Y-113740000D03*
X165784000Y-113740000D03*
X165284000Y-113740000D03*
D19*
X163484000Y-115540000D03*
X163484000Y-116040000D03*
X163484000Y-116540000D03*
X163484000Y-117040000D03*
X163484000Y-117540000D03*
X163484000Y-118040000D03*
X163484000Y-118540000D03*
X163484000Y-119040000D03*
X163484000Y-119540000D03*
X163484000Y-120040000D03*
X163484000Y-120540000D03*
X163484000Y-121040000D03*
X163484000Y-121540000D03*
X163484000Y-122040000D03*
X163484000Y-122540000D03*
X163484000Y-123040000D03*
X163484000Y-123540000D03*
X163484000Y-124040000D03*
X163484000Y-124540000D03*
X163484000Y-125040000D03*
X163484000Y-125540000D03*
X163484000Y-126040000D03*
X163484000Y-126540000D03*
X163484000Y-127040000D03*
X163484000Y-127540000D03*
X163484000Y-128040000D03*
X163484000Y-128540000D03*
X163484000Y-129040000D03*
X163484000Y-129540000D03*
X163484000Y-130040000D03*
X163484000Y-130540000D03*
X163484000Y-131040000D03*
X163484000Y-131540000D03*
X163484000Y-132040000D03*
X163484000Y-132540000D03*
X163484000Y-133040000D03*
X163484000Y-133540000D03*
X163484000Y-134040000D03*
X163484000Y-134540000D03*
X163484000Y-135040000D03*
X163484000Y-135540000D03*
X163484000Y-136040000D03*
X163484000Y-136540000D03*
X163484000Y-137040000D03*
%TD*%
D15*
%TO.C,R29*%
X252322000Y-195140000D03*
X250622000Y-195140000D03*
%TD*%
%TO.C,C18*%
X181368000Y-141966000D03*
X181368000Y-143666000D03*
%TD*%
D16*
%TO.C,RC-VNH70-V4*%
X232444000Y-170057500D03*
X231174000Y-170057500D03*
X229904000Y-170057500D03*
X228634000Y-170057500D03*
X220000000Y-170057500D03*
X218728000Y-170057500D03*
X217458000Y-170057500D03*
X216188000Y-170057500D03*
D17*
X204033000Y-176135500D03*
X204033000Y-177405500D03*
X204033000Y-178675500D03*
X204033000Y-179945500D03*
X204033000Y-181614500D03*
X204033000Y-182884500D03*
X204033000Y-184154500D03*
X204033000Y-185424500D03*
D16*
X216188000Y-191012500D03*
X217458000Y-191012500D03*
X218728000Y-191012500D03*
X219998000Y-191012500D03*
X228634000Y-191012500D03*
X229904000Y-191012500D03*
X231174000Y-191012500D03*
X232444000Y-191012500D03*
D17*
X236000000Y-185678500D03*
X236000000Y-184408500D03*
X236000000Y-183138500D03*
X236000000Y-181868500D03*
X236000000Y-179582500D03*
X236000000Y-178312500D03*
X236000000Y-177042500D03*
X236000000Y-175772500D03*
%TD*%
D20*
%TO.C,D5*%
X188798000Y-162374000D03*
X185553000Y-162374000D03*
%TD*%
D21*
%TO.C,D1*%
X188636000Y-183710000D03*
X195436000Y-183710000D03*
%TD*%
D15*
%TO.C,R32*%
X252322000Y-205808000D03*
X250622000Y-205808000D03*
%TD*%
%TO.C,C21*%
X183146000Y-141966000D03*
X183146000Y-143666000D03*
%TD*%
D16*
%TO.C,RC-VNH70-V8*%
X232444000Y-95762500D03*
X231174000Y-95762500D03*
X229904000Y-95762500D03*
X228634000Y-95762500D03*
X220000000Y-95762500D03*
X218728000Y-95762500D03*
X217458000Y-95762500D03*
X216188000Y-95762500D03*
D17*
X204033000Y-101840500D03*
X204033000Y-103110500D03*
X204033000Y-104380500D03*
X204033000Y-105650500D03*
X204033000Y-107319500D03*
X204033000Y-108589500D03*
X204033000Y-109859500D03*
X204033000Y-111129500D03*
D16*
X216188000Y-116717500D03*
X217458000Y-116717500D03*
X218728000Y-116717500D03*
X219998000Y-116717500D03*
X228634000Y-116717500D03*
X229904000Y-116717500D03*
X231174000Y-116717500D03*
X232444000Y-116717500D03*
D17*
X236000000Y-111383500D03*
X236000000Y-110113500D03*
X236000000Y-108843500D03*
X236000000Y-107573500D03*
X236000000Y-105287500D03*
X236000000Y-104017500D03*
X236000000Y-102747500D03*
X236000000Y-101477500D03*
%TD*%
D15*
%TO.C,R31*%
X252322000Y-207586000D03*
X250622000Y-207586000D03*
%TD*%
%TO.C,R36*%
X252322000Y-198696000D03*
X250622000Y-198696000D03*
%TD*%
D22*
%TO.C,D15*%
X113804000Y-64364000D03*
X113804000Y-62264000D03*
%TD*%
D15*
%TO.C,R55*%
X191147000Y-82110000D03*
X192847000Y-82110000D03*
%TD*%
%TO.C,R33*%
X252322000Y-204030000D03*
X250622000Y-204030000D03*
%TD*%
D23*
%TO.C,C47*%
X156712000Y-167962000D03*
X162312000Y-167962000D03*
%TD*%
D15*
%TO.C,R18*%
X208192000Y-64584000D03*
X209892000Y-64584000D03*
%TD*%
%TO.C,C12*%
X160628000Y-138752000D03*
X158928000Y-138752000D03*
%TD*%
%TO.C,C30*%
X246216000Y-205808000D03*
X247916000Y-205808000D03*
%TD*%
D24*
%TO.C,D4*%
X164604000Y-180532000D03*
X164604000Y-183332000D03*
%TD*%
D25*
%TO.C,D2*%
X158366000Y-162374000D03*
X161166000Y-162374000D03*
%TD*%
D15*
%TO.C,R45*%
X160626000Y-135196000D03*
X158926000Y-135196000D03*
%TD*%
%TO.C,R40*%
X166128000Y-105390000D03*
X166128000Y-107090000D03*
%TD*%
D26*
%TO.C,SW4*%
X98564000Y-65494000D03*
X98564000Y-61134000D03*
%TD*%
%TO.C,SW1*%
X104660000Y-65494000D03*
X104660000Y-61134000D03*
%TD*%
D15*
%TO.C,R46*%
X170280000Y-153738000D03*
X168580000Y-153738000D03*
%TD*%
%TO.C,C14*%
X186194000Y-110392000D03*
X186194000Y-108692000D03*
%TD*%
D27*
%TO.C,LED2*%
X188239500Y-159766000D03*
X186664500Y-159766000D03*
%TD*%
D15*
%TO.C,C35*%
X160626000Y-115130000D03*
X158926000Y-115130000D03*
%TD*%
%TO.C,R13*%
X165366000Y-91088000D03*
X165366000Y-89388000D03*
%TD*%
%TO.C,C1*%
X191694000Y-135250000D03*
X193394000Y-135250000D03*
%TD*%
D28*
%TO.C,RC-VNH70-V6*%
X116556000Y-141482500D03*
X117826000Y-141482500D03*
X119096000Y-141482500D03*
X120366000Y-141482500D03*
X129000000Y-141482500D03*
X130272000Y-141482500D03*
X131542000Y-141482500D03*
X132812000Y-141482500D03*
D29*
X144967000Y-135404500D03*
X144967000Y-134134500D03*
X144967000Y-132864500D03*
X144967000Y-131594500D03*
X144967000Y-129925500D03*
X144967000Y-128655500D03*
X144967000Y-127385500D03*
X144967000Y-126115500D03*
D28*
X132812000Y-120527500D03*
X131542000Y-120527500D03*
X130272000Y-120527500D03*
X129002000Y-120527500D03*
X120366000Y-120527500D03*
X119096000Y-120527500D03*
X117826000Y-120527500D03*
X116556000Y-120527500D03*
D29*
X113000000Y-125861500D03*
X113000000Y-127131500D03*
X113000000Y-128401500D03*
X113000000Y-129671500D03*
X113000000Y-131957500D03*
X113000000Y-133227500D03*
X113000000Y-134497500D03*
X113000000Y-135767500D03*
%TD*%
D22*
%TO.C,D13*%
X107708000Y-64364000D03*
X107708000Y-62264000D03*
%TD*%
D15*
%TO.C,R11*%
X156210000Y-162394000D03*
X156210000Y-160694000D03*
%TD*%
%TO.C,R52*%
X158928000Y-131640000D03*
X160628000Y-131640000D03*
%TD*%
%TO.C,C4*%
X172478000Y-142728000D03*
X172478000Y-144428000D03*
%TD*%
D30*
%TO.C,C23*%
X174002000Y-183458000D03*
X174002000Y-177358000D03*
%TD*%
D15*
%TO.C,R9*%
X168922000Y-214356000D03*
X168922000Y-216056000D03*
%TD*%
%TO.C,R12*%
X183388000Y-162140000D03*
X183388000Y-160440000D03*
%TD*%
%TO.C,R5*%
X168834000Y-211396000D03*
X170534000Y-211396000D03*
%TD*%
%TO.C,C26*%
X191782000Y-140022000D03*
X193482000Y-140022000D03*
%TD*%
%TO.C,C11*%
X160626000Y-116908000D03*
X158926000Y-116908000D03*
%TD*%
D31*
%TO.C,X2*%
X163362000Y-145074000D03*
X163362000Y-150774000D03*
X166362000Y-150774000D03*
X166362000Y-145074000D03*
%TD*%
D15*
%TO.C,R49*%
X184890000Y-153750000D03*
X183190000Y-153750000D03*
%TD*%
%TO.C,C7*%
X179844000Y-110642000D03*
X179844000Y-108942000D03*
%TD*%
%TO.C,R6*%
X168834000Y-209618000D03*
X170534000Y-209618000D03*
%TD*%
%TO.C,C51*%
X246216000Y-196918000D03*
X247916000Y-196918000D03*
%TD*%
%TO.C,R3*%
X171566000Y-159799000D03*
X171566000Y-161499000D03*
%TD*%
%TO.C,C19*%
X192202000Y-119194000D03*
X193902000Y-119194000D03*
%TD*%
%TO.C,C33*%
X166128000Y-110646000D03*
X166128000Y-108946000D03*
%TD*%
D32*
%TO.C,D17*%
X128502000Y-66362000D03*
X130602000Y-66362000D03*
%TD*%
D15*
%TO.C,C5*%
X160626000Y-122750000D03*
X158926000Y-122750000D03*
%TD*%
D33*
%TO.C,X1*%
X179140000Y-145522000D03*
X176940000Y-145522000D03*
X176940000Y-147222000D03*
X179140000Y-147222000D03*
%TD*%
D28*
%TO.C,RC-VNH70-V1*%
X116556000Y-91952500D03*
X117826000Y-91952500D03*
X119096000Y-91952500D03*
X120366000Y-91952500D03*
X129000000Y-91952500D03*
X130272000Y-91952500D03*
X131542000Y-91952500D03*
X132812000Y-91952500D03*
D29*
X144967000Y-85874500D03*
X144967000Y-84604500D03*
X144967000Y-83334500D03*
X144967000Y-82064500D03*
X144967000Y-80395500D03*
X144967000Y-79125500D03*
X144967000Y-77855500D03*
X144967000Y-76585500D03*
D28*
X132812000Y-70997500D03*
X131542000Y-70997500D03*
X130272000Y-70997500D03*
X129002000Y-70997500D03*
X120366000Y-70997500D03*
X119096000Y-70997500D03*
X117826000Y-70997500D03*
X116556000Y-70997500D03*
D29*
X113000000Y-76331500D03*
X113000000Y-77601500D03*
X113000000Y-78871500D03*
X113000000Y-80141500D03*
X113000000Y-82427500D03*
X113000000Y-83697500D03*
X113000000Y-84967500D03*
X113000000Y-86237500D03*
%TD*%
D15*
%TO.C,C9*%
X192202000Y-117416000D03*
X193902000Y-117416000D03*
%TD*%
%TO.C,R19*%
X158928000Y-129862000D03*
X160628000Y-129862000D03*
%TD*%
%TO.C,R51*%
X171462000Y-108946000D03*
X171462000Y-110646000D03*
%TD*%
D24*
%TO.C,D6*%
X182626000Y-180464000D03*
X182626000Y-183264000D03*
%TD*%
D15*
%TO.C,R1*%
X225388000Y-61790000D03*
X227088000Y-61790000D03*
%TD*%
%TO.C,R4*%
X173852000Y-159799000D03*
X173852000Y-161499000D03*
%TD*%
D28*
%TO.C,RC-VNH70-V3*%
X116556000Y-191012500D03*
X117826000Y-191012500D03*
X119096000Y-191012500D03*
X120366000Y-191012500D03*
X129000000Y-191012500D03*
X130272000Y-191012500D03*
X131542000Y-191012500D03*
X132812000Y-191012500D03*
D29*
X144967000Y-184934500D03*
X144967000Y-183664500D03*
X144967000Y-182394500D03*
X144967000Y-181124500D03*
X144967000Y-179455500D03*
X144967000Y-178185500D03*
X144967000Y-176915500D03*
X144967000Y-175645500D03*
D28*
X132812000Y-170057500D03*
X131542000Y-170057500D03*
X130272000Y-170057500D03*
X129002000Y-170057500D03*
X120366000Y-170057500D03*
X119096000Y-170057500D03*
X117826000Y-170057500D03*
X116556000Y-170057500D03*
D29*
X113000000Y-175391500D03*
X113000000Y-176661500D03*
X113000000Y-177931500D03*
X113000000Y-179201500D03*
X113000000Y-181487500D03*
X113000000Y-182757500D03*
X113000000Y-184027500D03*
X113000000Y-185297500D03*
%TD*%
D15*
%TO.C,C34*%
X164350000Y-110646000D03*
X164350000Y-108946000D03*
%TD*%
%TO.C,R47*%
X170280000Y-151960000D03*
X168580000Y-151960000D03*
%TD*%
%TO.C,R25*%
X252322000Y-188028000D03*
X250622000Y-188028000D03*
%TD*%
%TO.C,R41*%
X164350000Y-105390000D03*
X164350000Y-107090000D03*
%TD*%
D22*
%TO.C,D16*%
X119900000Y-64364000D03*
X119900000Y-62264000D03*
%TD*%
D15*
%TO.C,C3*%
X184924000Y-141966000D03*
X184924000Y-143666000D03*
%TD*%
%TO.C,R48*%
X170280000Y-150182000D03*
X168580000Y-150182000D03*
%TD*%
%TO.C,R10*%
X179336000Y-214864000D03*
X179336000Y-216564000D03*
%TD*%
D34*
%TO.C,L1*%
X188480000Y-143591000D03*
X188480000Y-142041000D03*
%TD*%
D15*
%TO.C,R35*%
X252322000Y-200474000D03*
X250622000Y-200474000D03*
%TD*%
D35*
%TO.C,C45*%
X185432000Y-94060000D03*
X185432000Y-88460000D03*
%TD*%
D15*
%TO.C,R44*%
X158928000Y-111574000D03*
X160628000Y-111574000D03*
%TD*%
%TO.C,C41*%
X193394000Y-130624000D03*
X191694000Y-130624000D03*
%TD*%
D22*
%TO.C,D14*%
X101612000Y-64364000D03*
X101612000Y-62264000D03*
%TD*%
D27*
%TO.C,LED3*%
X160553500Y-159512000D03*
X158978500Y-159512000D03*
%TD*%
D15*
%TO.C,R21*%
X240296000Y-188868000D03*
X240296000Y-190568000D03*
%TD*%
%TO.C,R42*%
X155372000Y-114114000D03*
X157072000Y-114114000D03*
%TD*%
%TO.C,C16*%
X190258000Y-141966000D03*
X190258000Y-143666000D03*
%TD*%
%TO.C,C2*%
X176288000Y-141458000D03*
X176288000Y-143158000D03*
%TD*%
%TO.C,R7*%
X179324000Y-212412000D03*
X177624000Y-212412000D03*
%TD*%
%TO.C,C38*%
X181540000Y-147472000D03*
X181540000Y-145772000D03*
%TD*%
D27*
%TO.C,LED5*%
X209829500Y-61282000D03*
X208254500Y-61282000D03*
%TD*%
D15*
%TO.C,R15*%
X193482000Y-138244000D03*
X191782000Y-138244000D03*
%TD*%
%TO.C,R54*%
X191147000Y-79560000D03*
X192847000Y-79560000D03*
%TD*%
%TO.C,C32*%
X246216000Y-209364000D03*
X247916000Y-209364000D03*
%TD*%
D28*
%TO.C,RC-VNH70-V7*%
X116556000Y-166247500D03*
X117826000Y-166247500D03*
X119096000Y-166247500D03*
X120366000Y-166247500D03*
X129000000Y-166247500D03*
X130272000Y-166247500D03*
X131542000Y-166247500D03*
X132812000Y-166247500D03*
D29*
X144967000Y-160169500D03*
X144967000Y-158899500D03*
X144967000Y-157629500D03*
X144967000Y-156359500D03*
X144967000Y-154690500D03*
X144967000Y-153420500D03*
X144967000Y-152150500D03*
X144967000Y-150880500D03*
D28*
X132812000Y-145292500D03*
X131542000Y-145292500D03*
X130272000Y-145292500D03*
X129002000Y-145292500D03*
X120366000Y-145292500D03*
X119096000Y-145292500D03*
X117826000Y-145292500D03*
X116556000Y-145292500D03*
D29*
X113000000Y-150626500D03*
X113000000Y-151896500D03*
X113000000Y-153166500D03*
X113000000Y-154436500D03*
X113000000Y-156722500D03*
X113000000Y-157992500D03*
X113000000Y-159262500D03*
X113000000Y-160532500D03*
%TD*%
D15*
%TO.C,C52*%
X246216000Y-198696000D03*
X247916000Y-198696000D03*
%TD*%
%TO.C,C53*%
X246216000Y-200474000D03*
X247916000Y-200474000D03*
%TD*%
%TO.C,R22*%
X242074000Y-188868000D03*
X242074000Y-190568000D03*
%TD*%
D27*
%TO.C,LED4*%
X176821500Y-214952000D03*
X175246500Y-214952000D03*
%TD*%
D15*
%TO.C,R53*%
X191147000Y-77010000D03*
X192847000Y-77010000D03*
%TD*%
%TO.C,C22*%
X177624000Y-210380000D03*
X179324000Y-210380000D03*
%TD*%
%TO.C,C40*%
X158926000Y-124528000D03*
X160626000Y-124528000D03*
%TD*%
D16*
%TO.C,RC-VNH70-V9*%
X232444000Y-120527500D03*
X231174000Y-120527500D03*
X229904000Y-120527500D03*
X228634000Y-120527500D03*
X220000000Y-120527500D03*
X218728000Y-120527500D03*
X217458000Y-120527500D03*
X216188000Y-120527500D03*
D17*
X204033000Y-126605500D03*
X204033000Y-127875500D03*
X204033000Y-129145500D03*
X204033000Y-130415500D03*
X204033000Y-132084500D03*
X204033000Y-133354500D03*
X204033000Y-134624500D03*
X204033000Y-135894500D03*
D16*
X216188000Y-141482500D03*
X217458000Y-141482500D03*
X218728000Y-141482500D03*
X219998000Y-141482500D03*
X228634000Y-141482500D03*
X229904000Y-141482500D03*
X231174000Y-141482500D03*
X232444000Y-141482500D03*
D17*
X236000000Y-136148500D03*
X236000000Y-134878500D03*
X236000000Y-133608500D03*
X236000000Y-132338500D03*
X236000000Y-130052500D03*
X236000000Y-128782500D03*
X236000000Y-127512500D03*
X236000000Y-126242500D03*
%TD*%
D26*
%TO.C,SW6*%
X116852000Y-65494000D03*
X116852000Y-61134000D03*
%TD*%
D15*
%TO.C,C54*%
X246216000Y-202252000D03*
X247916000Y-202252000D03*
%TD*%
%TO.C,R23*%
X243852000Y-188868000D03*
X243852000Y-190568000D03*
%TD*%
%TO.C,C39*%
X174290000Y-145776000D03*
X174290000Y-147476000D03*
%TD*%
%TO.C,R14*%
X158928000Y-126306000D03*
X160628000Y-126306000D03*
%TD*%
D36*
%TO.C,SW3*%
X127118000Y-62298000D03*
X131478000Y-62298000D03*
%TD*%
D15*
%TO.C,R20*%
X238518000Y-188868000D03*
X238518000Y-190568000D03*
%TD*%
%TO.C,R26*%
X252322000Y-189718000D03*
X250622000Y-189718000D03*
%TD*%
D23*
%TO.C,C49*%
X184144000Y-167708000D03*
X189744000Y-167708000D03*
%TD*%
D15*
%TO.C,C36*%
X161560000Y-146742000D03*
X161560000Y-145042000D03*
%TD*%
%TO.C,C13*%
X191948000Y-128592000D03*
X193648000Y-128592000D03*
%TD*%
%TO.C,C6*%
X160626000Y-128084000D03*
X158926000Y-128084000D03*
%TD*%
%TO.C,R2*%
X225388000Y-64076000D03*
X227088000Y-64076000D03*
%TD*%
%TO.C,R28*%
X252322000Y-193362000D03*
X250622000Y-193362000D03*
%TD*%
%TO.C,C20*%
X170534000Y-207840000D03*
X168834000Y-207840000D03*
%TD*%
%TO.C,C37*%
X167910000Y-146742000D03*
X167910000Y-145042000D03*
%TD*%
D37*
%TO.C,C48*%
X142766000Y-63060000D03*
X137166000Y-63060000D03*
%TD*%
D15*
%TO.C,R17*%
X158926000Y-136974000D03*
X160626000Y-136974000D03*
%TD*%
D26*
%TO.C,SW2*%
X110756000Y-65494000D03*
X110756000Y-61134000D03*
%TD*%
D15*
%TO.C,R39*%
X158926000Y-120464000D03*
X160626000Y-120464000D03*
%TD*%
%TO.C,R34*%
X252322000Y-202252000D03*
X250622000Y-202252000D03*
%TD*%
%TO.C,R30*%
X252322000Y-209364000D03*
X250622000Y-209364000D03*
%TD*%
D16*
%TO.C,RC-VNH70-V2*%
X232444000Y-70997500D03*
X231174000Y-70997500D03*
X229904000Y-70997500D03*
X228634000Y-70997500D03*
X220000000Y-70997500D03*
X218728000Y-70997500D03*
X217458000Y-70997500D03*
X216188000Y-70997500D03*
D17*
X204033000Y-77075500D03*
X204033000Y-78345500D03*
X204033000Y-79615500D03*
X204033000Y-80885500D03*
X204033000Y-82554500D03*
X204033000Y-83824500D03*
X204033000Y-85094500D03*
X204033000Y-86364500D03*
D16*
X216188000Y-91952500D03*
X217458000Y-91952500D03*
X218728000Y-91952500D03*
X219998000Y-91952500D03*
X228634000Y-91952500D03*
X229904000Y-91952500D03*
X231174000Y-91952500D03*
X232444000Y-91952500D03*
D17*
X236000000Y-86618500D03*
X236000000Y-85348500D03*
X236000000Y-84078500D03*
X236000000Y-82808500D03*
X236000000Y-80522500D03*
X236000000Y-79252500D03*
X236000000Y-77982500D03*
X236000000Y-76712500D03*
%TD*%
D15*
%TO.C,R38*%
X160626000Y-118686000D03*
X158926000Y-118686000D03*
%TD*%
%TO.C,R16*%
X160628000Y-133418000D03*
X158928000Y-133418000D03*
%TD*%
%TO.C,R50*%
X184890000Y-151750000D03*
X183190000Y-151750000D03*
%TD*%
%TO.C,R8*%
X179324000Y-208094000D03*
X177624000Y-208094000D03*
%TD*%
%TO.C,R27*%
X252322000Y-191584000D03*
X250622000Y-191584000D03*
%TD*%
%TO.C,R24*%
X245630000Y-188868000D03*
X245630000Y-190568000D03*
%TD*%
%TO.C,C17*%
X186702000Y-141966000D03*
X186702000Y-143666000D03*
%TD*%
%TO.C,C25*%
X175692000Y-156250000D03*
X177392000Y-156250000D03*
%TD*%
D38*
%TO.C,U8*%
X180070000Y-154410000D03*
X180070000Y-153130000D03*
X180070000Y-151870000D03*
X180070000Y-150600000D03*
X173010000Y-150600000D03*
X173010000Y-151870000D03*
X173010000Y-153130000D03*
X173010000Y-154410000D03*
%TD*%
D15*
%TO.C,C8*%
X167906000Y-110646000D03*
X167906000Y-108946000D03*
%TD*%
D39*
%TO.C,D3*%
X159114000Y-183710000D03*
X152314000Y-183710000D03*
%TD*%
D15*
%TO.C,C31*%
X246216000Y-207586000D03*
X247916000Y-207586000D03*
%TD*%
%TO.C,C10*%
X191948000Y-123512000D03*
X193648000Y-123512000D03*
%TD*%
D28*
%TO.C,RC-VNH70-V5*%
X116556000Y-116717500D03*
X117826000Y-116717500D03*
X119096000Y-116717500D03*
X120366000Y-116717500D03*
X129000000Y-116717500D03*
X130272000Y-116717500D03*
X131542000Y-116717500D03*
X132812000Y-116717500D03*
D29*
X144967000Y-110639500D03*
X144967000Y-109369500D03*
X144967000Y-108099500D03*
X144967000Y-106829500D03*
X144967000Y-105160500D03*
X144967000Y-103890500D03*
X144967000Y-102620500D03*
X144967000Y-101350500D03*
D28*
X132812000Y-95762500D03*
X131542000Y-95762500D03*
X130272000Y-95762500D03*
X129002000Y-95762500D03*
X120366000Y-95762500D03*
X119096000Y-95762500D03*
X117826000Y-95762500D03*
X116556000Y-95762500D03*
D29*
X113000000Y-101096500D03*
X113000000Y-102366500D03*
X113000000Y-103636500D03*
X113000000Y-104906500D03*
X113000000Y-107192500D03*
X113000000Y-108462500D03*
X113000000Y-109732500D03*
X113000000Y-111002500D03*
%TD*%
D15*
%TO.C,C43*%
X160626000Y-113352000D03*
X158926000Y-113352000D03*
%TD*%
%TO.C,C42*%
X193394000Y-132402000D03*
X191694000Y-132402000D03*
%TD*%
%TO.C,R43*%
X156642000Y-190822000D03*
X158342000Y-190822000D03*
%TD*%
%TO.C,C50*%
X167232000Y-142336000D03*
X165532000Y-142336000D03*
%TD*%
D27*
%TO.C,LED1*%
X172757500Y-214952000D03*
X171182500Y-214952000D03*
%TD*%
M02*
