%TF.GenerationSoftware,KiCad,Pcbnew,9.0.7*%
%TF.CreationDate,2026-02-28T17:46:55-04:00*%
%TF.ProjectId,RC-KAKATA-CONTROL,52432d4b-414b-4415-9441-2d434f4e5452,1.0*%
%TF.SameCoordinates,Original*%
%TF.FileFunction,Copper,L3,Inr*%
%TF.FilePolarity,Positive*%
%FSLAX46Y46*%
G04 Gerber Fmt 4.6, Leading zero omitted, Abs format (unit mm)*
G04 Created by KiCad (PCBNEW 9.0.7) date 2026-02-28 17:46:55*
%MOMM*%
%LPD*%
G01*
G04 APERTURE LIST*
G04 Aperture macros list*
%AMRoundRect*
0 Rectangle with rounded corners*
0 $1 Rounding radius*
0 $2 $3 $4 $5 $6 $7 $8 $9 X,Y pos of 4 corners*
0 Add a 4 corners polygon primitive as box body*
4,1,4,$2,$3,$4,$5,$6,$7,$8,$9,$2,$3,0*
0 Add four circle primitives for the rounded corners*
1,1,$1+$1,$2,$3*
1,1,$1+$1,$4,$5*
1,1,$1+$1,$6,$7*
1,1,$1+$1,$8,$9*
0 Add four rect primitives between the rounded corners*
20,1,$1+$1,$2,$3,$4,$5,0*
20,1,$1+$1,$4,$5,$6,$7,0*
20,1,$1+$1,$6,$7,$8,$9,0*
20,1,$1+$1,$8,$9,$2,$3,0*%
G04 Aperture macros list end*
%TA.AperFunction,ComponentPad*%
%ADD10R,2.300000X2.300000*%
%TD*%
%TA.AperFunction,ComponentPad*%
%ADD11C,2.300000*%
%TD*%
%TA.AperFunction,ComponentPad*%
%ADD12C,1.500000*%
%TD*%
%TA.AperFunction,ComponentPad*%
%ADD13C,2.000000*%
%TD*%
%TA.AperFunction,ComponentPad*%
%ADD14R,1.600000X1.600000*%
%TD*%
%TA.AperFunction,ComponentPad*%
%ADD15C,1.600000*%
%TD*%
%TA.AperFunction,ComponentPad*%
%ADD16R,1.800000X1.800000*%
%TD*%
%TA.AperFunction,ComponentPad*%
%ADD17C,1.800000*%
%TD*%
%TA.AperFunction,ComponentPad*%
%ADD18RoundRect,0.250000X0.600000X-0.600000X0.600000X0.600000X-0.600000X0.600000X-0.600000X-0.600000X0*%
%TD*%
%TA.AperFunction,ComponentPad*%
%ADD19C,1.700000*%
%TD*%
%TA.AperFunction,ComponentPad*%
%ADD20R,1.500000X1.500000*%
%TD*%
%TA.AperFunction,ComponentPad*%
%ADD21O,1.800000X1.800000*%
%TD*%
%TA.AperFunction,ComponentPad*%
%ADD22R,1.700000X1.700000*%
%TD*%
%TA.AperFunction,ComponentPad*%
%ADD23C,1.651000*%
%TD*%
%TA.AperFunction,ViaPad*%
%ADD24C,0.600000*%
%TD*%
%TA.AperFunction,ViaPad*%
%ADD25C,0.609600*%
%TD*%
%TA.AperFunction,ViaPad*%
%ADD26C,0.508000*%
%TD*%
%TA.AperFunction,Conductor*%
%ADD27C,0.203200*%
%TD*%
%TA.AperFunction,Conductor*%
%ADD28C,0.152400*%
%TD*%
%TA.AperFunction,Conductor*%
%ADD29C,0.200000*%
%TD*%
%TA.AperFunction,Conductor*%
%ADD30C,1.524000*%
%TD*%
%TA.AperFunction,Conductor*%
%ADD31C,0.254000*%
%TD*%
%TA.AperFunction,Conductor*%
%ADD32C,0.355600*%
%TD*%
G04 APERTURE END LIST*
D10*
%TO.N,/motor_driver3/MB*%
%TO.C,J9*%
X244500000Y-183075000D03*
D11*
%TO.N,/motor_driver3/MA*%
X244500000Y-177995000D03*
%TD*%
D10*
%TO.N,/motor_driver4/MB*%
%TO.C,J11*%
X104500000Y-103700000D03*
D11*
%TO.N,/motor_driver4/MA*%
X104500000Y-108780000D03*
%TD*%
D12*
%TO.N,Net-(JP2-C)*%
%TO.C,RF2*%
X170917500Y-85040500D03*
%TO.N,/RF_DATA_EN*%
X170917500Y-87580500D03*
%TO.N,GND*%
X170917500Y-90120500D03*
%TO.N,+3.3V*%
X170917500Y-92660500D03*
%TD*%
D10*
%TO.N,/motor_driver8/MB*%
%TO.C,J21*%
X244500000Y-133545000D03*
D11*
%TO.N,/motor_driver8/MA*%
X244500000Y-128465000D03*
%TD*%
D10*
%TO.N,/motor_driver1/MB*%
%TO.C,J5*%
X244500000Y-84540000D03*
D11*
%TO.N,/motor_driver1/MA*%
X244500000Y-79460000D03*
%TD*%
D10*
%TO.N,/motor_driver6/MB*%
%TO.C,J17*%
X104500000Y-153230000D03*
D11*
%TO.N,/motor_driver6/MA*%
X104500000Y-158310000D03*
%TD*%
D13*
%TO.N,unconnected-(J1-Pin_1-Pad1)*%
%TO.C,J1*%
X197000000Y-213150000D03*
%TO.N,unconnected-(J1-Pin_2-Pad2)*%
X202000000Y-213150000D03*
%TO.N,/LS_TRASERO_DX_180G*%
X207000000Y-213150000D03*
%TO.N,/LS_TRASERO_DX_0G*%
X212000000Y-213150000D03*
%TO.N,/LS_TRASERO_IX_180G*%
X217000000Y-213150000D03*
%TO.N,/LS_TRASERO_IX_0G*%
X222000000Y-213150000D03*
%TO.N,/LS_DELANTERO_DX_180G*%
X227000000Y-213150000D03*
%TO.N,/LS_DELANTERO_DX_0G*%
X232000000Y-213150000D03*
%TO.N,/LS_DELANTERO_IX_180G*%
X237000000Y-213150000D03*
%TO.N,/LS_DELANTERO_IX_0G*%
X242000000Y-213150000D03*
%TO.N,/ENC_A_TRASERO_IZQ*%
X197000000Y-198150000D03*
%TO.N,/ENC_A_TRASERO_DER*%
X202000000Y-198150000D03*
%TO.N,/ENC_A_DELANTERO_IZQ*%
X207000000Y-198150000D03*
%TO.N,/ENC_A_DELANTERO_DER*%
X212000000Y-198150000D03*
%TO.N,/ENC_A_MOTOR_1_IZQ*%
X217000000Y-198150000D03*
%TO.N,/ENC_A_MOTOR_2_IZQ*%
X222000000Y-198150000D03*
%TO.N,/ENC_A_MOTOR_3_IZQ*%
X227000000Y-198150000D03*
%TO.N,/ENC_A_MOTOR_1_DER*%
X232000000Y-198150000D03*
%TO.N,/ENC_A_MOTOR_2_DER*%
X237000000Y-198150000D03*
%TO.N,/ENC_A_MOTOR_3_DER*%
X242000000Y-198150000D03*
%TD*%
D10*
%TO.N,/motor_driver2/MB*%
%TO.C,J7*%
X104500000Y-177995000D03*
D11*
%TO.N,/motor_driver2/MA*%
X104500000Y-183075000D03*
%TD*%
D14*
%TO.N,+3.3V*%
%TO.C,U4*%
X171996000Y-205110000D03*
D15*
%TO.N,/JOY_PB*%
X174536000Y-205110000D03*
%TO.N,GND*%
X177076000Y-205110000D03*
D14*
%TO.N,+3.3V*%
X184186000Y-197960000D03*
D15*
%TO.N,/JOY_DIRA*%
X184186000Y-195460000D03*
%TO.N,GND*%
X184186000Y-192960000D03*
X161786000Y-192210000D03*
X161786000Y-198710000D03*
%TO.N,/JOY_DIRB*%
X166286000Y-192210000D03*
X166286000Y-198710000D03*
D13*
%TO.N,unconnected-(U4-Pad9)*%
X167886000Y-187710000D03*
%TO.N,unconnected-(U4-Pad10)*%
X181186000Y-187710000D03*
%TO.N,unconnected-(U4-Pad11)*%
X181186000Y-203210000D03*
%TO.N,unconnected-(U4-Pad12)*%
X167886000Y-203210000D03*
%TD*%
D16*
%TO.N,+3.3V*%
%TO.C,J10*%
X243598000Y-63568000D03*
D17*
%TO.N,/UART_RX*%
X246138000Y-63568000D03*
%TO.N,/UART_TX*%
X248678000Y-63568000D03*
%TO.N,GND*%
X251218000Y-63568000D03*
%TD*%
D18*
%TO.N,Net-(J6-3V3-Pad1)*%
%TO.C,J6*%
X151510000Y-64500000D03*
D19*
%TO.N,+5V*%
X151510000Y-61960000D03*
%TO.N,/RPI_GPIO_SDA*%
X154050000Y-64500000D03*
%TO.N,+5V*%
X154050000Y-61960000D03*
%TO.N,/RPI_GPIO_SCL*%
X156590000Y-64500000D03*
%TO.N,GND*%
X156590000Y-61960000D03*
%TO.N,unconnected-(J6-GCLK0{slash}GPIO4-Pad7)*%
X159130000Y-64500000D03*
%TO.N,/RPI_UART2_TX*%
X159130000Y-61960000D03*
%TO.N,GND*%
X161670000Y-64500000D03*
%TO.N,/RPI_UART2_RX*%
X161670000Y-61960000D03*
%TO.N,unconnected-(J6-GPIO17-Pad11)*%
X164210000Y-64500000D03*
%TO.N,unconnected-(J6-GPIO18{slash}PWM0-Pad12)*%
X164210000Y-61960000D03*
%TO.N,unconnected-(J6-GPIO27-Pad13)*%
X166750000Y-64500000D03*
%TO.N,GND*%
X166750000Y-61960000D03*
%TO.N,unconnected-(J6-GPIO22-Pad15)*%
X169290000Y-64500000D03*
%TO.N,unconnected-(J6-GPIO23-Pad16)*%
X169290000Y-61960000D03*
%TO.N,Net-(J6-3V3-Pad1)*%
X171830000Y-64500000D03*
%TO.N,unconnected-(J6-GPIO24-Pad18)*%
X171830000Y-61960000D03*
%TO.N,/RPI_SPI_MISO*%
X174370000Y-64500000D03*
%TO.N,GND*%
X174370000Y-61960000D03*
%TO.N,/RPI_SPI_MOSI*%
X176910000Y-64500000D03*
%TO.N,unconnected-(J6-GPIO25-Pad22)*%
X176910000Y-61960000D03*
%TO.N,/RPI_SPI_CLK*%
X179450000Y-64500000D03*
%TO.N,/RPI_SPI_CS*%
X179450000Y-61960000D03*
%TO.N,GND*%
X181990000Y-64500000D03*
%TO.N,unconnected-(J6-~{CE1}{slash}GPIO7-Pad26)*%
X181990000Y-61960000D03*
%TO.N,unconnected-(J6-ID_SD{slash}GPIO0-Pad27)*%
X184530000Y-64500000D03*
%TO.N,unconnected-(J6-ID_SC{slash}GPIO1-Pad28)*%
X184530000Y-61960000D03*
%TO.N,unconnected-(J6-GCLK1{slash}GPIO5-Pad29)*%
X187070000Y-64500000D03*
%TO.N,GND*%
X187070000Y-61960000D03*
%TO.N,unconnected-(J6-GCLK2{slash}GPIO6-Pad31)*%
X189610000Y-64500000D03*
%TO.N,unconnected-(J6-PWM0{slash}GPIO12-Pad32)*%
X189610000Y-61960000D03*
%TO.N,unconnected-(J6-PWM1{slash}GPIO13-Pad33)*%
X192150000Y-64500000D03*
%TO.N,GND*%
X192150000Y-61960000D03*
%TO.N,unconnected-(J6-GPIO19{slash}POCI1-Pad35)*%
X194690000Y-64500000D03*
%TO.N,unconnected-(J6-GPIO16-Pad36)*%
X194690000Y-61960000D03*
%TO.N,unconnected-(J6-GPIO26-Pad37)*%
X197230000Y-64500000D03*
%TO.N,unconnected-(J6-GPIO20{slash}PICO1-Pad38)*%
X197230000Y-61960000D03*
%TO.N,GND*%
X199770000Y-64500000D03*
%TO.N,unconnected-(J6-GPIO21{slash}SCLK1-Pad40)*%
X199770000Y-61960000D03*
%TD*%
D10*
%TO.N,/motor_driver9/MB*%
%TO.C,J23*%
X244500000Y-158310000D03*
D11*
%TO.N,/motor_driver9/MA*%
X244500000Y-153230000D03*
%TD*%
D12*
%TO.N,unconnected-(RF1-ANT-Pad1)*%
%TO.C,RF1*%
X158032000Y-73440000D03*
D20*
%TO.N,GND*%
X158032000Y-75440000D03*
D12*
%TO.N,+3.3V*%
X158032000Y-93440000D03*
%TO.N,Net-(JP3-C)*%
X158032000Y-95980000D03*
X158032000Y-98520000D03*
%TO.N,GND*%
X158032000Y-101060000D03*
%TD*%
D16*
%TO.N,/power_supply/vbat_in*%
%TO.C,U2*%
X162826000Y-173612500D03*
D21*
%TO.N,GND*%
X160286000Y-173612500D03*
%TO.N,+5V*%
X157746000Y-173612500D03*
%TD*%
D10*
%TO.N,GND*%
%TO.C,J3*%
X159270000Y-210000000D03*
D11*
%TO.N,/VBAT_1*%
X164350000Y-210000000D03*
%TD*%
D10*
%TO.N,GND*%
%TO.C,J4*%
X184670000Y-210000000D03*
D11*
%TO.N,/VBAT_2*%
X189750000Y-210000000D03*
%TD*%
D10*
%TO.N,/motor_driver7/MB*%
%TO.C,J19*%
X244500000Y-108780000D03*
D11*
%TO.N,/motor_driver7/MA*%
X244500000Y-103700000D03*
%TD*%
D16*
%TO.N,/power_supply/vbat_in*%
%TO.C,U1*%
X189750000Y-173296000D03*
D21*
%TO.N,GND*%
X187210000Y-173296000D03*
%TO.N,+3.3V*%
X184670000Y-173296000D03*
%TD*%
D22*
%TO.N,+3.3V*%
%TO.C,J12*%
X153682000Y-117162000D03*
D19*
%TO.N,/JTMS{slash}SWDIO*%
X153682000Y-119702000D03*
%TO.N,/JTCK{slash}SWCLK*%
X153682000Y-122242000D03*
%TO.N,/JTDI*%
X153682000Y-124782000D03*
%TO.N,/JTDO*%
X153682000Y-127322000D03*
%TO.N,/NJTRST*%
X153682000Y-129862000D03*
%TO.N,GND*%
X153682000Y-132402000D03*
%TD*%
D22*
%TO.N,/RF_DATA_UART_TX*%
%TO.C,JP2*%
X180606000Y-83380000D03*
D19*
%TO.N,Net-(JP2-C)*%
X180606000Y-80840000D03*
%TO.N,/RF_DATA_TIMER*%
X180606000Y-78300000D03*
%TD*%
D10*
%TO.N,/motor_driver5/MB*%
%TO.C,J13*%
X104500000Y-128465000D03*
D11*
%TO.N,/motor_driver5/MA*%
X104500000Y-133545000D03*
%TD*%
D22*
%TO.N,/RF_DATA_IN_TIM*%
%TO.C,JP3*%
X164350000Y-101160000D03*
D19*
%TO.N,Net-(JP3-C)*%
X164350000Y-98620000D03*
%TO.N,/RF_DATA_IN_UART*%
X164350000Y-96080000D03*
%TD*%
D16*
%TO.N,+3.3V*%
%TO.C,J8*%
X231406000Y-63568000D03*
D17*
%TO.N,/ACC_I2C_SDA*%
X233946000Y-63568000D03*
%TO.N,/ACC_I2C_SCL*%
X236486000Y-63568000D03*
%TO.N,GND*%
X239026000Y-63568000D03*
%TD*%
D16*
%TO.N,/ACC_1*%
%TO.C,J14*%
X214007000Y-63568000D03*
D17*
%TO.N,/ACC_2*%
X216547000Y-63568000D03*
%TO.N,/ACC_3*%
X219087000Y-63568000D03*
%TO.N,GND*%
X221627000Y-63568000D03*
%TD*%
D13*
%TO.N,GND*%
%TO.C,J25*%
X106500000Y-213150000D03*
X111500000Y-213150000D03*
X116500000Y-213150000D03*
X121500000Y-213150000D03*
X126500000Y-213150000D03*
X131500000Y-213150000D03*
X136500000Y-213150000D03*
X141500000Y-213150000D03*
X146500000Y-213150000D03*
X151500000Y-213150000D03*
%TO.N,+3.3V*%
X106500000Y-198150000D03*
X111500000Y-198150000D03*
X116500000Y-198150000D03*
X121500000Y-198150000D03*
X126500000Y-198150000D03*
X131500000Y-198150000D03*
X136500000Y-198150000D03*
X141500000Y-198150000D03*
X146500000Y-198150000D03*
X151500000Y-198150000D03*
%TD*%
D10*
%TO.N,/motor_driver/MB*%
%TO.C,J2*%
X104500000Y-78935000D03*
D11*
%TO.N,/motor_driver/MA*%
X104500000Y-84015000D03*
%TD*%
D23*
%TO.N,Net-(U3-PF15)*%
%TO.C,TP5*%
X181241000Y-120337000D03*
%TD*%
%TO.N,Net-(U3-PF13)*%
%TO.C,TP3*%
X180987000Y-126306000D03*
%TD*%
%TO.N,Net-(U3-PF12)*%
%TO.C,TP2*%
X183654000Y-127449000D03*
%TD*%
%TO.N,Net-(U3-PF14)*%
%TO.C,TP4*%
X181241000Y-123258000D03*
%TD*%
%TO.N,Net-(U3-PF11)*%
%TO.C,TP1*%
X182892000Y-130243000D03*
%TD*%
D24*
%TO.N,/ACC_GYR_INT*%
X176034000Y-170248000D03*
%TO.N,+3.3V*%
X177050000Y-168597000D03*
X173113000Y-172153000D03*
%TO.N,GND*%
X176034000Y-165168000D03*
X178447000Y-171645000D03*
X169921868Y-171698443D03*
X179590000Y-169486000D03*
X173367000Y-168216000D03*
%TO.N,Net-(JP2-C)*%
X170954000Y-80967000D03*
%TO.N,GND*%
X219595000Y-82745000D03*
X133489000Y-158437000D03*
X222008000Y-125925000D03*
X215785000Y-88460000D03*
X133362000Y-176090000D03*
X137934000Y-60266000D03*
X129679000Y-150182000D03*
X215658000Y-179265000D03*
X127139000Y-132402000D03*
X124599000Y-144467000D03*
X220738000Y-187520000D03*
X225945000Y-81475000D03*
X176288000Y-178630000D03*
X219671161Y-127171949D03*
X123329000Y-157167000D03*
X136029000Y-105097000D03*
X224675000Y-85285000D03*
X121932000Y-183075000D03*
X206895000Y-88460000D03*
X211848000Y-162755000D03*
X223405000Y-103700000D03*
X211848000Y-156405000D03*
X218059000Y-156337000D03*
X223405000Y-108780000D03*
X249186000Y-209364000D03*
X210705000Y-109415000D03*
X249186000Y-205808000D03*
X194686400Y-132402000D03*
X216928000Y-132275000D03*
X136029000Y-150182000D03*
X216928000Y-125925000D03*
X125869000Y-82872000D03*
X216928000Y-180535000D03*
X137299000Y-79697000D03*
X124472000Y-183075000D03*
X215658000Y-129735000D03*
X133489000Y-107637000D03*
X122059000Y-157167000D03*
X186702000Y-144594000D03*
X215785000Y-102430000D03*
X225818000Y-133545000D03*
X134759000Y-82872000D03*
X211975000Y-108145000D03*
X211975000Y-111955000D03*
X171716000Y-176598000D03*
X222008000Y-138625000D03*
X122059000Y-148277000D03*
X218325000Y-110685000D03*
X123202000Y-176725000D03*
X133489000Y-133672000D03*
X128409000Y-106367000D03*
X223278000Y-157040000D03*
X218325000Y-85920000D03*
X217055000Y-84015000D03*
X222135000Y-104970000D03*
X136029000Y-103192000D03*
X218325000Y-78935000D03*
X126504000Y-162247000D03*
X224548000Y-186885000D03*
X132219000Y-159707000D03*
X125869000Y-94937000D03*
X222008000Y-181805000D03*
X227215000Y-107510000D03*
X224548000Y-131005000D03*
X210578000Y-181805000D03*
X136029000Y-152722000D03*
X136918000Y-64838000D03*
X211975000Y-84650000D03*
X171704000Y-173736000D03*
X135902000Y-60266000D03*
X129044000Y-87952000D03*
X124472000Y-177995000D03*
X132219000Y-82872000D03*
X135902000Y-61282000D03*
X136918000Y-60266000D03*
X171935497Y-137238788D03*
X224548000Y-180535000D03*
X134886000Y-65854000D03*
X219468000Y-179265000D03*
X133362000Y-174820000D03*
X132219000Y-105097000D03*
X215658000Y-160215000D03*
X122059000Y-133672000D03*
X224548000Y-137355000D03*
X124599000Y-154627000D03*
X125869000Y-155897000D03*
X137299000Y-153992000D03*
X216293000Y-174185000D03*
X224548000Y-184345000D03*
X227088000Y-189425000D03*
X124599000Y-150817000D03*
X225818000Y-180535000D03*
X249186000Y-207586000D03*
X122059000Y-110177000D03*
X213245000Y-106240000D03*
D25*
X180860000Y-108780000D03*
D24*
X174498000Y-173736000D03*
X132219000Y-128592000D03*
X224548000Y-164660000D03*
X129679000Y-158437000D03*
X204355000Y-88460000D03*
X125742000Y-183075000D03*
X127139000Y-153357000D03*
X139839000Y-129227000D03*
X133489000Y-155897000D03*
X133489000Y-99382000D03*
X127139000Y-105097000D03*
X129447200Y-132497028D03*
X227088000Y-125925000D03*
X220865000Y-106240000D03*
X223405000Y-87825000D03*
X225945000Y-82745000D03*
X138569000Y-99382000D03*
X227215000Y-85285000D03*
D26*
X167906000Y-209618000D03*
D24*
X124599000Y-147007000D03*
X129447200Y-131132000D03*
X210705000Y-107510000D03*
X125869000Y-126052000D03*
X217055000Y-101160000D03*
X223278000Y-132275000D03*
X213118000Y-129735000D03*
X124599000Y-131132000D03*
X128282000Y-176090000D03*
X138569000Y-77157000D03*
X132219000Y-86682000D03*
X131584000Y-162247000D03*
X123329000Y-106367000D03*
X127012000Y-171645000D03*
X190258000Y-144594000D03*
X125869000Y-132402000D03*
X219595000Y-102430000D03*
X134886000Y-64838000D03*
X174510000Y-174566000D03*
X224675000Y-91635000D03*
X139839000Y-150817000D03*
X193902000Y-120210000D03*
X123329000Y-108907000D03*
X223405000Y-117670000D03*
X134759000Y-131132000D03*
X125869000Y-71442000D03*
X125869000Y-79062000D03*
X124599000Y-122242000D03*
X123329000Y-144467000D03*
X215785000Y-87190000D03*
X213245000Y-82745000D03*
X126504000Y-137482000D03*
X211848000Y-186250000D03*
X132219000Y-99382000D03*
X176276000Y-173736000D03*
X125869000Y-160977000D03*
X216928000Y-177995000D03*
X142379000Y-99382000D03*
X224675000Y-111320000D03*
X214515000Y-110685000D03*
X137299000Y-80967000D03*
X133489000Y-154627000D03*
X133489000Y-74617000D03*
X224548000Y-134815000D03*
X138569000Y-148912000D03*
X224548000Y-139895000D03*
X213880000Y-113225000D03*
X129447200Y-129975281D03*
X125869000Y-98747000D03*
X224548000Y-181805000D03*
X225310000Y-99890000D03*
X139839000Y-101287000D03*
X124599000Y-82872000D03*
X209308000Y-136085000D03*
X133489000Y-125417000D03*
X215658000Y-131005000D03*
X123329000Y-98747000D03*
X214388000Y-135450000D03*
X224548000Y-127195000D03*
X137934000Y-66870000D03*
X134886000Y-61282000D03*
X120662000Y-64330000D03*
X134632000Y-174820000D03*
X214515000Y-82745000D03*
X130949000Y-81602000D03*
D26*
X164604000Y-142308000D03*
D24*
X220865000Y-78935000D03*
X135394000Y-148912000D03*
X136029000Y-77157000D03*
X213753000Y-162755000D03*
X130949000Y-158437000D03*
X130949000Y-79062000D03*
X222008000Y-158310000D03*
X127139000Y-124782000D03*
X222135000Y-80205000D03*
X222135000Y-89095000D03*
X124599000Y-152087000D03*
X123329000Y-80332000D03*
X223278000Y-150690000D03*
X217055000Y-106240000D03*
X227215000Y-90365000D03*
X173482000Y-173736000D03*
X176288000Y-176598000D03*
X225818000Y-167200000D03*
X225945000Y-102430000D03*
X218833000Y-174185000D03*
X227088000Y-176725000D03*
X124599000Y-110177000D03*
X124599000Y-158437000D03*
X137172000Y-174820000D03*
X205498000Y-162755000D03*
X138569000Y-151452000D03*
X213245000Y-80205000D03*
X132854000Y-87952000D03*
X130949000Y-77157000D03*
X128409000Y-157167000D03*
X128409000Y-128592000D03*
X227088000Y-181805000D03*
X214388000Y-179265000D03*
X222008000Y-185615000D03*
X122059000Y-94937000D03*
X216928000Y-181805000D03*
X124599000Y-71442000D03*
X133489000Y-103827000D03*
X211848000Y-181170000D03*
X223278000Y-151960000D03*
X122059000Y-82872000D03*
X224548000Y-176725000D03*
X133489000Y-108907000D03*
X225310000Y-75125000D03*
X134759000Y-105097000D03*
X223405000Y-112590000D03*
X133489000Y-151452000D03*
X137299000Y-152722000D03*
X125869000Y-150817000D03*
X129679000Y-79062000D03*
X215658000Y-177995000D03*
X127139000Y-81602000D03*
X174764000Y-115384000D03*
X213118000Y-183710000D03*
X122059000Y-111447000D03*
X128409000Y-75887000D03*
X227088000Y-142435000D03*
X224675000Y-80205000D03*
X132219000Y-110177000D03*
X218000200Y-135407002D03*
X124599000Y-149547000D03*
X132092000Y-174820000D03*
X227088000Y-128465000D03*
X227088000Y-190695000D03*
X210705000Y-113225000D03*
X224548000Y-162120000D03*
X213118000Y-181805000D03*
X215785000Y-84015000D03*
X136029000Y-125417000D03*
X218325000Y-77665000D03*
X136029000Y-154627000D03*
X127139000Y-152087000D03*
X123329000Y-111447000D03*
X136029000Y-126687000D03*
X129552000Y-179265000D03*
X124599000Y-148277000D03*
X134759000Y-150182000D03*
X211848000Y-135450000D03*
X224675000Y-102430000D03*
X124599000Y-81602000D03*
X128409000Y-124147000D03*
X222135000Y-115130000D03*
X136029000Y-107637000D03*
X220738000Y-133545000D03*
D26*
X178308000Y-156250000D03*
D24*
X125869000Y-127322000D03*
X227215000Y-82745000D03*
X204355000Y-113225000D03*
X130822000Y-185615000D03*
X224040000Y-99890000D03*
X222008000Y-155770000D03*
X215785000Y-106240000D03*
X137299000Y-151452000D03*
X125742000Y-177995000D03*
X130949000Y-84142000D03*
X218198000Y-181805000D03*
X222135000Y-102430000D03*
X130822000Y-180535000D03*
X127139000Y-111447000D03*
X214388000Y-134180000D03*
X129679000Y-110177000D03*
X131584000Y-87952000D03*
X216928000Y-186250000D03*
X132219000Y-85412000D03*
X218325000Y-108780000D03*
X133489000Y-77157000D03*
X225945000Y-117670000D03*
X224675000Y-110050000D03*
X227088000Y-129735000D03*
X137299000Y-74617000D03*
X123202000Y-170375000D03*
X125742000Y-176725000D03*
X172732000Y-174566000D03*
X224675000Y-116400000D03*
X211975000Y-110685000D03*
X224548000Y-179265000D03*
X227215000Y-110050000D03*
X224675000Y-107510000D03*
X213118000Y-154500000D03*
X209435000Y-86555000D03*
X138950000Y-61282000D03*
X128409000Y-77157000D03*
X134632000Y-181805000D03*
X125869000Y-103827000D03*
X125869000Y-158437000D03*
X225818000Y-132275000D03*
X125234000Y-137482000D03*
X218325000Y-87190000D03*
X215785000Y-85920000D03*
X180399000Y-210380000D03*
X218960000Y-99890000D03*
X211848000Y-161485000D03*
X125869000Y-106367000D03*
X136029000Y-132402000D03*
X224548000Y-128465000D03*
X222135000Y-112590000D03*
X218325000Y-101160000D03*
X129679000Y-80332000D03*
X130822000Y-183075000D03*
X193481998Y-140960000D03*
X175272000Y-174566000D03*
X127139000Y-77792000D03*
X129679000Y-151452000D03*
X136029000Y-81602000D03*
X208165000Y-88460000D03*
X124599000Y-77792000D03*
X210578000Y-136720000D03*
X215785000Y-101160000D03*
X224675000Y-113860000D03*
X223913000Y-149420000D03*
X223278000Y-127195000D03*
X249186000Y-204030000D03*
X249186000Y-202252000D03*
D25*
X186194000Y-107510000D03*
D24*
X170942000Y-173736000D03*
X128409000Y-105097000D03*
X222135000Y-78935000D03*
X136029000Y-157167000D03*
X216437372Y-75317215D03*
X222008000Y-190695000D03*
X125742000Y-181805000D03*
X186944000Y-129032000D03*
X227088000Y-154500000D03*
X214388000Y-183710000D03*
X122059000Y-107637000D03*
X123329000Y-160977000D03*
X132219000Y-80332000D03*
X133489000Y-82872000D03*
X225818000Y-185615000D03*
X121932000Y-170375000D03*
X222135000Y-76395000D03*
X218083556Y-162829297D03*
X123329000Y-148277000D03*
X138569000Y-150182000D03*
X215785000Y-80205000D03*
X186866000Y-135540000D03*
X124472000Y-171645000D03*
X225818000Y-177995000D03*
X225818000Y-176725000D03*
X219468000Y-129735000D03*
X124599000Y-124782000D03*
X224675000Y-104970000D03*
X127139000Y-73982000D03*
X220738000Y-136720000D03*
X125869000Y-77792000D03*
X211975000Y-106875000D03*
X137299000Y-127957000D03*
X225945000Y-116400000D03*
X220865000Y-77665000D03*
X224675000Y-101160000D03*
X127012000Y-170375000D03*
X222135000Y-103700000D03*
X217055000Y-88460000D03*
X129552000Y-185615000D03*
X128409000Y-111447000D03*
X138442000Y-177360000D03*
X213245000Y-87190000D03*
X127139000Y-127322000D03*
X123329000Y-86682000D03*
X215658000Y-154500000D03*
X123202000Y-181805000D03*
X210578000Y-132275000D03*
X215658000Y-186250000D03*
X216928000Y-129735000D03*
X122059000Y-72712000D03*
X124599000Y-97477000D03*
X130949000Y-148912000D03*
X225818000Y-165930000D03*
X133362000Y-184345000D03*
X210578000Y-162755000D03*
X216293000Y-149420000D03*
X125869000Y-73982000D03*
X248805000Y-196918000D03*
X204228000Y-137990000D03*
X194576000Y-128592000D03*
X123202000Y-177995000D03*
X225818000Y-137355000D03*
X129679000Y-106367000D03*
X171550000Y-144428000D03*
X123329000Y-72712000D03*
X128409000Y-126687000D03*
X220865000Y-81475000D03*
X205625000Y-88460000D03*
X219468000Y-181805000D03*
X223278000Y-188155000D03*
X157746000Y-116908000D03*
X227088000Y-185615000D03*
X223278000Y-153230000D03*
X124599000Y-79062000D03*
X123329000Y-75252000D03*
X129679000Y-86682000D03*
X123329000Y-101287000D03*
X122059000Y-102557000D03*
X214515000Y-81475000D03*
X127139000Y-150817000D03*
X139839000Y-127957000D03*
X225818000Y-155770000D03*
D26*
X167910000Y-147670000D03*
D24*
X137299000Y-78427000D03*
X215785000Y-76395000D03*
X132219000Y-108907000D03*
X129044000Y-137482000D03*
X121932000Y-184345000D03*
X130949000Y-157167000D03*
X137299000Y-100652000D03*
X211975000Y-82110000D03*
X139839000Y-76522000D03*
X123329000Y-102557000D03*
X215785000Y-108780000D03*
X125742000Y-184345000D03*
X129552000Y-174820000D03*
X223405000Y-78935000D03*
X211848000Y-137990000D03*
X136029000Y-151452000D03*
X125742000Y-172915000D03*
X216928000Y-150690000D03*
X122059000Y-122242000D03*
X224548000Y-129735000D03*
X224548000Y-141165000D03*
X129679000Y-155897000D03*
X223405000Y-81475000D03*
X220865000Y-113225000D03*
X222008000Y-177995000D03*
X139839000Y-74617000D03*
X122059000Y-76522000D03*
X127139000Y-106367000D03*
X227088000Y-164660000D03*
X223278000Y-139895000D03*
X132219000Y-131132000D03*
X134759000Y-81602000D03*
X114566000Y-64330000D03*
X213118000Y-131005000D03*
X128409000Y-85412000D03*
X223405000Y-91635000D03*
X227215000Y-87825000D03*
X224675000Y-76395000D03*
X131457000Y-186885000D03*
X222135000Y-113860000D03*
X127139000Y-157167000D03*
X124599000Y-157167000D03*
X224675000Y-92905000D03*
X224548000Y-167200000D03*
X130949000Y-160977000D03*
X222008000Y-128465000D03*
X124472000Y-184345000D03*
X215658000Y-133545000D03*
X214388000Y-161485000D03*
X132219000Y-124147000D03*
X123329000Y-136212000D03*
X132219000Y-133672000D03*
X223278000Y-165930000D03*
X214388000Y-184980000D03*
X248805000Y-198696000D03*
X122059000Y-97477000D03*
X127139000Y-75252000D03*
X217055000Y-107510000D03*
X176288000Y-175582000D03*
X209308000Y-162755000D03*
X225183000Y-174185000D03*
X227215000Y-111320000D03*
X138950000Y-66870000D03*
X213118000Y-186250000D03*
X227215000Y-103700000D03*
X222008000Y-131005000D03*
X123329000Y-154627000D03*
X209435000Y-83380000D03*
X210578000Y-135450000D03*
X139839000Y-148912000D03*
X139839000Y-126052000D03*
X209308000Y-160850000D03*
X126504000Y-87952000D03*
X137299000Y-155262000D03*
X127139000Y-79062000D03*
X220738000Y-150690000D03*
X122059000Y-153357000D03*
X213118000Y-132275000D03*
X128409000Y-133672000D03*
X124599000Y-101287000D03*
X220738000Y-135450000D03*
X217055000Y-80205000D03*
X216928000Y-151960000D03*
X227215000Y-77665000D03*
X222135000Y-101160000D03*
X135902000Y-181805000D03*
X127139000Y-147007000D03*
X220738000Y-184980000D03*
X214388000Y-157040000D03*
X223405000Y-85285000D03*
X218325000Y-103700000D03*
X218198000Y-179265000D03*
X157873000Y-122750000D03*
X125869000Y-157167000D03*
X129679000Y-101922000D03*
X227088000Y-157040000D03*
X225818000Y-139895000D03*
X214388000Y-155770000D03*
X139839000Y-99382000D03*
X223278000Y-164660000D03*
X137299000Y-103192000D03*
X133489000Y-124147000D03*
X129679000Y-81602000D03*
X137299000Y-104462000D03*
X225183000Y-149420000D03*
X141109000Y-124147000D03*
X123329000Y-79062000D03*
X218325000Y-102430000D03*
X139712000Y-177360000D03*
X211975000Y-87190000D03*
X223278000Y-186885000D03*
X227088000Y-133545000D03*
X127139000Y-76522000D03*
X223405000Y-106240000D03*
X209435000Y-113225000D03*
X133489000Y-106367000D03*
X227215000Y-81475000D03*
X220865000Y-102430000D03*
X216928000Y-158310000D03*
X138569000Y-80332000D03*
X125869000Y-100017000D03*
X125869000Y-134942000D03*
X127012000Y-181805000D03*
X158000000Y-128084000D03*
X210578000Y-160215000D03*
X187210000Y-124020000D03*
X137172000Y-179900000D03*
X227088000Y-188155000D03*
X221500000Y-75125000D03*
X122059000Y-71442000D03*
X129679000Y-75887000D03*
X125869000Y-96207000D03*
X129679000Y-157167000D03*
X218325000Y-81475000D03*
X206768000Y-137990000D03*
X210578000Y-157040000D03*
X129447200Y-124230049D03*
X137172000Y-177360000D03*
X123202000Y-179265000D03*
X170192000Y-178630000D03*
X172720000Y-173736000D03*
X215658000Y-183075000D03*
X213245000Y-110685000D03*
X128409000Y-103827000D03*
X129679000Y-107637000D03*
X225945000Y-90365000D03*
X128409000Y-100652000D03*
X213118000Y-134180000D03*
X219595000Y-107510000D03*
X214388000Y-180535000D03*
X177812000Y-177614000D03*
X129552000Y-181805000D03*
X224548000Y-177995000D03*
X133489000Y-150182000D03*
X130949000Y-155897000D03*
X132727000Y-186885000D03*
X130822000Y-179265000D03*
X225818000Y-129735000D03*
X216928000Y-183075000D03*
X124599000Y-103827000D03*
X124599000Y-129862000D03*
X176288000Y-177614000D03*
X225945000Y-108780000D03*
X135267000Y-173550000D03*
X222135000Y-84015000D03*
X138950000Y-65854000D03*
X215785000Y-103700000D03*
X127139000Y-80332000D03*
X127012000Y-174185000D03*
X223278000Y-134815000D03*
X137299000Y-105732000D03*
X129447200Y-136286297D03*
X224675000Y-117670000D03*
X130949000Y-105097000D03*
X223405000Y-92905000D03*
X218325000Y-104970000D03*
X134886000Y-60266000D03*
X138569000Y-125417000D03*
X127520000Y-66362000D03*
X227088000Y-136085000D03*
X124599000Y-107637000D03*
X123329000Y-129862000D03*
X224548000Y-142435000D03*
X211848000Y-187520000D03*
X133489000Y-75887000D03*
X130949000Y-154627000D03*
X225818000Y-164660000D03*
X137299000Y-125417000D03*
X138569000Y-127957000D03*
X123329000Y-134942000D03*
X128409000Y-136212000D03*
X225945000Y-107510000D03*
X223405000Y-116400000D03*
X142379000Y-74617000D03*
X134759000Y-100652000D03*
X223278000Y-138625000D03*
X124599000Y-153357000D03*
X210705000Y-84650000D03*
X170192000Y-175582000D03*
X214388000Y-158945000D03*
X134759000Y-78427000D03*
D26*
X168668000Y-206824000D03*
D24*
X214515000Y-107510000D03*
X215785000Y-113225000D03*
X225945000Y-110050000D03*
X138950000Y-64838000D03*
X223405000Y-102430000D03*
X220738000Y-162755000D03*
X218325000Y-106240000D03*
X225818000Y-188155000D03*
X133489000Y-101922000D03*
X177050000Y-176598000D03*
X222135000Y-87825000D03*
X227088000Y-165930000D03*
X127139000Y-158437000D03*
X225945000Y-89095000D03*
X224675000Y-106240000D03*
X227088000Y-141165000D03*
X124599000Y-102557000D03*
X125869000Y-105097000D03*
X223278000Y-125925000D03*
X219595000Y-76395000D03*
X225818000Y-134815000D03*
X123329000Y-124782000D03*
X216928000Y-176725000D03*
X224548000Y-175455000D03*
X220865000Y-107510000D03*
X209308000Y-137990000D03*
X209435000Y-84650000D03*
X213245000Y-81475000D03*
X133489000Y-148912000D03*
X214388000Y-131005000D03*
X211975000Y-109415000D03*
X210578000Y-161485000D03*
X127139000Y-72712000D03*
X123329000Y-122242000D03*
X223913000Y-124655000D03*
X223278000Y-185615000D03*
X215658000Y-151960000D03*
X123329000Y-94937000D03*
X127139000Y-101287000D03*
X213118000Y-161485000D03*
X124599000Y-127322000D03*
X211975000Y-88460000D03*
X222135000Y-116400000D03*
X123329000Y-97477000D03*
X123202000Y-183075000D03*
X133489000Y-128592000D03*
X210578000Y-134180000D03*
X121932000Y-172915000D03*
X220230000Y-75125000D03*
X219468000Y-183075000D03*
X125869000Y-122242000D03*
X130314000Y-87952000D03*
X215658000Y-180535000D03*
X122059000Y-136212000D03*
X227215000Y-104970000D03*
X220865000Y-104970000D03*
X137172000Y-178630000D03*
X216928000Y-128465000D03*
X227088000Y-139895000D03*
X132092000Y-173550000D03*
X215658000Y-135450000D03*
X136029000Y-100652000D03*
X132092000Y-176090000D03*
X122059000Y-128592000D03*
X216928000Y-184980000D03*
X125869000Y-76522000D03*
X127139000Y-159707000D03*
X215658000Y-127195000D03*
X123329000Y-100017000D03*
X219595000Y-111955000D03*
X128409000Y-99382000D03*
X211975000Y-113225000D03*
X130949000Y-100652000D03*
X179197000Y-148209000D03*
X124599000Y-134942000D03*
X164392619Y-108132621D03*
X222008000Y-183075000D03*
X209308000Y-185615000D03*
X194576000Y-130535997D03*
X205625000Y-113225000D03*
X227088000Y-191296000D03*
X128409000Y-158437000D03*
X130187000Y-186885000D03*
X220738000Y-155770000D03*
X133489000Y-79062000D03*
X223405000Y-104970000D03*
X224548000Y-154500000D03*
X133489000Y-153357000D03*
X123329000Y-85412000D03*
X127139000Y-102557000D03*
X127139000Y-98747000D03*
X128282000Y-174820000D03*
X122059000Y-127322000D03*
X132219000Y-81602000D03*
X129679000Y-159707000D03*
X171716000Y-177614000D03*
X132092000Y-181805000D03*
X129679000Y-85412000D03*
X219468000Y-133545000D03*
X137299000Y-75887000D03*
X219595000Y-101160000D03*
X139839000Y-152722000D03*
X125234000Y-87952000D03*
X224675000Y-87825000D03*
X225818000Y-150690000D03*
X210578000Y-184980000D03*
X223405000Y-107510000D03*
X122059000Y-98747000D03*
X222008000Y-154500000D03*
X122059000Y-131132000D03*
X215785000Y-78935000D03*
X127139000Y-128592000D03*
X125869000Y-131132000D03*
X129426313Y-128653583D03*
X227215000Y-86555000D03*
X127139000Y-148277000D03*
X218198000Y-186250000D03*
X223278000Y-184345000D03*
X218198000Y-176725000D03*
X121932000Y-175455000D03*
X219595000Y-88460000D03*
X220738000Y-151960000D03*
X132092000Y-184345000D03*
X132219000Y-111447000D03*
X225818000Y-158310000D03*
X122059000Y-103827000D03*
X130949000Y-110177000D03*
X223278000Y-183075000D03*
X134759000Y-101922000D03*
X217055000Y-104970000D03*
X209435000Y-111320000D03*
X194576000Y-123512000D03*
X211848000Y-136720000D03*
X211848000Y-183710000D03*
X175260000Y-173736000D03*
X132219000Y-100652000D03*
X132219000Y-75887000D03*
X209308000Y-134180000D03*
X225945000Y-113860000D03*
X218325000Y-88460000D03*
X132219000Y-158437000D03*
X225818000Y-154500000D03*
X223278000Y-128465000D03*
X129044000Y-162247000D03*
X127012000Y-179265000D03*
X129552000Y-180535000D03*
X132219000Y-77157000D03*
X125234000Y-112717000D03*
X134886000Y-66870000D03*
X125869000Y-148277000D03*
X223405000Y-80205000D03*
X218325000Y-80205000D03*
X211848000Y-131640000D03*
X225818000Y-151960000D03*
X127139000Y-86682000D03*
X122059000Y-159707000D03*
X220738000Y-128465000D03*
X223278000Y-136085000D03*
X128282000Y-179265000D03*
X123329000Y-81602000D03*
X128409000Y-129862000D03*
X123329000Y-159707000D03*
X124472000Y-185615000D03*
X219468000Y-186250000D03*
X215658000Y-150690000D03*
X209308000Y-132910000D03*
X227215000Y-84015000D03*
X127012000Y-183075000D03*
X139712000Y-173550000D03*
X175780000Y-137228000D03*
X219468000Y-184980000D03*
X122059000Y-106367000D03*
X127139000Y-155897000D03*
X125869000Y-102557000D03*
X133362000Y-183075000D03*
X220738000Y-132275000D03*
X133489000Y-131132000D03*
X222135000Y-107510000D03*
X227088000Y-132275000D03*
X227215000Y-78935000D03*
X121932000Y-179265000D03*
X220865000Y-108780000D03*
X210705000Y-82745000D03*
X125869000Y-120972000D03*
X124599000Y-126052000D03*
X216928000Y-133545000D03*
X122059000Y-158437000D03*
X216928000Y-187520000D03*
X133489000Y-157167000D03*
X130822000Y-176090000D03*
X142379000Y-124147000D03*
X218000200Y-137953412D03*
X225945000Y-101160000D03*
X141109000Y-74617000D03*
X213245000Y-107510000D03*
X124599000Y-98747000D03*
X123202000Y-175455000D03*
X127012000Y-175455000D03*
X123329000Y-82872000D03*
X123329000Y-128592000D03*
X157746000Y-113098000D03*
X223278000Y-141165000D03*
X122059000Y-101287000D03*
X130949000Y-99382000D03*
X225945000Y-91635000D03*
X213118000Y-180535000D03*
X122059000Y-100017000D03*
X219595000Y-85920000D03*
X127139000Y-71442000D03*
X218325000Y-82745000D03*
X125869000Y-129862000D03*
X130949000Y-103827000D03*
X129552000Y-173550000D03*
X227088000Y-160850000D03*
X227215000Y-101160000D03*
X123329000Y-110177000D03*
X132854000Y-162247000D03*
X218198000Y-184980000D03*
X134632000Y-176090000D03*
X129679000Y-154627000D03*
X132092000Y-183075000D03*
X127139000Y-108907000D03*
X225945000Y-84015000D03*
X122059000Y-126052000D03*
X223278000Y-180535000D03*
X227088000Y-186885000D03*
X227215000Y-113860000D03*
X227088000Y-179265000D03*
X127774000Y-87952000D03*
X128409000Y-160977000D03*
X123329000Y-133672000D03*
X132219000Y-160977000D03*
X123329000Y-150817000D03*
X216928000Y-153230000D03*
X132219000Y-74617000D03*
X225945000Y-103700000D03*
X220865000Y-101160000D03*
X122059000Y-147007000D03*
X215658000Y-181805000D03*
X124599000Y-105097000D03*
X222008000Y-163390000D03*
X225818000Y-142435000D03*
X138569000Y-126687000D03*
X170954000Y-177614000D03*
X217690000Y-75125000D03*
X224548000Y-160850000D03*
X128282000Y-184345000D03*
X122059000Y-149547000D03*
X224675000Y-84015000D03*
X121932000Y-169105000D03*
X211848000Y-160215000D03*
X214388000Y-136720000D03*
X122059000Y-105097000D03*
X215658000Y-157040000D03*
X177050000Y-177614000D03*
X220738000Y-176725000D03*
X124472000Y-176725000D03*
X218325000Y-107510000D03*
X133489000Y-136212000D03*
X122059000Y-75252000D03*
X218198000Y-177995000D03*
X218000200Y-131005000D03*
X224548000Y-158310000D03*
X127012000Y-185615000D03*
X165112000Y-116400000D03*
X125869000Y-108907000D03*
X132092000Y-177995000D03*
X227215000Y-80205000D03*
X219595000Y-84015000D03*
X213245000Y-109415000D03*
X124599000Y-145737000D03*
X213245000Y-104970000D03*
X216928000Y-135450000D03*
X211975000Y-85920000D03*
X124599000Y-84142000D03*
X225818000Y-138625000D03*
X225818000Y-186885000D03*
X132219000Y-153357000D03*
X132219000Y-155897000D03*
X132854000Y-112717000D03*
X122059000Y-96207000D03*
X222135000Y-110050000D03*
X130949000Y-107637000D03*
X213118000Y-160215000D03*
X130949000Y-159707000D03*
X133489000Y-80332000D03*
X216928000Y-157040000D03*
X125742000Y-175455000D03*
X122059000Y-152087000D03*
X223278000Y-167200000D03*
X225945000Y-106240000D03*
X138442000Y-174820000D03*
X220738000Y-183075000D03*
X165227000Y-123063000D03*
X218325000Y-76395000D03*
X125869000Y-84142000D03*
X222008000Y-189425000D03*
X227088000Y-184345000D03*
X225945000Y-85285000D03*
X223278000Y-160850000D03*
X123329000Y-158437000D03*
X209308000Y-182440000D03*
X220738000Y-153230000D03*
X223278000Y-176725000D03*
X216416299Y-99965600D03*
X158006633Y-118905800D03*
X141109000Y-99382000D03*
X137299000Y-126687000D03*
X127139000Y-107637000D03*
X215658000Y-132275000D03*
X133362000Y-173550000D03*
X217055000Y-77665000D03*
X222135000Y-111320000D03*
X125869000Y-128592000D03*
X128409000Y-148912000D03*
X170192000Y-174566000D03*
X218000200Y-125888412D03*
X227215000Y-76395000D03*
X122059000Y-160977000D03*
X123202000Y-171645000D03*
X222135000Y-90365000D03*
X124599000Y-70871000D03*
X177038000Y-173736000D03*
X227215000Y-112590000D03*
X123202000Y-169105000D03*
X132092000Y-179265000D03*
X222008000Y-159580000D03*
X122059000Y-123512000D03*
X210578000Y-158945000D03*
X222008000Y-162120000D03*
X139839000Y-153992000D03*
X219595000Y-108780000D03*
X129679000Y-77157000D03*
X225945000Y-92905000D03*
X128409000Y-82872000D03*
X142379000Y-148912000D03*
X134759000Y-151452000D03*
X134759000Y-129862000D03*
X127647000Y-186885000D03*
X227215000Y-106240000D03*
X132219000Y-107637000D03*
X132219000Y-129862000D03*
X136029000Y-131132000D03*
X124599000Y-86682000D03*
X132219000Y-150182000D03*
X129552000Y-177995000D03*
X217055000Y-85920000D03*
X222135000Y-77665000D03*
X219595000Y-81475000D03*
X130949000Y-101922000D03*
X220738000Y-125925000D03*
X133489000Y-81602000D03*
X124599000Y-133672000D03*
X224548000Y-165930000D03*
X134759000Y-125417000D03*
X139839000Y-124147000D03*
X218059000Y-160274000D03*
X215658000Y-184980000D03*
X129679000Y-100652000D03*
X128409000Y-108907000D03*
X227088000Y-158310000D03*
X135394000Y-124147000D03*
X220738000Y-175455000D03*
X217055000Y-76395000D03*
X122059000Y-144467000D03*
X220865000Y-76395000D03*
X127139000Y-133672000D03*
X219595000Y-104970000D03*
X136029000Y-129862000D03*
X133489000Y-100652000D03*
X224548000Y-188155000D03*
X222008000Y-176725000D03*
X158000000Y-135196000D03*
X123202000Y-172915000D03*
X176288000Y-174566000D03*
X170192000Y-177614000D03*
X223405000Y-89095000D03*
X132219000Y-154627000D03*
X216928000Y-137990000D03*
X122059000Y-145737000D03*
X225945000Y-112590000D03*
X135902000Y-64838000D03*
X124599000Y-96207000D03*
X224548000Y-125925000D03*
X123329000Y-96207000D03*
X224675000Y-81475000D03*
X127012000Y-172915000D03*
X138569000Y-129862000D03*
X194522000Y-135250000D03*
X125869000Y-72712000D03*
X216928000Y-131005000D03*
X213118000Y-157040000D03*
X217055000Y-87190000D03*
X214388000Y-186250000D03*
X132854000Y-137482000D03*
X220738000Y-157040000D03*
X211848000Y-184980000D03*
X224548000Y-190695000D03*
X125869000Y-144467000D03*
X223405000Y-90365000D03*
X124599000Y-128592000D03*
X222008000Y-132275000D03*
X222008000Y-184345000D03*
X137299000Y-129227000D03*
X122059000Y-154627000D03*
X133489000Y-111447000D03*
X223278000Y-179265000D03*
X128917000Y-186885000D03*
X210578000Y-183710000D03*
X225818000Y-159580000D03*
X133362000Y-181805000D03*
X214515000Y-109415000D03*
X220230000Y-99890000D03*
X219671161Y-132251949D03*
X130949000Y-80332000D03*
X129447200Y-125456433D03*
X206768000Y-162755000D03*
X215658000Y-125925000D03*
X158000000Y-138752000D03*
X204228000Y-187520000D03*
X220738000Y-154500000D03*
X128409000Y-107637000D03*
X219595000Y-103700000D03*
X215785000Y-107510000D03*
X125869000Y-154627000D03*
X138569000Y-124147000D03*
X223278000Y-159580000D03*
X222770000Y-99890000D03*
X209308000Y-183710000D03*
X136029000Y-82872000D03*
X129447200Y-134981433D03*
X123329000Y-153357000D03*
X223278000Y-129735000D03*
X223405000Y-82745000D03*
X221373000Y-149420000D03*
X209308000Y-187520000D03*
X220738000Y-129735000D03*
X130822000Y-177995000D03*
X225945000Y-87825000D03*
X223278000Y-162120000D03*
X220738000Y-179265000D03*
X225818000Y-127195000D03*
X208038000Y-137990000D03*
X227088000Y-159580000D03*
X125869000Y-145737000D03*
X222135000Y-82745000D03*
X219765368Y-125753596D03*
X219595000Y-77665000D03*
X139712000Y-175455000D03*
X227088000Y-153230000D03*
X211086000Y-61282000D03*
X219595000Y-87190000D03*
X222008000Y-175455000D03*
X124599000Y-159707000D03*
X125869000Y-152087000D03*
X130949000Y-74617000D03*
X217055000Y-113225000D03*
X121932000Y-177995000D03*
X220738000Y-158310000D03*
X130949000Y-82872000D03*
X171716000Y-175582000D03*
X136029000Y-80332000D03*
X132219000Y-157167000D03*
X217055000Y-110685000D03*
X124599000Y-94937000D03*
X132219000Y-101922000D03*
X224548000Y-133545000D03*
X133489000Y-159707000D03*
X224548000Y-163390000D03*
X124472000Y-175455000D03*
X227088000Y-183075000D03*
X222643000Y-174185000D03*
X177800000Y-173736000D03*
X127139000Y-129862000D03*
X225818000Y-191296000D03*
X177050000Y-175582000D03*
X218059000Y-155194000D03*
X222135000Y-81475000D03*
X170192000Y-176598000D03*
X183400000Y-144848000D03*
X219468000Y-175455000D03*
X129552000Y-183075000D03*
X123329000Y-149547000D03*
X223405000Y-111320000D03*
X124472000Y-169105000D03*
X123964000Y-137482000D03*
X224675000Y-103700000D03*
X215785000Y-111955000D03*
X123329000Y-76522000D03*
X215658000Y-175455000D03*
X127774000Y-112717000D03*
X216928000Y-161485000D03*
X223278000Y-177995000D03*
X220865000Y-84015000D03*
X130949000Y-151452000D03*
X134759000Y-107637000D03*
X125869000Y-123512000D03*
X176911000Y-144526000D03*
X125869000Y-124782000D03*
X136029000Y-101922000D03*
X220865000Y-85920000D03*
X127139000Y-96207000D03*
X129679000Y-82872000D03*
X124599000Y-76522000D03*
X214388000Y-160215000D03*
X136029000Y-127957000D03*
X224548000Y-157040000D03*
X225945000Y-78935000D03*
X220738000Y-161485000D03*
X133362000Y-180535000D03*
X130822000Y-181805000D03*
X135902000Y-174820000D03*
X121932000Y-181805000D03*
X227088000Y-138625000D03*
X123329000Y-71442000D03*
X134759000Y-80332000D03*
X222008000Y-137355000D03*
X209435000Y-88460000D03*
X219468000Y-187520000D03*
X219595000Y-78935000D03*
X137172000Y-173550000D03*
X222008000Y-188155000D03*
X158000000Y-133418000D03*
X224548000Y-132275000D03*
X123202000Y-180535000D03*
X225818000Y-160850000D03*
X222008000Y-127195000D03*
X215658000Y-162755000D03*
X124599000Y-106367000D03*
X221373000Y-174185000D03*
X123329000Y-132402000D03*
X139839000Y-79697000D03*
X129679000Y-108907000D03*
X213118000Y-184980000D03*
X223278000Y-155770000D03*
X136029000Y-106367000D03*
X123329000Y-77792000D03*
X138569000Y-105097000D03*
X125107000Y-186885000D03*
X135902000Y-65854000D03*
X135902000Y-180535000D03*
X128409000Y-110177000D03*
X222135000Y-91635000D03*
X133362000Y-185615000D03*
X126377000Y-186885000D03*
X130949000Y-86682000D03*
X220865000Y-87190000D03*
X123202000Y-185615000D03*
X224548000Y-189425000D03*
X138442000Y-179265000D03*
X121932000Y-185615000D03*
X222643000Y-149420000D03*
X123329000Y-119702000D03*
X224548000Y-191296000D03*
X217055000Y-78935000D03*
X123329000Y-70871000D03*
X138569000Y-100652000D03*
X128409000Y-79062000D03*
X133489000Y-105097000D03*
X125742000Y-169105000D03*
X134759000Y-132402000D03*
X127139000Y-134942000D03*
X223405000Y-101160000D03*
X220738000Y-181805000D03*
X131584000Y-112717000D03*
X133489000Y-160977000D03*
X222008000Y-157040000D03*
X225818000Y-136085000D03*
X222008000Y-165930000D03*
X219782001Y-137876247D03*
X218059000Y-159131000D03*
X217055000Y-81475000D03*
X134759000Y-127957000D03*
X211975000Y-83380000D03*
X214515000Y-84650000D03*
X133489000Y-84142000D03*
X122059000Y-132402000D03*
X210578000Y-186250000D03*
X124599000Y-80332000D03*
X204228000Y-162755000D03*
X125869000Y-111447000D03*
X177050000Y-174566000D03*
X225818000Y-183075000D03*
X128409000Y-151452000D03*
X134759000Y-157167000D03*
X124472000Y-181805000D03*
X217055000Y-82745000D03*
X227215000Y-91635000D03*
X218059000Y-153450806D03*
X124599000Y-120972000D03*
X130949000Y-106367000D03*
X216928000Y-127195000D03*
X225945000Y-104970000D03*
X129679000Y-148912000D03*
X222135000Y-108780000D03*
X128409000Y-155897000D03*
X124599000Y-73982000D03*
X122059000Y-120972000D03*
X127139000Y-149547000D03*
X123329000Y-126052000D03*
X219595000Y-110685000D03*
X223278000Y-163390000D03*
X215658000Y-155770000D03*
X122059000Y-81602000D03*
X223405000Y-115130000D03*
X138569000Y-74617000D03*
X124472000Y-180535000D03*
X128409000Y-80332000D03*
X123329000Y-155897000D03*
X121932000Y-176725000D03*
X222135000Y-86555000D03*
X125869000Y-119702000D03*
X218097497Y-150700970D03*
X122059000Y-124782000D03*
X222643000Y-124655000D03*
X223278000Y-181805000D03*
X125869000Y-97477000D03*
X128409000Y-150182000D03*
X224040000Y-75125000D03*
X227088000Y-155770000D03*
X127012000Y-176725000D03*
X220738000Y-186250000D03*
X128282000Y-177995000D03*
X137299000Y-77157000D03*
X177812000Y-175582000D03*
X132092000Y-180535000D03*
X210578000Y-187520000D03*
X215658000Y-136720000D03*
X122059000Y-119702000D03*
X227215000Y-102430000D03*
X225818000Y-128465000D03*
X224675000Y-78935000D03*
X225945000Y-111320000D03*
X121932000Y-171645000D03*
X128409000Y-81602000D03*
X220865000Y-111955000D03*
X122059000Y-70871000D03*
X124599000Y-123512000D03*
X132219000Y-136212000D03*
X209435000Y-109415000D03*
X127139000Y-136212000D03*
X124599000Y-85412000D03*
X216928000Y-160215000D03*
X224675000Y-77665000D03*
X134632000Y-179265000D03*
X219468000Y-176725000D03*
X223278000Y-154500000D03*
X137934000Y-65854000D03*
X224675000Y-82745000D03*
X128409000Y-154627000D03*
X219595000Y-106240000D03*
X223405000Y-86555000D03*
X227088000Y-163390000D03*
X224675000Y-86555000D03*
X225818000Y-175455000D03*
X123329000Y-84142000D03*
X224548000Y-183075000D03*
X137299000Y-124147000D03*
X128282000Y-173550000D03*
X135902000Y-66870000D03*
X222008000Y-141165000D03*
X125742000Y-174185000D03*
X227088000Y-177995000D03*
X208038000Y-187520000D03*
X173494000Y-174566000D03*
X217690000Y-99890000D03*
X125869000Y-75252000D03*
X216928000Y-179265000D03*
X132219000Y-151452000D03*
X138950000Y-60266000D03*
X219595000Y-113225000D03*
X136029000Y-155897000D03*
X125234000Y-162247000D03*
X217967493Y-152062373D03*
X127012000Y-180535000D03*
X225818000Y-179265000D03*
X222008000Y-180535000D03*
X128409000Y-84142000D03*
X133489000Y-134942000D03*
X122059000Y-155897000D03*
X125869000Y-136212000D03*
X213118000Y-179265000D03*
X224675000Y-115130000D03*
X225945000Y-115130000D03*
X127139000Y-97477000D03*
X214515000Y-106240000D03*
X138569000Y-152722000D03*
X216928000Y-154500000D03*
X136918000Y-61282000D03*
X218059000Y-161544000D03*
X129552000Y-184345000D03*
D26*
X165760531Y-143811523D03*
D24*
X214388000Y-154500000D03*
X220103000Y-174185000D03*
X130822000Y-174820000D03*
X125869000Y-101287000D03*
X133489000Y-132402000D03*
X122059000Y-79062000D03*
X121932000Y-180535000D03*
X134759000Y-106367000D03*
X177558000Y-143070000D03*
X134759000Y-126687000D03*
X139712000Y-178630000D03*
X127139000Y-85412000D03*
X215658000Y-161485000D03*
X170180000Y-173736000D03*
X215785000Y-81475000D03*
X222008000Y-133545000D03*
X223278000Y-131005000D03*
X227215000Y-92905000D03*
X170954000Y-175582000D03*
X223278000Y-142435000D03*
X127139000Y-110177000D03*
X209435000Y-108145000D03*
X213753000Y-187520000D03*
X211848000Y-134180000D03*
X214515000Y-111955000D03*
X215658000Y-158310000D03*
X123329000Y-107637000D03*
X215658000Y-137990000D03*
X220738000Y-131005000D03*
X209308000Y-158945000D03*
X129679000Y-153357000D03*
X219520470Y-128449916D03*
X216928000Y-136720000D03*
X170954000Y-178630000D03*
X122059000Y-129862000D03*
X222008000Y-160850000D03*
X128409000Y-134942000D03*
X129679000Y-103827000D03*
X136029000Y-75887000D03*
X134759000Y-154627000D03*
X125869000Y-153357000D03*
X218000200Y-127134979D03*
X186309000Y-115316000D03*
X219468000Y-136720000D03*
X225945000Y-77665000D03*
X225818000Y-181805000D03*
X214388000Y-132275000D03*
X142252000Y-173550000D03*
X213880000Y-88460000D03*
X223405000Y-110050000D03*
X208038000Y-162755000D03*
X213118000Y-155770000D03*
X122059000Y-73982000D03*
X215658000Y-187520000D03*
X219595000Y-80205000D03*
X134632000Y-177360000D03*
X215785000Y-82745000D03*
X138569000Y-75887000D03*
X124472000Y-174185000D03*
X218198000Y-187520000D03*
X249186000Y-200474000D03*
X213118000Y-158945000D03*
X225945000Y-76395000D03*
X223278000Y-191296000D03*
X128409000Y-132402000D03*
X102374000Y-64330000D03*
X224548000Y-185615000D03*
X127139000Y-123512000D03*
X121932000Y-174185000D03*
X225818000Y-131005000D03*
X218325000Y-84015000D03*
X223278000Y-190695000D03*
X213753000Y-137990000D03*
X218325000Y-111955000D03*
X135394000Y-99382000D03*
X215785000Y-110685000D03*
X205498000Y-137990000D03*
X125869000Y-70871000D03*
X220865000Y-110685000D03*
X132219000Y-134942000D03*
X225818000Y-153230000D03*
X220738000Y-177995000D03*
X223405000Y-76395000D03*
X227088000Y-137355000D03*
X211848000Y-182440000D03*
X222008000Y-134815000D03*
X138569000Y-154627000D03*
X125742000Y-171645000D03*
X122059000Y-84142000D03*
X136918000Y-66870000D03*
X124599000Y-100017000D03*
X206768000Y-187520000D03*
X124472000Y-172915000D03*
X225945000Y-86555000D03*
X211848000Y-157675000D03*
X125869000Y-159707000D03*
X217839699Y-136551963D03*
X216293000Y-124655000D03*
X208165000Y-113225000D03*
X134632000Y-180535000D03*
X134759000Y-77157000D03*
X227088000Y-180535000D03*
X138442000Y-176090000D03*
X122059000Y-108907000D03*
X135902000Y-179265000D03*
X130949000Y-85412000D03*
X217563000Y-124655000D03*
D26*
X174002000Y-214952000D03*
D24*
X137299000Y-130497000D03*
X125869000Y-107637000D03*
X123329000Y-120972000D03*
X205498000Y-187520000D03*
X225183000Y-124655000D03*
X132092000Y-185615000D03*
X177812000Y-176598000D03*
X210705000Y-111955000D03*
X127139000Y-131132000D03*
X214388000Y-129735000D03*
X223913000Y-174185000D03*
X225818000Y-141165000D03*
X219468000Y-131005000D03*
X222135000Y-85285000D03*
X227215000Y-117670000D03*
X135394000Y-74617000D03*
X215785000Y-104970000D03*
X132219000Y-148912000D03*
X130949000Y-153357000D03*
X219468000Y-135450000D03*
X223278000Y-158310000D03*
X125869000Y-80332000D03*
X211848000Y-132910000D03*
X225818000Y-157040000D03*
X137934000Y-64838000D03*
X167906000Y-107764000D03*
X225818000Y-190695000D03*
X220865000Y-82745000D03*
X227088000Y-151960000D03*
X137299000Y-101922000D03*
X220865000Y-80205000D03*
X210705000Y-85920000D03*
X217055000Y-111955000D03*
X123329000Y-103827000D03*
X123329000Y-123512000D03*
X177812000Y-178630000D03*
X141109000Y-148912000D03*
X125742000Y-170375000D03*
X132219000Y-79062000D03*
X128409000Y-86682000D03*
X217563000Y-174185000D03*
X222008000Y-136085000D03*
X134759000Y-103192000D03*
X222008000Y-164660000D03*
X140982000Y-173550000D03*
X214515000Y-80205000D03*
X133362000Y-177995000D03*
X222008000Y-179265000D03*
X180070000Y-149733000D03*
X220103000Y-149420000D03*
X129447200Y-126796061D03*
X220865000Y-103700000D03*
X133489000Y-129862000D03*
X222008000Y-150690000D03*
X221500000Y-99890000D03*
X224548000Y-153230000D03*
X128282000Y-181805000D03*
X213245000Y-84650000D03*
X225945000Y-80205000D03*
X127139000Y-154627000D03*
X223278000Y-175455000D03*
X219468000Y-177995000D03*
X219468000Y-180535000D03*
X130949000Y-108907000D03*
X222135000Y-106240000D03*
X132219000Y-126687000D03*
X125869000Y-86682000D03*
X216928000Y-175455000D03*
X225818000Y-125925000D03*
X129044000Y-112717000D03*
X227088000Y-175455000D03*
X122059000Y-77792000D03*
X125869000Y-81602000D03*
X221373000Y-124655000D03*
X134759000Y-75887000D03*
X218000200Y-133545000D03*
X129679000Y-105097000D03*
X128409000Y-101922000D03*
X136029000Y-78427000D03*
X135902000Y-176090000D03*
X220738000Y-180535000D03*
X108470000Y-64584000D03*
X223405000Y-84015000D03*
X122059000Y-134942000D03*
X129447200Y-133767028D03*
X224548000Y-151960000D03*
X225818000Y-163390000D03*
X180461000Y-115130000D03*
X125869000Y-133672000D03*
X129552000Y-176090000D03*
X227215000Y-115130000D03*
X220738000Y-160215000D03*
X171716000Y-178630000D03*
X177050000Y-178630000D03*
X123329000Y-131132000D03*
X222008000Y-186885000D03*
X125869000Y-147007000D03*
X132219000Y-125417000D03*
X222008000Y-139895000D03*
X210705000Y-88460000D03*
X224675000Y-112590000D03*
X133362000Y-179265000D03*
X224548000Y-150690000D03*
X124599000Y-136212000D03*
X227088000Y-150690000D03*
X217055000Y-102430000D03*
X225818000Y-162120000D03*
X123964000Y-112717000D03*
X130314000Y-112717000D03*
X132219000Y-103827000D03*
X133489000Y-86682000D03*
X213118000Y-135450000D03*
X128409000Y-131132000D03*
X127139000Y-82872000D03*
X218198000Y-175455000D03*
X129679000Y-99382000D03*
X139839000Y-103192000D03*
X137299000Y-150182000D03*
X224548000Y-136085000D03*
X129679000Y-74617000D03*
X224548000Y-155770000D03*
X223278000Y-137355000D03*
X123329000Y-147007000D03*
X123202000Y-174185000D03*
X138569000Y-103192000D03*
X227215000Y-116400000D03*
X130949000Y-75887000D03*
X132219000Y-132402000D03*
X216928000Y-155770000D03*
X125742000Y-185615000D03*
X124599000Y-72712000D03*
X137299000Y-99382000D03*
X133489000Y-85412000D03*
X177812000Y-174566000D03*
X128409000Y-153357000D03*
X123329000Y-152087000D03*
X220865000Y-88460000D03*
X123964000Y-87952000D03*
X130949000Y-111447000D03*
X218960000Y-75125000D03*
X139839000Y-104462000D03*
X183284000Y-137375158D03*
X127139000Y-160977000D03*
X216928000Y-162755000D03*
X214388000Y-181805000D03*
X124472000Y-179265000D03*
X137299000Y-148912000D03*
X123329000Y-105097000D03*
X224675000Y-108780000D03*
X128409000Y-159707000D03*
X130822000Y-184345000D03*
X122059000Y-85412000D03*
X223405000Y-113860000D03*
X125869000Y-149547000D03*
X215658000Y-176725000D03*
X223278000Y-189425000D03*
X206895000Y-113225000D03*
X125869000Y-110177000D03*
X134759000Y-152722000D03*
X138569000Y-78427000D03*
X222008000Y-153230000D03*
X128282000Y-185615000D03*
X124599000Y-155897000D03*
X122059000Y-80332000D03*
X224548000Y-138625000D03*
X218000200Y-132214979D03*
X139839000Y-78427000D03*
X126504000Y-112717000D03*
X214515000Y-87190000D03*
X218198000Y-180535000D03*
X170954000Y-174566000D03*
X214515000Y-104970000D03*
X122059000Y-150817000D03*
X213245000Y-111955000D03*
X124599000Y-111447000D03*
X132219000Y-106367000D03*
X127012000Y-177995000D03*
X217055000Y-103700000D03*
X224675000Y-89095000D03*
X223405000Y-77665000D03*
X211848000Y-158945000D03*
X137934000Y-61282000D03*
X128282000Y-180535000D03*
X213245000Y-85920000D03*
X227088000Y-131005000D03*
X224675000Y-90365000D03*
X123329000Y-127322000D03*
X225818000Y-189425000D03*
X138569000Y-101922000D03*
X224548000Y-159580000D03*
X214515000Y-85920000D03*
X217297000Y-149352000D03*
X218059000Y-157734000D03*
X209308000Y-157675000D03*
X127012000Y-184345000D03*
X127139000Y-84142000D03*
X215658000Y-128465000D03*
X130949000Y-150182000D03*
X165516610Y-127833297D03*
X222770000Y-75125000D03*
X127139000Y-100017000D03*
X127774000Y-162247000D03*
X132219000Y-84142000D03*
X168283999Y-115564668D03*
X124599000Y-119702000D03*
X170954000Y-176598000D03*
X138442000Y-173550000D03*
X124599000Y-132402000D03*
X227088000Y-167200000D03*
X227215000Y-89095000D03*
X127139000Y-122242000D03*
X124599000Y-108907000D03*
X127774000Y-137482000D03*
X124599000Y-75252000D03*
X220738000Y-137990000D03*
X210705000Y-110685000D03*
D26*
X177812000Y-215206000D03*
D24*
X129679000Y-84142000D03*
X213118000Y-136720000D03*
X171716000Y-174566000D03*
X210705000Y-87190000D03*
X210578000Y-137990000D03*
X122059000Y-86682000D03*
X134759000Y-155897000D03*
X215658000Y-153230000D03*
X227215000Y-108780000D03*
X133489000Y-110177000D03*
X123837000Y-186885000D03*
X129679000Y-160977000D03*
X227088000Y-127195000D03*
X123964000Y-162247000D03*
X133489000Y-126687000D03*
X220103000Y-124655000D03*
X215785000Y-77665000D03*
X123329000Y-73982000D03*
X128409000Y-125417000D03*
X227088000Y-162120000D03*
X217055000Y-108780000D03*
X127139000Y-126052000D03*
X125742000Y-180535000D03*
X124599000Y-160977000D03*
X218325000Y-113225000D03*
X125742000Y-179265000D03*
X128409000Y-74617000D03*
X130822000Y-173550000D03*
X218198000Y-183075000D03*
X222008000Y-151960000D03*
X136918000Y-65854000D03*
X225818000Y-184345000D03*
X227088000Y-134815000D03*
X223278000Y-133545000D03*
X137172000Y-176090000D03*
X124472000Y-170375000D03*
X127139000Y-120972000D03*
X135902000Y-177360000D03*
X123329000Y-145737000D03*
X218000200Y-129698412D03*
X128282000Y-183075000D03*
X130314000Y-162247000D03*
X129679000Y-111447000D03*
X220738000Y-127195000D03*
X218000200Y-128404979D03*
X123202000Y-184345000D03*
X222008000Y-129735000D03*
X125869000Y-85412000D03*
X127139000Y-103827000D03*
X127139000Y-145737000D03*
%TO.N,+3.3V*%
X165354000Y-128667600D03*
X158000000Y-111574000D03*
X167056024Y-115132098D03*
X165199000Y-117249000D03*
X163486376Y-105389999D03*
X190258000Y-82110000D03*
X190131000Y-77030000D03*
X180848000Y-110617000D03*
X157873000Y-136974000D03*
X249059000Y-187647000D03*
X161556000Y-138752000D03*
X158000000Y-120464000D03*
X224040000Y-61790000D03*
X192036000Y-127703000D03*
X188575200Y-144594000D03*
X187210000Y-110558000D03*
X155460000Y-190822000D03*
X160667000Y-121734000D03*
X174792001Y-156249999D03*
X194322000Y-138244000D03*
X224040000Y-64076000D03*
X172478000Y-108780000D03*
X158000000Y-131640000D03*
X154444000Y-113606000D03*
X177304000Y-141546000D03*
X191948000Y-124440000D03*
X158000000Y-129862000D03*
X246900000Y-188790000D03*
X171550000Y-142728000D03*
X191800000Y-136046000D03*
X170700000Y-159072000D03*
X175018000Y-159834000D03*
X190141000Y-79560000D03*
X192290000Y-116400000D03*
%TO.N,/LS_DELANTERO_DX_180G*%
X160324620Y-194513380D03*
X158778830Y-139841914D03*
X163588000Y-137863000D03*
%TO.N,/LS_DELANTERO_DX_0G*%
X164477000Y-137863000D03*
X159002768Y-140831920D03*
X161305963Y-194929037D03*
%TO.N,/LS_DELANTERO_IX_180G*%
X159776039Y-136053113D03*
X163131500Y-195897500D03*
X165874000Y-135831000D03*
%TO.N,/LS_DELANTERO_IX_0G*%
X160555000Y-139802002D03*
X164205050Y-195072000D03*
%TO.N,/nrst*%
X179590000Y-70934000D03*
X180099734Y-136593867D03*
%TO.N,/PWM_DELANTERO_IZQ*%
X129000000Y-91952500D03*
X189185749Y-96404749D03*
X190258000Y-124528000D03*
%TO.N,/PWM_DELANTERO_DER*%
X220000000Y-70997500D03*
X186448000Y-123131000D03*
X189865000Y-73533000D03*
%TO.N,/DIR_B_DELANTERO_IZQ*%
X177177000Y-72077000D03*
X177079600Y-112066530D03*
X130272000Y-70997500D03*
%TO.N,/DIR_A_DELANTERO_IZQ*%
X177812000Y-95953000D03*
X178056350Y-110465026D03*
X130271999Y-91952502D03*
%TO.N,/PWM_TRASERO_IZQ*%
X192666172Y-188452878D03*
X192798000Y-121734000D03*
X129000000Y-191012500D03*
%TO.N,/PWM_TRASERO_DER*%
X194425661Y-121241159D03*
X220000000Y-170057500D03*
%TO.N,/DIR_A_MOTOR_IZQ*%
X154305000Y-162052000D03*
X175387000Y-132969000D03*
X130272000Y-141482500D03*
X154305000Y-141478000D03*
X175993612Y-115980723D03*
X130272000Y-116717500D03*
X130272000Y-166247498D03*
%TO.N,/DIR_B_MOTOR_IZQ*%
X162687000Y-97536000D03*
X164799911Y-140546600D03*
X130272000Y-120527500D03*
X130272000Y-95762500D03*
X130272000Y-145292500D03*
X165736662Y-124888400D03*
%TO.N,/PWM_MOTOR_1_IZQ*%
X129000000Y-116717500D03*
X184697432Y-137012238D03*
X184879947Y-119231200D03*
%TO.N,/PWM_MOTOR_2_IZQ*%
X166255000Y-140530000D03*
X129000000Y-141482500D03*
%TO.N,/PWM_MOTOR_3_IZQ*%
X129000000Y-166247500D03*
X189992000Y-136271000D03*
X189992000Y-161290000D03*
%TO.N,/DIR_A_MOTOR_DER*%
X183769000Y-125222000D03*
X218728000Y-144001400D03*
X187198000Y-99441000D03*
X218728000Y-120527500D03*
X167894000Y-125349000D03*
X202015001Y-120904000D03*
X218506203Y-95113336D03*
%TO.N,/DIR_B_MOTOR_DER*%
X218728000Y-141482500D03*
X218728000Y-116717500D03*
X169672000Y-125984000D03*
X169938000Y-117797000D03*
X218728000Y-166247500D03*
%TO.N,/PWM_MOTOR_1_DER*%
X185674000Y-136906000D03*
X220000000Y-95762500D03*
X188297400Y-101241068D03*
%TO.N,/PWM_MOTOR_2_DER*%
X169545000Y-128143000D03*
X220000000Y-120527500D03*
X168640011Y-136655686D03*
%TO.N,/PWM_MOTOR_3_DER*%
X220000000Y-145292500D03*
X188976000Y-139065000D03*
%TO.N,/LS_TRASERO_DX_180G*%
X175907000Y-194632000D03*
X175557691Y-202140000D03*
X171716000Y-141292000D03*
X178193000Y-158945000D03*
%TO.N,/LS_TRASERO_DX_0G*%
X177377378Y-194033689D03*
X171084547Y-136267346D03*
X178955000Y-157929000D03*
X177072602Y-202140000D03*
%TO.N,/ENC_A_DELANTERO_DER*%
X171594555Y-115127365D03*
X194784751Y-115357632D03*
%TO.N,/ENC_A_TRASERO_DER*%
X191020000Y-110685000D03*
X173367000Y-111574000D03*
%TO.N,/ENC_A_MOTOR_2_IZQ*%
X194150056Y-114223949D03*
%TO.N,/LS_TRASERO_IX_180G*%
X172859000Y-201490000D03*
X169557000Y-136974000D03*
%TO.N,/ENC_A_DELANTERO_IZQ*%
X172361008Y-115494861D03*
X193945724Y-115493785D03*
%TO.N,/LS_TRASERO_IX_0G*%
X168414000Y-140784000D03*
X156966369Y-141579550D03*
X159270000Y-193489000D03*
%TO.N,/ENC_A_MOTOR_3_IZQ*%
X180848000Y-112225600D03*
X193052000Y-113479000D03*
%TO.N,/ENC_A_MOTOR_1_DER*%
X191909000Y-106875000D03*
X192512589Y-114518231D03*
X179041400Y-106915600D03*
%TO.N,/ENC_A_MOTOR_1_IZQ*%
X194932913Y-114555067D03*
X181864000Y-115570000D03*
%TO.N,/ENC_A_MOTOR_3_DER*%
X194195000Y-111775000D03*
X178684400Y-112336000D03*
%TO.N,/ENC_A_TRASERO_IZQ*%
X193104648Y-116482888D03*
X238391000Y-191838000D03*
X173449565Y-116766000D03*
%TO.N,/ENC_A_MOTOR_2_DER*%
X191752011Y-114129000D03*
%TO.N,/DIR_A_DELANTERO_DER*%
X175768000Y-76327000D03*
X218728000Y-70997500D03*
X176033856Y-111268551D03*
%TO.N,/UART_RX*%
X190258000Y-70299000D03*
X185162256Y-112063486D03*
%TO.N,/UART_TX*%
X189877000Y-71602300D03*
X184379299Y-112242686D03*
D26*
%TO.N,/FLASH_IO_3*%
X167519200Y-153738000D03*
X177038000Y-136906000D03*
D24*
%TO.N,/FLASH_CLK*%
X178750000Y-137250000D03*
D26*
X167519200Y-151960000D03*
D24*
%TO.N,/FLASH_CS*%
X186702000Y-120210000D03*
X187464000Y-155008000D03*
%TO.N,/FLASH_IO_1*%
X185940000Y-153750000D03*
X178574000Y-141546000D03*
%TO.N,/FLASH_IO_2*%
X184924000Y-149801000D03*
X177685000Y-140530000D03*
D26*
%TO.N,/FLASH_IO_0*%
X168728200Y-149098000D03*
X177800000Y-137160000D03*
D24*
%TO.N,/ACC_1*%
X192925000Y-83761000D03*
X194530495Y-67460719D03*
X187718000Y-83888000D03*
X184289000Y-115765000D03*
%TO.N,/ACC_2*%
X195516628Y-67338458D03*
X195465000Y-77792000D03*
X193433000Y-105986000D03*
%TO.N,/DIR_B_DELANTERO_DER*%
X175338019Y-110845263D03*
X175641000Y-92456000D03*
X218728000Y-91952500D03*
%TO.N,/RPI_GPIO_SDA*%
X175272000Y-69918000D03*
X175234322Y-116362800D03*
%TO.N,/ACC_3*%
X194885600Y-68370922D03*
X194449000Y-76903000D03*
X192925000Y-104843000D03*
%TO.N,/RPI_GPIO_SCL*%
X174411779Y-116362800D03*
X174510000Y-69274200D03*
%TO.N,/RF_DATA_EN*%
X167730549Y-127501041D03*
%TO.N,/RF_DATA_UART_TX*%
X167398000Y-83380000D03*
X167254400Y-112119404D03*
%TO.N,/RF_DATA_TIMER*%
X167135200Y-136019847D03*
X168541000Y-79062000D03*
%TO.N,/RF_DATA_IN_UART*%
X166554200Y-96230567D03*
X166405567Y-112074836D03*
%TO.N,/RF_DATA_IN_TIM*%
X166083832Y-136768262D03*
%TO.N,/RPI_UART2_TX*%
X182384000Y-68648000D03*
X182863400Y-111825130D03*
%TO.N,/RPI_SPI_MISO*%
X178149025Y-132204975D03*
%TO.N,/RPI_SPI_CLK*%
X178066000Y-134040000D03*
%TO.N,/RPI_UART2_RX*%
X183577666Y-112192497D03*
X183400000Y-67632000D03*
%TO.N,/RPI_SPI_MOSI*%
X178131209Y-133089209D03*
%TO.N,/RPI_SPI_CS*%
X196098030Y-66290926D03*
X194830000Y-134180000D03*
%TO.N,/ADC_VBAT1*%
X180860000Y-136974000D03*
D26*
X171462000Y-209618000D03*
%TO.N,/ADC_VBAT2*%
X176784000Y-210380000D03*
D24*
X181707260Y-136905769D03*
%TO.N,/JOY_PB*%
X157492000Y-125798000D03*
%TO.N,/JOY_DIRB*%
X193560000Y-190314000D03*
X194576000Y-131386000D03*
%TO.N,/JOY_DIRA*%
X191782000Y-133782400D03*
%TO.N,/ACC_I2C_SDA*%
X163842000Y-72966000D03*
X161810000Y-131386000D03*
%TO.N,/ACC_I2C_SCL*%
X165299889Y-74520649D03*
X164677000Y-131020372D03*
%TO.N,/BUTON1*%
X119138000Y-60774000D03*
X165747000Y-115257000D03*
X167906000Y-75887000D03*
%TO.N,/BUTON2*%
X112661000Y-60393000D03*
X165493000Y-77919000D03*
X164223000Y-113733000D03*
%TO.N,/BUTON4*%
X154063000Y-76141000D03*
X156349000Y-111701000D03*
X100469000Y-60647000D03*
%TO.N,/BUTON3*%
X106819000Y-60774000D03*
X160540000Y-109288000D03*
X161556000Y-73093000D03*
%TO.N,/ACC_GYR_SDA*%
X170446000Y-161493800D03*
X172977616Y-134330610D03*
%TO.N,/ACC_GYR_SCL*%
X173851917Y-134355250D03*
X175018000Y-161612000D03*
%TO.N,/ACC_GYR_INT*%
X168935437Y-126691600D03*
X166636000Y-169994000D03*
%TO.N,/JTMS{slash}SWDIO*%
X169287493Y-115374402D03*
X168402000Y-119761000D03*
X155460000Y-119702000D03*
%TO.N,/JTCK{slash}SWCLK*%
X156222000Y-117924000D03*
X155460000Y-122242000D03*
%TO.N,/JTDI*%
X156730000Y-120464000D03*
X155923183Y-124291000D03*
%TO.N,/DIR_A_TRASERO_IZQ*%
X190335295Y-126729400D03*
X130272000Y-191012500D03*
X190893000Y-188536000D03*
%TO.N,/DIR_B_TRASERO_IZQ*%
X190292114Y-125880495D03*
X130272000Y-170057500D03*
X190512000Y-164406000D03*
%TO.N,/DIR_A_TRASERO_DER*%
X178514751Y-129333249D03*
X178412213Y-115875400D03*
X218728000Y-170057500D03*
%TO.N,/DIR_B_TRASERO_DER*%
X218728000Y-191012500D03*
D26*
X177761968Y-115048155D03*
D24*
X179070000Y-130810000D03*
%TD*%
D27*
%TO.N,/ACC_GYR_INT*%
X166635999Y-163136001D02*
X166636000Y-163136002D01*
X166636000Y-163136002D02*
X166636000Y-169994000D01*
D28*
%TO.N,/RF_DATA_TIMER*%
X168541000Y-112717000D02*
X168541000Y-79062000D01*
X166382000Y-114876000D02*
X168541000Y-112717000D01*
X166382000Y-124149789D02*
X166382000Y-114876000D01*
X166915401Y-124683190D02*
X166382000Y-124149789D01*
X166960378Y-125799323D02*
X166915400Y-125754347D01*
X166960378Y-127613910D02*
X166960378Y-125799323D01*
X167255507Y-127909039D02*
X166960378Y-127613910D01*
X167255507Y-128719737D02*
X167255507Y-127909039D01*
X166915400Y-125754347D02*
X166915401Y-124683190D01*
X166852600Y-129122644D02*
X167255507Y-128719737D01*
X166861400Y-135318213D02*
X166852600Y-135309413D01*
X167135200Y-136019847D02*
X166861400Y-135746047D01*
X166852600Y-135309413D02*
X166852600Y-129122644D01*
X166861400Y-135746047D02*
X166861400Y-135318213D01*
%TO.N,Net-(JP2-C)*%
X170917500Y-81003500D02*
X170954000Y-80967000D01*
X170917500Y-85040500D02*
X170917500Y-81003500D01*
D29*
%TO.N,/LS_DELANTERO_DX_180G*%
X155460000Y-175455000D02*
X160147000Y-180142000D01*
X158352768Y-140267976D02*
X158352768Y-141101159D01*
X155460000Y-143993927D02*
X155460000Y-175455000D01*
X160147000Y-180142000D02*
X160147000Y-194335760D01*
X158352768Y-141101159D02*
X155460000Y-143993927D01*
X160147000Y-194335760D02*
X160324620Y-194513380D01*
X158778830Y-139841914D02*
X158352768Y-140267976D01*
%TO.N,/LS_DELANTERO_DX_0G*%
X164076000Y-176618000D02*
X160685000Y-180009000D01*
X159002768Y-140831920D02*
X164076000Y-145905152D01*
X160685000Y-180009000D02*
X160685000Y-192666050D01*
X164076000Y-145905152D02*
X164076000Y-176618000D01*
X161163000Y-193144050D02*
X161163000Y-194786074D01*
X159201080Y-140831920D02*
X159002768Y-140831920D01*
X161163000Y-194786074D02*
X161305963Y-194929037D01*
X160685000Y-192666050D02*
X161163000Y-193144050D01*
%TO.N,/LS_DELANTERO_IX_180G*%
X164477000Y-144592586D02*
X159905000Y-140020586D01*
X164477000Y-176782686D02*
X164477000Y-144592586D01*
X163131500Y-178128186D02*
X164477000Y-176782686D01*
X159905000Y-140020586D02*
X159905000Y-135924152D01*
X159905000Y-135924152D02*
X159776039Y-136053113D01*
X163131500Y-195897500D02*
X163131500Y-178128186D01*
%TO.N,/LS_DELANTERO_IX_0G*%
X160517965Y-140065037D02*
X164879000Y-144426072D01*
X164879000Y-176946371D02*
X164205050Y-177620321D01*
X164879000Y-144426072D02*
X164879000Y-176946371D01*
X164205050Y-177620321D02*
X164205050Y-195072000D01*
D30*
%TO.N,+5V*%
X151510000Y-61960000D02*
X150307919Y-61960000D01*
D31*
%TO.N,/nrst*%
X179428000Y-106344777D02*
X179718400Y-106635177D01*
X179428000Y-129700000D02*
X180606000Y-130878000D01*
X179718400Y-106635177D02*
X179718400Y-107196023D01*
X179718400Y-107196023D02*
X179428000Y-107486423D01*
X179428000Y-71096000D02*
X179428000Y-106344777D01*
X179590000Y-70934000D02*
X179428000Y-71096000D01*
X179428000Y-111470577D02*
X179709240Y-111751818D01*
X180606000Y-130878000D02*
X180606000Y-136087601D01*
X179428000Y-107486423D02*
X179428000Y-111470577D01*
X179709240Y-111751818D02*
X179709240Y-112312664D01*
X179709240Y-112312664D02*
X179428000Y-112593904D01*
X179428000Y-112593904D02*
X179428000Y-129700000D01*
X180606000Y-136087601D02*
X180099734Y-136593867D01*
%TO.N,/PWM_DELANTERO_IZQ*%
X190258000Y-97477000D02*
X189185749Y-96404749D01*
X190258000Y-124528000D02*
X190258000Y-97477000D01*
D27*
%TO.N,/PWM_DELANTERO_DER*%
X188468000Y-108626500D02*
X188468000Y-117522498D01*
X188902200Y-101491585D02*
X188775200Y-101618585D01*
X186050400Y-120479902D02*
X186448000Y-120877502D01*
X188902200Y-100990551D02*
X188902200Y-101491585D01*
X188468000Y-100556351D02*
X188902200Y-100990551D01*
X189865000Y-73533000D02*
X188468000Y-74930000D01*
X188775200Y-108319300D02*
X188468000Y-108626500D01*
X188468000Y-117522498D02*
X186050400Y-119940098D01*
X188775200Y-101618585D02*
X188775200Y-108319300D01*
X186050400Y-119940098D02*
X186050400Y-120479902D01*
X186448000Y-120877502D02*
X186448000Y-123131000D01*
X188468000Y-74930000D02*
X188468000Y-100556351D01*
%TO.N,/DIR_B_DELANTERO_IZQ*%
X176796000Y-72458000D02*
X176796000Y-91620918D01*
D31*
X176698200Y-95545380D02*
X176698200Y-110156197D01*
D27*
X176796000Y-91620918D02*
X177048200Y-91873118D01*
X176926800Y-94586990D02*
X176926800Y-95316780D01*
X177177000Y-72077000D02*
X176796000Y-72458000D01*
D31*
X176796000Y-95447580D02*
X176698200Y-95545380D01*
D27*
X177048200Y-94465590D02*
X176926800Y-94586990D01*
D31*
X177026950Y-110484947D02*
X177026950Y-112013880D01*
X177026950Y-112013880D02*
X177079600Y-112066530D01*
X176698200Y-110156197D02*
X177026950Y-110484947D01*
D27*
X176926800Y-95316780D02*
X176796000Y-95447580D01*
X177048200Y-91873118D02*
X177048200Y-94465590D01*
D31*
%TO.N,/DIR_A_DELANTERO_IZQ*%
X177885600Y-96026600D02*
X177885600Y-110294276D01*
X177812000Y-95953000D02*
X177885600Y-96026600D01*
X177885600Y-110294276D02*
X178056350Y-110465026D01*
D27*
%TO.N,/PWM_TRASERO_IZQ*%
X192905600Y-135588045D02*
X192905600Y-136503955D01*
X192798000Y-135480445D02*
X192905600Y-135588045D01*
X192544000Y-187774000D02*
X192544000Y-188330706D01*
X192798000Y-187520000D02*
X192544000Y-187774000D01*
X192798000Y-125892498D02*
X192654400Y-126036098D01*
X192798000Y-121734000D02*
X192798000Y-125892498D01*
X192654400Y-126036098D02*
X192654400Y-126575902D01*
X192798000Y-136611555D02*
X192798000Y-187520000D01*
X192654400Y-126575902D02*
X192798000Y-126719502D01*
X192544000Y-188330706D02*
X192666172Y-188452878D01*
X192798000Y-126719502D02*
X192798000Y-135480445D01*
X192905600Y-136503955D02*
X192798000Y-136611555D01*
%TO.N,/PWM_TRASERO_DER*%
X202057000Y-168529000D02*
X199644000Y-166116000D01*
X218471500Y-168529000D02*
X202057000Y-168529000D01*
X194469502Y-121285000D02*
X194425661Y-121241159D01*
X199644000Y-166116000D02*
X199644000Y-124333000D01*
X220000000Y-170057500D02*
X218471500Y-168529000D01*
X199644000Y-124333000D02*
X196596000Y-121285000D01*
X196596000Y-121285000D02*
X194469502Y-121285000D01*
%TO.N,/DIR_A_MOTOR_IZQ*%
X175993612Y-118280599D02*
X175993612Y-115980723D01*
D32*
X130556000Y-123190000D02*
X130556000Y-141198500D01*
X130556000Y-141198500D02*
X130272000Y-141482500D01*
D27*
X175387000Y-118887211D02*
X175993612Y-118280599D01*
X175387000Y-132969000D02*
X175387000Y-118887211D01*
D32*
X128778000Y-121412000D02*
X130556000Y-123190000D01*
D31*
X154305000Y-162052000D02*
X154305000Y-141478000D01*
D32*
X130272000Y-116717500D02*
X128778000Y-118211500D01*
X128778000Y-118211500D02*
X128778000Y-121412000D01*
D31*
%TO.N,/DIR_B_MOTOR_IZQ*%
X162687000Y-102252790D02*
X162422800Y-102516990D01*
X162422800Y-105899010D02*
X162676800Y-106153010D01*
X162687000Y-123055871D02*
X164519529Y-124888400D01*
X165736662Y-124888400D02*
X165736662Y-126724635D01*
X165110856Y-134493721D02*
X165110856Y-137041279D01*
X165305000Y-134299577D02*
X165110856Y-134493721D01*
X165110856Y-137041279D02*
X165305000Y-137235423D01*
X162687000Y-120517629D02*
X162687000Y-123055871D01*
X162676800Y-106153010D02*
X162676800Y-120507430D01*
X165305000Y-137235423D02*
X165305000Y-140041511D01*
X165736662Y-126724635D02*
X164677000Y-127784297D01*
X162676800Y-120507430D02*
X162687000Y-120517629D01*
X162687000Y-97536000D02*
X162687000Y-102252790D01*
X165305000Y-129576023D02*
X165305000Y-134299577D01*
X164677000Y-127784297D02*
X164677000Y-128948023D01*
X165305000Y-140041511D02*
X164799911Y-140546600D01*
X164677000Y-128948023D02*
X165305000Y-129576023D01*
X162422800Y-102516990D02*
X162422800Y-105899010D01*
X164519529Y-124888400D02*
X165736662Y-124888400D01*
D27*
%TO.N,/PWM_MOTOR_1_IZQ*%
X184912000Y-119263253D02*
X184879947Y-119231200D01*
X184697432Y-137012238D02*
X184900260Y-137012238D01*
X184912000Y-137000498D02*
X184912000Y-119263253D01*
X184900260Y-137012238D02*
X184912000Y-137000498D01*
%TO.N,/PWM_MOTOR_3_IZQ*%
X189653200Y-144343483D02*
X189992000Y-144004683D01*
X189992000Y-161290000D02*
X189992000Y-145183317D01*
X189992000Y-145183317D02*
X189653200Y-144844517D01*
X189992000Y-144004683D02*
X189992000Y-136271000D01*
X189653200Y-144844517D02*
X189653200Y-144343483D01*
%TO.N,/DIR_A_MOTOR_DER*%
X217563900Y-144128400D02*
X216818500Y-143383000D01*
X201887000Y-140292000D02*
X201887000Y-121032001D01*
X187198000Y-100256710D02*
X186705200Y-100749510D01*
X186182000Y-108585000D02*
X186182000Y-112903000D01*
X218601000Y-144128400D02*
X217563900Y-144128400D01*
X185586600Y-107989600D02*
X186182000Y-108585000D01*
X183769000Y-116100317D02*
X183769000Y-125222000D01*
X218728000Y-144001400D02*
X218601000Y-144128400D01*
X185586600Y-103011110D02*
X185586600Y-107989600D01*
X186705200Y-100749510D02*
X186705200Y-101892510D01*
X186705200Y-101892510D02*
X185586600Y-103011110D01*
X183684200Y-115400800D02*
X183684200Y-116015517D01*
X187198000Y-99441000D02*
X187198000Y-100256710D01*
X201887000Y-121032001D02*
X202015001Y-120904000D01*
X186182000Y-112903000D02*
X183684200Y-115400800D01*
X216818500Y-143383000D02*
X204978000Y-143383000D01*
X183684200Y-116015517D02*
X183769000Y-116100317D01*
X204978000Y-143383000D02*
X201887000Y-140292000D01*
D32*
%TO.N,/DIR_B_MOTOR_DER*%
X219075000Y-148082000D02*
X219075000Y-165900500D01*
X220980000Y-121666000D02*
X220980000Y-118969500D01*
X220980000Y-118969500D02*
X218728000Y-116717500D01*
D27*
X169672000Y-125984000D02*
X169672000Y-118063000D01*
D32*
X218728000Y-141482500D02*
X220980000Y-143734500D01*
D27*
X169672000Y-118063000D02*
X169938000Y-117797000D01*
D32*
X218728000Y-123918000D02*
X220980000Y-121666000D01*
X220980000Y-146177000D02*
X219075000Y-148082000D01*
X218728000Y-141482500D02*
X218728000Y-123918000D01*
X219075000Y-165900500D02*
X218728000Y-166247500D01*
X220980000Y-143734500D02*
X220980000Y-146177000D01*
D27*
%TO.N,/PWM_MOTOR_1_DER*%
X186960600Y-114791400D02*
X187812600Y-113939400D01*
X185647200Y-120646912D02*
X185647200Y-119773087D01*
X185928000Y-116618502D02*
X186960600Y-115585902D01*
X185674000Y-120673713D02*
X185647200Y-120646912D01*
X188170400Y-101368068D02*
X188297400Y-101241068D01*
X185928000Y-119492288D02*
X185928000Y-116618502D01*
X187812600Y-113939400D02*
X187812600Y-108711690D01*
X188170400Y-108353890D02*
X188170400Y-101368068D01*
X186960600Y-115585902D02*
X186960600Y-114791400D01*
X187812600Y-108711690D02*
X188170400Y-108353890D01*
X185674000Y-136906000D02*
X185674000Y-120673713D01*
X185647200Y-119773087D02*
X185928000Y-119492288D01*
%TO.N,/PWM_MOTOR_2_DER*%
X169545000Y-128143000D02*
X167894000Y-129794000D01*
X167894000Y-129794000D02*
X167894000Y-135358776D01*
X168640011Y-136582230D02*
X168640011Y-136655686D01*
X168139200Y-136081419D02*
X168640011Y-136582230D01*
X167894000Y-135358776D02*
X168139200Y-135603976D01*
X168139200Y-135603976D02*
X168139200Y-136081419D01*
D29*
%TO.N,/LS_TRASERO_DX_180G*%
X179717000Y-183202000D02*
X180479000Y-182440000D01*
X175907000Y-194632000D02*
X175907000Y-187012000D01*
X175907000Y-187012000D02*
X179717000Y-183202000D01*
X180479000Y-161231000D02*
X178320000Y-159072000D01*
X180479000Y-163517000D02*
X180479000Y-161231000D01*
X178320000Y-159072000D02*
X178193000Y-158945000D01*
X180479000Y-182440000D02*
X180479000Y-163517000D01*
%TO.N,/LS_TRASERO_DX_0G*%
X178655000Y-184829686D02*
X178655000Y-192449686D01*
X179990000Y-160176314D02*
X181006000Y-161192314D01*
X178955000Y-158056000D02*
X179990000Y-159091000D01*
X178955000Y-157929000D02*
X178955000Y-158056000D01*
X181006000Y-161192314D02*
X181006000Y-182478686D01*
X178655000Y-192449686D02*
X177377378Y-193727308D01*
X179990000Y-159091000D02*
X179990000Y-160176314D01*
X177377378Y-193727308D02*
X177377378Y-194033689D01*
X181006000Y-182478686D02*
X178655000Y-184829686D01*
%TO.N,/LS_TRASERO_IX_180G*%
X172859000Y-201490000D02*
X172859000Y-189298000D01*
X167906000Y-184472000D02*
X167906000Y-160102396D01*
X167021800Y-158568800D02*
X166255000Y-157802000D01*
X167906000Y-160102396D02*
X167021800Y-159218195D01*
X172859000Y-189298000D02*
X168033000Y-184472000D01*
X168033000Y-184472000D02*
X167906000Y-184472000D01*
X167021800Y-159218195D02*
X167021800Y-158568800D01*
X169303000Y-143451000D02*
X169303000Y-137228000D01*
X166255000Y-146499000D02*
X169303000Y-143451000D01*
X169303000Y-137228000D02*
X169557000Y-136974000D01*
X166255000Y-157802000D02*
X166255000Y-146499000D01*
%TO.N,/LS_TRASERO_IX_0G*%
X156966369Y-141921872D02*
X156966369Y-141579550D01*
X154425000Y-176001686D02*
X154425000Y-163097314D01*
X154425000Y-163097314D02*
X155060000Y-162462314D01*
X157065993Y-141610533D02*
X156997352Y-141610533D01*
X156997352Y-141610533D02*
X156966369Y-141579550D01*
X158947000Y-180523686D02*
X154425000Y-176001686D01*
X155060000Y-162462314D02*
X155060000Y-143828241D01*
X158947000Y-193166000D02*
X158947000Y-180523686D01*
X159270000Y-193489000D02*
X158947000Y-193166000D01*
X155060000Y-143828241D02*
X156966369Y-141921872D01*
X157111470Y-141656010D02*
X157065993Y-141610533D01*
%TO.N,/ENC_A_MOTOR_1_DER*%
X192251820Y-114779000D02*
X192512589Y-114518231D01*
X191102011Y-113482895D02*
X191102011Y-114398239D01*
X191909000Y-112675906D02*
X191102011Y-113482895D01*
X191482772Y-114779000D02*
X192251820Y-114779000D01*
X191102011Y-114398239D02*
X191482772Y-114779000D01*
X191909000Y-106875000D02*
X191909000Y-112675906D01*
D27*
%TO.N,/DIR_A_DELANTERO_DER*%
X175790200Y-93198190D02*
X175790200Y-110352698D01*
X176033856Y-110596354D02*
X176033856Y-111268551D01*
X175790200Y-110352698D02*
X176033856Y-110596354D01*
X175768000Y-91661498D02*
X176292600Y-92186098D01*
X176292600Y-92695790D02*
X175790200Y-93198190D01*
X175768000Y-76327000D02*
X175768000Y-91661498D01*
X176292600Y-92186098D02*
X176292600Y-92695790D01*
D28*
%TO.N,/UART_RX*%
X185003751Y-111904981D02*
X185162256Y-112063486D01*
X191392200Y-71093828D02*
X185003751Y-77482277D01*
X185003751Y-77482277D02*
X185003751Y-111904981D01*
X191392200Y-70736222D02*
X191392200Y-71093828D01*
X190258000Y-70299000D02*
X190954978Y-70299000D01*
X190954978Y-70299000D02*
X191392200Y-70736222D01*
D29*
%TO.N,/UART_TX*%
X189843700Y-71602300D02*
X184162000Y-77284000D01*
X184162000Y-101410682D02*
X183777000Y-101795682D01*
X183777000Y-107246317D02*
X184162000Y-107631318D01*
X183777000Y-101795682D02*
X183777000Y-107246317D01*
X184162000Y-112025387D02*
X184379299Y-112242686D01*
X184162000Y-107631318D02*
X184162000Y-112025387D01*
X184162000Y-77284000D02*
X184162000Y-101410682D01*
X189877000Y-71602300D02*
X189843700Y-71602300D01*
D28*
%TO.N,/FLASH_IO_3*%
X173290000Y-145004000D02*
X173290000Y-145124000D01*
X173990000Y-144764000D02*
X173530000Y-144764000D01*
X173990000Y-146324000D02*
X173990000Y-146626000D01*
X174364277Y-136484723D02*
X173990000Y-136859000D01*
X173750000Y-144164000D02*
X173990000Y-144164000D01*
X173990000Y-146626000D02*
X173990000Y-146812000D01*
X173990000Y-145364000D02*
X174230000Y-145364000D01*
X174990000Y-144404000D02*
X174990000Y-144524000D01*
X174750000Y-144764000D02*
X173990000Y-144764000D01*
X173990000Y-146204000D02*
X173990000Y-146324000D01*
X173750000Y-143564000D02*
X173580000Y-143564000D01*
X177038000Y-136906000D02*
X176616723Y-136484723D01*
X176616723Y-136484723D02*
X174364277Y-136484723D01*
X173990000Y-146812000D02*
X167454000Y-153348000D01*
X173990000Y-144164000D02*
X174750000Y-144164000D01*
X174750000Y-145964000D02*
X174230000Y-145964000D01*
X167454000Y-153348000D02*
X167454000Y-153672800D01*
X174990000Y-145604000D02*
X174990000Y-145724000D01*
X167454000Y-153672800D02*
X167519200Y-153738000D01*
X173990000Y-136859000D02*
X173990000Y-143324000D01*
X173580000Y-144164000D02*
X173750000Y-144164000D01*
X173530000Y-145364000D02*
X173990000Y-145364000D01*
X173340000Y-143804000D02*
X173340000Y-143924000D01*
X174230000Y-145364000D02*
X174750000Y-145364000D01*
X173530000Y-144764000D02*
G75*
G03*
X173290000Y-145004000I0J-240000D01*
G01*
X173580000Y-143564000D02*
G75*
G03*
X173340000Y-143804000I0J-240000D01*
G01*
X174750000Y-144164000D02*
G75*
G02*
X174990000Y-144404000I0J-240000D01*
G01*
X174990000Y-144524000D02*
G75*
G02*
X174750000Y-144764000I-240000J0D01*
G01*
X174750000Y-145364000D02*
G75*
G02*
X174990000Y-145604000I0J-240000D01*
G01*
X173990000Y-143324000D02*
G75*
G02*
X173750000Y-143564000I-240000J0D01*
G01*
X173340000Y-143924000D02*
G75*
G03*
X173580000Y-144164000I240000J0D01*
G01*
X174990000Y-145724000D02*
G75*
G02*
X174750000Y-145964000I-240000J0D01*
G01*
X174230000Y-145964000D02*
G75*
G03*
X173990000Y-146204000I0J-240000D01*
G01*
X173290000Y-145124000D02*
G75*
G03*
X173530000Y-145364000I240000J0D01*
G01*
%TO.N,/FLASH_CLK*%
X172289698Y-135726890D02*
X171961657Y-135398849D01*
X173414000Y-134942000D02*
X172954380Y-135401619D01*
X174284000Y-135713948D02*
X174164000Y-135713948D01*
X174524000Y-135182000D02*
X174524000Y-135473948D01*
X170923800Y-142468619D02*
X170923800Y-142987381D01*
X173564000Y-134942000D02*
X173414000Y-134942000D01*
X171537392Y-135823113D02*
X171865432Y-136151153D01*
X170923800Y-142987381D02*
X171196000Y-143259581D01*
X173924000Y-135473948D02*
X173924000Y-135182000D01*
X168148000Y-151266000D02*
X167519200Y-151894800D01*
X171196000Y-137160000D02*
X171196000Y-140868605D01*
X171780580Y-136575419D02*
X171196000Y-137160000D01*
X172954380Y-135684463D02*
X172671535Y-135967309D01*
X170923800Y-144168619D02*
X170923800Y-145560200D01*
X168148000Y-148844000D02*
X168148000Y-151266000D01*
X171865432Y-136490565D02*
X171780580Y-136575419D01*
X169926000Y-146558000D02*
X169926000Y-147066000D01*
X167519200Y-151894800D02*
X167519200Y-151960000D01*
X171089800Y-142302619D02*
X170923800Y-142468619D01*
X172459405Y-135896598D02*
X172289698Y-135726890D01*
X171089800Y-140974805D02*
X171089800Y-142302619D01*
X178750000Y-137250000D02*
X176442000Y-134942000D01*
X171196000Y-140868605D02*
X171089800Y-140974805D01*
X176442000Y-134942000D02*
X174764000Y-134942000D01*
X172530115Y-135967308D02*
X172459405Y-135896598D01*
X171196000Y-143259581D02*
X171196000Y-143896419D01*
X173684000Y-134942000D02*
X173564000Y-134942000D01*
X169926000Y-147066000D02*
X168148000Y-148844000D01*
X170923800Y-145560200D02*
X169926000Y-146558000D01*
X171196000Y-143896419D02*
X170923800Y-144168619D01*
X171622246Y-135398849D02*
X171537392Y-135483702D01*
X171537392Y-135483702D02*
G75*
G03*
X171537399Y-135823105I169708J-169698D01*
G01*
X172954380Y-135543041D02*
G75*
G02*
X172954428Y-135684511I-70680J-70759D01*
G01*
X174764000Y-134942000D02*
G75*
G03*
X174524000Y-135182000I0J-240000D01*
G01*
X171961657Y-135398849D02*
G75*
G03*
X171622247Y-135398849I-169705J-169703D01*
G01*
X174164000Y-135713948D02*
G75*
G02*
X173923952Y-135473948I0J240048D01*
G01*
X171865432Y-136151153D02*
G75*
G02*
X171865473Y-136490606I-169732J-169747D01*
G01*
X172954380Y-135401619D02*
G75*
G03*
X172954410Y-135543011I70720J-70681D01*
G01*
X174524000Y-135473948D02*
G75*
G02*
X174284000Y-135713900I-240000J48D01*
G01*
X172671535Y-135967309D02*
G75*
G02*
X172530090Y-135967334I-70735J70709D01*
G01*
X173924000Y-135182000D02*
G75*
G03*
X173684000Y-134942000I-240000J0D01*
G01*
D29*
%TO.N,/FLASH_CS*%
X187464000Y-155008000D02*
X187498000Y-154974000D01*
X187972000Y-121480000D02*
X186702000Y-120210000D01*
X187972000Y-145737000D02*
X187972000Y-121480000D01*
X187498000Y-154974000D02*
X187498000Y-153104655D01*
X187464000Y-146245000D02*
X187972000Y-145737000D01*
X187464000Y-153070656D02*
X187464000Y-146245000D01*
X187498000Y-153104655D02*
X187464000Y-153070656D01*
%TO.N,/FLASH_IO_1*%
X183172261Y-149097459D02*
X182804565Y-149465154D01*
X184416000Y-153275998D02*
X184416000Y-151861237D01*
X180513526Y-147513526D02*
X180683231Y-147343820D01*
X181758046Y-150172260D02*
X181673193Y-150087407D01*
X184416000Y-151861237D02*
X183654000Y-151099237D01*
X180060980Y-148475194D02*
X179976127Y-148390341D01*
X181475195Y-147400393D02*
X180937793Y-147937794D01*
X180513527Y-147513526D02*
X180513526Y-147513526D01*
X180824660Y-148899462D02*
X181362060Y-148362059D01*
X181786326Y-148786327D02*
X181786326Y-148786326D01*
X180683231Y-147343820D02*
X180944861Y-147082190D01*
X182804565Y-149465154D02*
X182634859Y-149634860D01*
X181362060Y-148362059D02*
X181362059Y-148362059D01*
X179919555Y-146919555D02*
X179834703Y-146834703D01*
X182210593Y-149210592D02*
X182210592Y-149210592D01*
X182634859Y-149634860D02*
X182634859Y-149634859D01*
X182634859Y-149634859D02*
X182097456Y-150172259D01*
X180937793Y-147937794D02*
X180937793Y-147937793D01*
X180944861Y-146742779D02*
X180860008Y-146657926D01*
X183596526Y-149182312D02*
X183511673Y-149097459D01*
X182747993Y-148333779D02*
X182663140Y-148248926D01*
X182210592Y-149210592D02*
X182747993Y-148673190D01*
X183654000Y-151099237D02*
X183654000Y-150654000D01*
X181362059Y-148362059D02*
X181899460Y-147824657D01*
X180520596Y-146657926D02*
X180258966Y-146919555D01*
X180937793Y-147937793D02*
X180400390Y-148475193D01*
X183228831Y-149889419D02*
X183596526Y-149521723D01*
X184890002Y-153750000D02*
X184416000Y-153275998D01*
X179976127Y-148050929D02*
X180513527Y-147513526D01*
X181786326Y-148786326D02*
X181248923Y-149323726D01*
X183654000Y-150654000D02*
X183228831Y-150228831D01*
X180909513Y-149323727D02*
X180824660Y-149238874D01*
X179834703Y-146834703D02*
X179245000Y-146245000D01*
X181899460Y-147485246D02*
X181814607Y-147400393D01*
X181673193Y-149747995D02*
X182210593Y-149210592D01*
X179245000Y-146245000D02*
X178574000Y-145574000D01*
X178574000Y-145574000D02*
X178574000Y-141546000D01*
X182323728Y-148248926D02*
X181786326Y-148786327D01*
X185940000Y-153750000D02*
X184890002Y-153750000D01*
X183511673Y-149097459D02*
G75*
G03*
X183172261Y-149097459I-169706J-169704D01*
G01*
X182747993Y-148673190D02*
G75*
G03*
X182747978Y-148333795I-169693J169690D01*
G01*
X183596526Y-149521723D02*
G75*
G03*
X183596544Y-149182295I-169726J169723D01*
G01*
X180860008Y-146657926D02*
G75*
G03*
X180520596Y-146657926I-169706J-169704D01*
G01*
X181899460Y-147824657D02*
G75*
G03*
X181899412Y-147485295I-169660J169657D01*
G01*
X181673193Y-150087407D02*
G75*
G02*
X181673192Y-149747994I169707J169707D01*
G01*
X180400390Y-148475193D02*
G75*
G02*
X180060996Y-148475179I-169690J169693D01*
G01*
X182097456Y-150172259D02*
G75*
G02*
X181758096Y-150172211I-169656J169659D01*
G01*
X183228831Y-150228831D02*
G75*
G02*
X183228806Y-149889394I169669J169731D01*
G01*
X182663140Y-148248926D02*
G75*
G03*
X182323728Y-148248926I-169706J-169704D01*
G01*
X181814607Y-147400393D02*
G75*
G03*
X181475195Y-147400393I-169706J-169704D01*
G01*
X180258966Y-146919555D02*
G75*
G02*
X179919556Y-146919555I-169705J169703D01*
G01*
X181248923Y-149323726D02*
G75*
G02*
X180909496Y-149323745I-169723J169726D01*
G01*
X179976127Y-148390341D02*
G75*
G02*
X179976092Y-148050894I169673J169741D01*
G01*
X180944861Y-147082190D02*
G75*
G03*
X180944846Y-146742795I-169661J169690D01*
G01*
X180824660Y-149238874D02*
G75*
G02*
X180824692Y-148899494I169740J169674D01*
G01*
D27*
%TO.N,/FLASH_IO_2*%
X180987000Y-146245000D02*
X181368000Y-146245000D01*
X181368000Y-146245000D02*
X184924000Y-149801000D01*
X177685000Y-140530000D02*
X178574000Y-140530000D01*
X179971000Y-141927000D02*
X179971000Y-145229000D01*
X179971000Y-145229000D02*
X180987000Y-146245000D01*
X178574000Y-140530000D02*
X179971000Y-141927000D01*
D28*
%TO.N,/FLASH_IO_0*%
X172974000Y-140166004D02*
X172214000Y-140166004D01*
X172974000Y-139566004D02*
X173384000Y-139566004D01*
X173384000Y-138966004D02*
X172974000Y-138966004D01*
X172974000Y-141726004D02*
X172974000Y-142181000D01*
X172214000Y-138366004D02*
X172734000Y-138366004D01*
X173624000Y-141006004D02*
X173624000Y-141126004D01*
X172214000Y-139566004D02*
X172974000Y-139566004D01*
X173384000Y-140166004D02*
X172974000Y-140166004D01*
X168728200Y-149025800D02*
X168728200Y-149098000D01*
X177800000Y-136847473D02*
X177084850Y-136132323D01*
X171974000Y-138006004D02*
X171974000Y-138126004D01*
X172734000Y-137766004D02*
X172214000Y-137766004D01*
X172974000Y-144780000D02*
X168728200Y-149025800D01*
X172974000Y-141606004D02*
X172974000Y-141726004D01*
X172974000Y-138366004D02*
X173384000Y-138366004D01*
X172974000Y-136986000D02*
X172974000Y-137526004D01*
X172734000Y-138366004D02*
X172974000Y-138366004D01*
X177800000Y-137160000D02*
X177800000Y-136847473D01*
X173384000Y-141366004D02*
X173214000Y-141366004D01*
X171974000Y-139206004D02*
X171974000Y-139326004D01*
X173214000Y-140766004D02*
X173384000Y-140766004D01*
X172974000Y-142181000D02*
X172974000Y-144780000D01*
X173827677Y-136132323D02*
X172974000Y-136986000D01*
X172974000Y-140766004D02*
X173214000Y-140766004D01*
X173624000Y-139806004D02*
X173624000Y-139926004D01*
X172974000Y-138966004D02*
X172214000Y-138966004D01*
X171974000Y-140406004D02*
X171974000Y-140526004D01*
X173624000Y-138606004D02*
X173624000Y-138726004D01*
X172214000Y-140766004D02*
X172974000Y-140766004D01*
X177084850Y-136132323D02*
X173827677Y-136132323D01*
X172974000Y-137526004D02*
G75*
G02*
X172734000Y-137766000I-240000J4D01*
G01*
X172214000Y-137766004D02*
G75*
G03*
X171974004Y-138006004I0J-239996D01*
G01*
X173624000Y-138726004D02*
G75*
G02*
X173384000Y-138966000I-240000J4D01*
G01*
X173624000Y-139926004D02*
G75*
G02*
X173384000Y-140166000I-240000J4D01*
G01*
X173384000Y-138366004D02*
G75*
G02*
X173623996Y-138606004I0J-239996D01*
G01*
X171974000Y-138126004D02*
G75*
G03*
X172214000Y-138366000I240000J4D01*
G01*
X173384000Y-140766004D02*
G75*
G02*
X173623996Y-141006004I0J-239996D01*
G01*
X173384000Y-139566004D02*
G75*
G02*
X173623996Y-139806004I0J-239996D01*
G01*
X172214000Y-140166004D02*
G75*
G03*
X171974004Y-140406004I0J-239996D01*
G01*
X173214000Y-141366004D02*
G75*
G03*
X172974004Y-141606004I0J-239996D01*
G01*
X171974000Y-139326004D02*
G75*
G03*
X172214000Y-139566000I240000J4D01*
G01*
X172214000Y-138966004D02*
G75*
G03*
X171974004Y-139206004I0J-239996D01*
G01*
X171974000Y-140526004D02*
G75*
G03*
X172214000Y-140766000I240000J4D01*
G01*
X173624000Y-141126004D02*
G75*
G02*
X173384000Y-141366000I-240000J4D01*
G01*
%TO.N,/ACC_1*%
X186829000Y-112844000D02*
X186632800Y-112647800D01*
X187083000Y-101160000D02*
X187845000Y-100398000D01*
X186956000Y-109034000D02*
X186956000Y-102557000D01*
X187718000Y-98366000D02*
X187718000Y-83888000D01*
X187845000Y-100144000D02*
X187845000Y-98493000D01*
X186632800Y-112647800D02*
X186632800Y-109357200D01*
X187083000Y-100906000D02*
X187083000Y-101160000D01*
X187083000Y-102430000D02*
X187083000Y-100906000D01*
X186632800Y-109357200D02*
X186956000Y-109034000D01*
X184289000Y-115765000D02*
X184289000Y-115384000D01*
X184289000Y-115384000D02*
X186829000Y-112844000D01*
X187845000Y-100398000D02*
X187845000Y-100144000D01*
X187845000Y-98493000D02*
X187718000Y-98366000D01*
X192925000Y-83634000D02*
X192925000Y-83761000D01*
X186956000Y-102557000D02*
X187083000Y-102430000D01*
X192925000Y-69066214D02*
X192925000Y-83634000D01*
X194530495Y-67460719D02*
X192925000Y-69066214D01*
%TO.N,/ACC_2*%
X194068000Y-80078000D02*
X194068000Y-105351000D01*
X195465000Y-67390086D02*
X195465000Y-78681000D01*
X194068000Y-105351000D02*
X193433000Y-105986000D01*
X195516628Y-67338458D02*
X195465000Y-67390086D01*
X195465000Y-78681000D02*
X194068000Y-80078000D01*
D27*
%TO.N,/DIR_B_DELANTERO_DER*%
X175387000Y-92710000D02*
X175387000Y-110796282D01*
X175641000Y-92456000D02*
X175387000Y-92710000D01*
X175387000Y-110796282D02*
X175338019Y-110845263D01*
D28*
%TO.N,/RPI_GPIO_SDA*%
X174882200Y-92329219D02*
X174882200Y-110490219D01*
X175141800Y-76586381D02*
X175272000Y-76716581D01*
X174760800Y-111116200D02*
X175141800Y-111497200D01*
X174882200Y-110490219D02*
X174760800Y-110611619D01*
X175141800Y-76067619D02*
X175141800Y-76586381D01*
X175390200Y-116206922D02*
X175234322Y-116362800D01*
X175141800Y-111497200D02*
X175141800Y-112146381D01*
X174760800Y-110611619D02*
X174760800Y-111116200D01*
X175272000Y-76716581D02*
X175272000Y-91939419D01*
X175272000Y-115006419D02*
X175390200Y-115124619D01*
X175272000Y-69918000D02*
X175272000Y-75937419D01*
X175272000Y-75937419D02*
X175141800Y-76067619D01*
X175272000Y-112276581D02*
X175272000Y-115006419D01*
X175272000Y-91939419D02*
X174882200Y-92329219D01*
X175141800Y-112146381D02*
X175272000Y-112276581D01*
X175390200Y-115124619D02*
X175390200Y-116206922D01*
%TO.N,/ACC_3*%
X194449000Y-76903000D02*
X194449000Y-79189000D01*
X194449000Y-79189000D02*
X193560000Y-80078000D01*
X193560000Y-104208000D02*
X192925000Y-104843000D01*
X193560000Y-80078000D02*
X193560000Y-104208000D01*
X194449000Y-76903000D02*
X194449000Y-68859150D01*
X194449000Y-68859150D02*
X194885600Y-68422550D01*
X194885600Y-68422550D02*
X194885600Y-68370922D01*
%TO.N,/RPI_GPIO_SCL*%
X174137800Y-115130000D02*
X174137800Y-116088821D01*
X174137800Y-116088821D02*
X174411779Y-116362800D01*
X174510000Y-111377950D02*
X174510000Y-114757800D01*
X174510000Y-114757800D02*
X174137800Y-115130000D01*
X174510000Y-69274200D02*
X174510000Y-108683342D01*
X174408400Y-108784942D02*
X174408400Y-111276349D01*
X174408400Y-111276349D02*
X174510000Y-111377950D01*
X174510000Y-108683342D02*
X174408400Y-108784942D01*
%TO.N,/RF_DATA_EN*%
X168922000Y-89576000D02*
X170917500Y-87580500D01*
X167267800Y-125089619D02*
X167398000Y-124959419D01*
X167398000Y-125738581D02*
X167267800Y-125608381D01*
X167657799Y-115305287D02*
X168278200Y-114684886D01*
X168278200Y-114684886D02*
X168278200Y-114503800D01*
X167398000Y-127550334D02*
X167398000Y-125738581D01*
X167398000Y-116523581D02*
X167657799Y-116263782D01*
X167410833Y-127563167D02*
X167398000Y-127550334D01*
X168278200Y-114503800D02*
X168922000Y-113860000D01*
X167398000Y-124959419D02*
X167398000Y-116523581D01*
X167657799Y-116263782D02*
X167657799Y-115305287D01*
X168922000Y-113860000D02*
X168922000Y-89576000D01*
X167267800Y-125608381D02*
X167267800Y-125089619D01*
%TO.N,/RF_DATA_UART_TX*%
X167279800Y-108023381D02*
X167398000Y-108141581D01*
X167398000Y-107386419D02*
X167279800Y-107504619D01*
X167144000Y-83634000D02*
X167144000Y-106494000D01*
X167398000Y-108141581D02*
X167398000Y-111975804D01*
X167144000Y-106494000D02*
X167398000Y-106748000D01*
X167398000Y-111975804D02*
X167254400Y-112119404D01*
X167398000Y-83380000D02*
X167144000Y-83634000D01*
X167398000Y-106748000D02*
X167398000Y-107386419D01*
X167279800Y-107504619D02*
X167279800Y-108023381D01*
%TO.N,/RF_DATA_IN_UART*%
X166405567Y-112074836D02*
X166405567Y-96379200D01*
D29*
X166306200Y-96131200D02*
X166306200Y-96080000D01*
D28*
X166405567Y-96379200D02*
X166554200Y-96230567D01*
D29*
X166405567Y-96230567D02*
X166306200Y-96131200D01*
X166554200Y-96230567D02*
X166405567Y-96230567D01*
D28*
X166382000Y-96207000D02*
X166405567Y-96230567D01*
X166405567Y-96230567D02*
X166554200Y-96230567D01*
%TO.N,/RF_DATA_IN_TIM*%
X166509000Y-136343094D02*
X166509000Y-135464181D01*
X166607981Y-125945300D02*
X166563001Y-125900322D01*
X166509000Y-135464181D02*
X166500200Y-135455381D01*
X166158000Y-129318876D02*
X166903107Y-128573769D01*
X166903107Y-128055007D02*
X166607981Y-127759881D01*
X163080000Y-120340419D02*
X163080000Y-105799908D01*
X166083832Y-136768262D02*
X166509000Y-136343094D01*
X165486381Y-122436800D02*
X165176381Y-122436800D01*
X165176381Y-122436800D02*
X163080000Y-120340419D01*
X166607981Y-127759881D02*
X166607981Y-125945300D01*
X166563001Y-125900322D02*
X166563001Y-124829158D01*
X166158000Y-134086419D02*
X166158000Y-129318876D01*
X166500200Y-135455381D02*
X166500200Y-134428619D01*
X162826000Y-105545908D02*
X162826000Y-104970000D01*
X164350000Y-103446000D02*
X164350000Y-101160000D01*
X163080000Y-105799908D02*
X162826000Y-105545908D01*
X166903107Y-128573769D02*
X166903107Y-128055007D01*
X166563001Y-124829158D02*
X165782353Y-124048510D01*
X162826000Y-104970000D02*
X164350000Y-103446000D01*
X166500200Y-134428619D02*
X166158000Y-134086419D01*
X165782353Y-123393228D02*
X165853200Y-123322381D01*
X165782353Y-124048510D02*
X165782353Y-123393228D01*
X165853200Y-123322381D02*
X165853200Y-122803619D01*
X165853200Y-122803619D02*
X165486381Y-122436800D01*
%TO.N,/RPI_UART2_TX*%
X182526800Y-106352996D02*
X182384000Y-106495796D01*
X182384000Y-106495796D02*
X182384000Y-111516604D01*
X182384000Y-68648000D02*
X182384000Y-105730204D01*
X182384000Y-105730204D02*
X182526800Y-105873004D01*
X182526800Y-105873004D02*
X182526800Y-106352996D01*
X182692526Y-111825130D02*
X182863400Y-111825130D01*
X182384000Y-111516604D02*
X182692526Y-111825130D01*
%TO.N,/RPI_SPI_MISO*%
X174370000Y-64500000D02*
X176392800Y-66522800D01*
X176670400Y-94309100D02*
X176168000Y-94811500D01*
X176145800Y-76834781D02*
X176145800Y-91505008D01*
X176463400Y-130519350D02*
X178149025Y-132204975D01*
X176168000Y-94811500D02*
X176168000Y-110196208D01*
X176619812Y-116240104D02*
X176463400Y-116396516D01*
X176392800Y-76587781D02*
X176145800Y-76834781D01*
X176392800Y-66522800D02*
X176392800Y-76587781D01*
X176463400Y-116396516D02*
X176463400Y-130519350D01*
X176619812Y-115721342D02*
X176619812Y-116240104D01*
X176670400Y-92029608D02*
X176670400Y-94309100D01*
X176393400Y-111867149D02*
X176393400Y-115494930D01*
X176168000Y-110196208D02*
X176623750Y-110651958D01*
X176623750Y-111636799D02*
X176393400Y-111867149D01*
X176623750Y-110651958D02*
X176623750Y-111636799D01*
X176145800Y-91505008D02*
X176670400Y-92029608D01*
X176393400Y-115494930D02*
X176619812Y-115721342D01*
%TO.N,/RPI_SPI_CLK*%
X178058200Y-112076619D02*
X178058200Y-113920676D01*
X177324612Y-115429406D02*
X177324612Y-116532041D01*
X178415200Y-107174981D02*
X178723200Y-107482981D01*
X178723200Y-107482981D02*
X178723200Y-111411619D01*
X177098200Y-114880676D02*
X177098200Y-115202994D01*
X178723200Y-66428881D02*
X178723200Y-106348219D01*
X179450000Y-65702081D02*
X178723200Y-66428881D01*
X177098200Y-115202994D02*
X177324612Y-115429406D01*
X178714000Y-134040000D02*
X178066000Y-134040000D01*
X178415200Y-106656219D02*
X178415200Y-107174981D01*
X178723200Y-111411619D02*
X178058200Y-112076619D01*
X177324612Y-116532041D02*
X177168200Y-116688453D01*
X179450000Y-64500000D02*
X179450000Y-65702081D01*
X179590000Y-133164000D02*
X178714000Y-134040000D01*
X177168200Y-129823490D02*
X179590000Y-132245290D01*
X178723200Y-106348219D02*
X178415200Y-106656219D01*
X177168200Y-116688453D02*
X177168200Y-129823490D01*
X178058200Y-113920676D02*
X177098200Y-114880676D01*
X179590000Y-132245290D02*
X179590000Y-133164000D01*
%TO.N,/RPI_UART2_RX*%
X183577666Y-111720000D02*
X183577666Y-112192497D01*
X183400000Y-67632000D02*
X183343837Y-67688163D01*
X183343837Y-111486171D02*
X183577666Y-111720000D01*
X183343837Y-67688163D02*
X183343837Y-111486171D01*
%TO.N,/RPI_SPI_MOSI*%
X177426000Y-91716628D02*
X177426000Y-95387790D01*
X178828000Y-131981658D02*
X178828000Y-132392418D01*
X177760000Y-84622190D02*
X177422200Y-84959990D01*
X177102400Y-109988773D02*
X177430150Y-110316523D01*
X176815800Y-129969458D02*
X178828000Y-131981658D01*
X176815800Y-116542485D02*
X176815800Y-129969458D01*
X176910000Y-64500000D02*
X177760000Y-65350000D01*
X178828000Y-132392418D02*
X178131209Y-133089209D01*
X177426000Y-95387790D02*
X177200200Y-95613590D01*
X176745800Y-115348962D02*
X176972212Y-115575374D01*
X176972212Y-115575374D02*
X176972212Y-116386072D01*
X177422200Y-91712828D02*
X177426000Y-91716628D01*
X177102400Y-95712806D02*
X177102400Y-109988773D01*
X176972212Y-116386072D02*
X176815800Y-116542485D01*
X177430150Y-110316523D02*
X177430150Y-110724407D01*
X176745800Y-113336837D02*
X176745800Y-115348962D01*
X177705800Y-111000057D02*
X177705800Y-112376837D01*
X177422200Y-84959990D02*
X177422200Y-91712828D01*
X177760000Y-65350000D02*
X177760000Y-84622190D01*
X177430150Y-110724407D02*
X177705800Y-111000057D01*
X177705800Y-112376837D02*
X176745800Y-113336837D01*
X177200200Y-95613590D02*
X177200200Y-95615006D01*
X177200200Y-95615006D02*
X177102400Y-95712806D01*
D27*
%TO.N,/RPI_SPI_CS*%
X192782491Y-115169831D02*
X193403507Y-114548815D01*
X195338000Y-133672000D02*
X195338000Y-123075000D01*
X192667963Y-115169831D02*
X192782491Y-115169831D01*
X194818000Y-79862290D02*
X196196800Y-78483490D01*
X194818000Y-112634502D02*
X194818000Y-79862290D01*
X195338000Y-123075000D02*
X191687400Y-119424400D01*
X196196800Y-66389696D02*
X196098030Y-66290926D01*
X193403507Y-114548815D02*
X193403507Y-114048995D01*
X191687400Y-119424400D02*
X191687400Y-116150394D01*
X193403507Y-114048995D02*
X194818000Y-112634502D01*
X196196800Y-78483490D02*
X196196800Y-66389696D01*
X191687400Y-116150394D02*
X192667963Y-115169831D01*
X194830000Y-134180000D02*
X195338000Y-133672000D01*
D31*
%TO.N,/ADC_VBAT1*%
X185617800Y-145043090D02*
X185617800Y-144017800D01*
X186617000Y-154030423D02*
X186617000Y-153469577D01*
X185940000Y-145365290D02*
X185617800Y-145043090D01*
X181433000Y-158753000D02*
X185759000Y-154427000D01*
X185759000Y-154427000D02*
X186220423Y-154427000D01*
X181433000Y-182655555D02*
X181433000Y-158753000D01*
X180860000Y-139260000D02*
X180860000Y-136974000D01*
X179082000Y-185006555D02*
X181433000Y-182655555D01*
X178574000Y-193134556D02*
X179082000Y-192626556D01*
X178574000Y-206824000D02*
X178574000Y-193134556D01*
X186220423Y-154427000D02*
X186617000Y-154030423D01*
X171462000Y-209618000D02*
X175780000Y-209618000D01*
X175780000Y-209618000D02*
X178574000Y-206824000D01*
X185617800Y-144017800D02*
X180860000Y-139260000D01*
X186617000Y-153469577D02*
X185940000Y-152792577D01*
X179082000Y-192626556D02*
X179082000Y-185006555D01*
X185940000Y-152792577D02*
X185940000Y-145365290D01*
%TO.N,/ADC_VBAT2*%
X186702000Y-143702762D02*
X186702000Y-142308000D01*
X187071000Y-153281525D02*
X186702000Y-152912525D01*
X179082000Y-193268608D02*
X179590000Y-192760608D01*
X186071800Y-144332962D02*
X186702000Y-143702762D01*
X179590000Y-192760608D02*
X179590000Y-186272000D01*
X186702000Y-142308000D02*
X181707260Y-137313260D01*
X187071000Y-154218475D02*
X187071000Y-153281525D01*
X181707260Y-137313260D02*
X181707260Y-136905769D01*
X186702000Y-145485238D02*
X186071800Y-144855038D01*
X179082000Y-208082000D02*
X179082000Y-193268608D01*
X181760000Y-184102000D02*
X181760000Y-182970607D01*
X186702000Y-152912525D02*
X186702000Y-145485238D01*
X179590000Y-186272000D02*
X181760000Y-184102000D01*
X176784000Y-210380000D02*
X179082000Y-208082000D01*
X186071800Y-144855038D02*
X186071800Y-144332962D01*
X181887000Y-159402475D02*
X187071000Y-154218475D01*
X181760000Y-182970607D02*
X181887000Y-182843607D01*
X181887000Y-182843607D02*
X181887000Y-159402475D01*
%TO.N,/JOY_PB*%
X161185612Y-139516614D02*
X160794000Y-139125002D01*
X171335000Y-194251000D02*
X165112000Y-188028000D01*
X174536000Y-205110000D02*
X171335000Y-201909000D01*
X161185612Y-140128813D02*
X161185612Y-139516614D01*
X160794000Y-139125002D02*
X160794000Y-129100000D01*
X160794000Y-129100000D02*
X157492000Y-125798000D01*
X171335000Y-201909000D02*
X171335000Y-194251000D01*
X165306000Y-144249202D02*
X161185612Y-140128813D01*
X165112000Y-177317240D02*
X165306000Y-177123240D01*
X165306000Y-177123240D02*
X165306000Y-144249202D01*
X165112000Y-188028000D02*
X165112000Y-177317240D01*
D28*
%TO.N,/JOY_DIRB*%
X194948200Y-138503381D02*
X194948200Y-137984619D01*
X194583800Y-136955510D02*
X193683800Y-136055510D01*
X193560000Y-190314000D02*
X194137200Y-189736800D01*
X193683800Y-136055510D02*
X193683800Y-132278200D01*
X194137200Y-141743981D02*
X194583800Y-141297381D01*
X194948200Y-137984619D02*
X194583800Y-137620219D01*
X166286000Y-192210000D02*
X166286000Y-198710000D01*
X193683800Y-132278200D02*
X194576000Y-131386000D01*
X194137200Y-189736800D02*
X194137200Y-141743981D01*
X194583800Y-138867781D02*
X194948200Y-138503381D01*
X194583800Y-141297381D02*
X194583800Y-138867781D01*
X194583800Y-137620219D02*
X194583800Y-136955510D01*
D31*
%TO.N,/JOY_DIRA*%
X192369400Y-136434023D02*
X192477000Y-136326423D01*
X191782000Y-133926000D02*
X191782000Y-133782400D01*
X192477000Y-135765577D02*
X192369400Y-135657977D01*
X192369400Y-187276600D02*
X192369400Y-136434023D01*
X191660000Y-189117370D02*
X191660000Y-187986000D01*
X191660000Y-187986000D02*
X192369400Y-187276600D01*
X192369400Y-135657977D02*
X192369400Y-134513400D01*
X192369400Y-134513400D02*
X191782000Y-133926000D01*
X184186000Y-195460000D02*
X185317370Y-195460000D01*
X192477000Y-136326423D02*
X192477000Y-135765577D01*
X185317370Y-195460000D02*
X191660000Y-189117370D01*
D28*
%TO.N,/ACC_I2C_SDA*%
X161932200Y-76169828D02*
X161932200Y-74875800D01*
X161810000Y-109284579D02*
X161804400Y-109278978D01*
X161810000Y-131386000D02*
X161810000Y-109284579D01*
X161804400Y-108266400D02*
X161302000Y-107764000D01*
X161932200Y-74875800D02*
X163842000Y-72966000D01*
X161804400Y-109278978D02*
X161804400Y-108266400D01*
X161302000Y-107764000D02*
X161302000Y-76800028D01*
X161302000Y-76800028D02*
X161932200Y-76169828D01*
%TO.N,/ACC_I2C_SCL*%
X162273600Y-120674440D02*
X162273600Y-107211600D01*
X163080000Y-124280210D02*
X162283800Y-123484010D01*
X161810000Y-87190000D02*
X162064000Y-86936000D01*
X164188800Y-128430800D02*
X163080000Y-127322000D01*
X163080000Y-127322000D02*
X163080000Y-124280210D01*
X161810000Y-106748000D02*
X161810000Y-87190000D01*
X164079747Y-74520649D02*
X165299889Y-74520649D01*
X162064000Y-76536396D02*
X164079747Y-74520649D01*
X164188800Y-130532172D02*
X164188800Y-128430800D01*
X162283800Y-123484010D02*
X162283800Y-120684641D01*
X162273600Y-107211600D02*
X161810000Y-106748000D01*
X164677000Y-131020372D02*
X164188800Y-130532172D01*
X162283800Y-120684641D02*
X162273600Y-120674440D01*
X162064000Y-86936000D02*
X162064000Y-76536396D01*
D27*
%TO.N,/BUTON1*%
X165902600Y-90336400D02*
X165902600Y-105890348D01*
X166382000Y-79189000D02*
X166382000Y-89857000D01*
X166382000Y-89857000D02*
X165902600Y-90336400D01*
X165747000Y-106045948D02*
X165747000Y-115257000D01*
X167906000Y-75887000D02*
X167906000Y-77665000D01*
X167906000Y-77665000D02*
X166382000Y-79189000D01*
X165902600Y-105890348D02*
X165747000Y-106045948D01*
D29*
%TO.N,/BUTON2*%
X164223000Y-107002000D02*
X164223000Y-107383000D01*
X165493000Y-77919000D02*
X165501000Y-77927000D01*
X164223000Y-107383000D02*
X163715000Y-107891000D01*
X165501000Y-105724000D02*
X164223000Y-107002000D01*
X163715000Y-113225000D02*
X164223000Y-113733000D01*
X165501000Y-77927000D02*
X165501000Y-105724000D01*
X163715000Y-107891000D02*
X163715000Y-113225000D01*
%TO.N,/BUTON4*%
X154063000Y-109415000D02*
X156349000Y-111701000D01*
X154063000Y-76141000D02*
X154063000Y-109415000D01*
%TO.N,/BUTON3*%
X160540000Y-77030000D02*
X160540000Y-109288000D01*
X161556000Y-73093000D02*
X161556000Y-76014000D01*
X161556000Y-76014000D02*
X160540000Y-77030000D01*
D28*
%TO.N,/ACC_GYR_SDA*%
X170700000Y-143832000D02*
X170700000Y-143261950D01*
X170327800Y-136076200D02*
X171970000Y-134434000D01*
X170700000Y-136733051D02*
X170327800Y-136360851D01*
X170571400Y-142322650D02*
X170700000Y-142194051D01*
X167750400Y-158916400D02*
X167750400Y-156894032D01*
X170327800Y-161493800D02*
X167750400Y-158916400D01*
X170446000Y-161493800D02*
X170327800Y-161493800D01*
X167750400Y-156894032D02*
X166983600Y-156127232D01*
X170327800Y-136360851D02*
X170327800Y-136076200D01*
X166983600Y-156127232D02*
X166983600Y-147548400D01*
X170571400Y-143133349D02*
X170571400Y-142322650D01*
X172874226Y-134434000D02*
X172977616Y-134330610D01*
X171970000Y-134434000D02*
X172874226Y-134434000D01*
X170700000Y-142194051D02*
X170700000Y-136733051D01*
X166983600Y-147548400D02*
X170700000Y-143832000D01*
X170700000Y-143261950D02*
X170571400Y-143133349D01*
%TO.N,/ACC_GYR_SCL*%
X172513754Y-133908891D02*
X172718235Y-133704410D01*
X167398000Y-157040000D02*
X166631200Y-156273200D01*
X171462000Y-162120000D02*
X170192000Y-162120000D01*
X167398000Y-159062368D02*
X167398000Y-157040000D01*
X170192000Y-162120000D02*
X168668000Y-160596000D01*
X175018000Y-161612000D02*
X171970000Y-161612000D01*
X171970000Y-161612000D02*
X171462000Y-162120000D01*
X170192000Y-143578000D02*
X170192000Y-136723419D01*
X168668000Y-160596000D02*
X168668000Y-160332368D01*
X169975400Y-135666600D02*
X171733109Y-133908891D01*
X170192000Y-136723419D02*
X169975400Y-136506819D01*
X166631200Y-156273200D02*
X166631200Y-147138800D01*
X168668000Y-160332368D02*
X167398000Y-159062368D01*
X172718235Y-133704410D02*
X173201077Y-133704410D01*
X173201077Y-133704410D02*
X173851917Y-134355250D01*
X169975400Y-136506819D02*
X169975400Y-135666600D01*
X171733109Y-133908891D02*
X172513754Y-133908891D01*
X166631200Y-147138800D02*
X170192000Y-143578000D01*
%TO.N,/ACC_GYR_INT*%
X168935437Y-126691600D02*
X168935437Y-127538175D01*
X167761400Y-144230702D02*
X165751800Y-146240302D01*
X167761400Y-135760466D02*
X167761400Y-144230702D01*
X168935437Y-127538175D02*
X167205000Y-129268612D01*
X167205000Y-135204066D02*
X167761400Y-135760466D01*
X165751800Y-146240302D02*
X165751800Y-162251802D01*
X165751800Y-162251802D02*
X166635999Y-163136001D01*
X167205000Y-129268612D02*
X167205000Y-135204066D01*
D29*
%TO.N,/JTMS{slash}SWDIO*%
X168414000Y-119702000D02*
X168414000Y-119749000D01*
X168414000Y-117308360D02*
X169411226Y-116311134D01*
X168414000Y-119702000D02*
X168414000Y-117308360D01*
X169411226Y-115498135D02*
X169287493Y-115374402D01*
X169411226Y-116311134D02*
X169411226Y-115498135D01*
X168414000Y-119749000D02*
X168402000Y-119761000D01*
%TO.N,/JTCK{slash}SWCLK*%
X156080000Y-121622000D02*
X156080000Y-120194761D01*
X156222000Y-120052761D02*
X156222000Y-117924000D01*
X155460000Y-122242000D02*
X156080000Y-121622000D01*
X156080000Y-120194761D02*
X156222000Y-120052761D01*
%TO.N,/JTDI*%
X156730000Y-120464000D02*
X156730000Y-123559000D01*
X156730000Y-123559000D02*
X155998000Y-124291000D01*
X155998000Y-124291000D02*
X155923183Y-124291000D01*
D31*
%TO.N,/DIR_A_TRASERO_IZQ*%
X190978000Y-127372105D02*
X190335295Y-126729400D01*
X190978000Y-135657524D02*
X190978000Y-127372105D01*
X191342200Y-145043090D02*
X191342200Y-144144910D01*
X191189000Y-188240000D02*
X191189000Y-164125577D01*
X191342200Y-144144910D02*
X190978000Y-143780710D01*
X190978000Y-136884475D02*
X191123000Y-136739475D01*
X191123000Y-145262290D02*
X191342200Y-145043090D01*
X190978000Y-143780710D02*
X190978000Y-136884475D01*
X191123000Y-136739475D02*
X191123000Y-135802525D01*
X191123000Y-164059577D02*
X191123000Y-145262290D01*
X191189000Y-164125577D02*
X191123000Y-164059577D01*
X191123000Y-135802525D02*
X190978000Y-135657524D01*
X190893000Y-188536000D02*
X191189000Y-188240000D01*
%TO.N,/DIR_B_TRASERO_IZQ*%
X189667505Y-125880495D02*
X190292114Y-125880495D01*
X190512000Y-136708423D02*
X190669000Y-136551423D01*
X190669000Y-164249000D02*
X190669000Y-145074238D01*
X188607000Y-129354000D02*
X188607000Y-126941000D01*
X190888200Y-144855038D02*
X190888200Y-144332962D01*
X190669000Y-145074238D02*
X190888200Y-144855038D01*
X190512000Y-131259000D02*
X188607000Y-129354000D01*
X188607000Y-126941000D02*
X189667505Y-125880495D01*
X190512000Y-143956762D02*
X190512000Y-136708423D01*
X190669000Y-135990577D02*
X190512000Y-135833577D01*
X190669000Y-136551423D02*
X190669000Y-135990577D01*
X190512000Y-164406000D02*
X190669000Y-164249000D01*
X190888200Y-144332962D02*
X190512000Y-143956762D01*
X190512000Y-135833577D02*
X190512000Y-131259000D01*
D27*
%TO.N,/DIR_A_TRASERO_DER*%
X178435000Y-129253498D02*
X178435000Y-115898187D01*
X178435000Y-115898187D02*
X178412213Y-115875400D01*
X178514751Y-129333249D02*
X178435000Y-129253498D01*
%TO.N,/DIR_B_TRASERO_DER*%
X177546000Y-129286000D02*
X177546000Y-116844943D01*
X177761968Y-116628975D02*
X177761968Y-115048155D01*
X177546000Y-116844943D02*
X177761968Y-116628975D01*
X179070000Y-130810000D02*
X177546000Y-129286000D01*
%TD*%
M02*
